<svg width="40" height="40" viewBox="0 0 40 40" fill="none" xmlns="http://www.w3.org/2000/svg">
<rect width="40" height="40" rx="8" fill="#4E821C" fill-opacity="0.15"/>
<path d="M24.9745 5C25.6113 4.99851 26.1149 5.49326 26.1163 6.15293L26.1178 7.27737C30.2498 7.6012 32.9792 10.4168 32.9837 14.7346L33 27.3733C33.0059 32.0809 30.0484 34.9775 25.3077 34.985L13.7278 35C9.0168 35.006 6.02223 32.0405 6.01631 27.3193L6.00001 14.8291C5.9941 10.4828 8.6273 7.67467 12.7593 7.29536L12.7578 6.17092C12.7563 5.51125 13.245 5.015 13.8967 5.015C14.5483 5.0135 15.037 5.50825 15.0385 6.16792L15.04 7.2174L23.8371 7.2054L23.8356 6.15593C23.8341 5.49626 24.3229 5.00151 24.9745 5ZM25.5787 26.2878H25.5639C24.8827 26.3043 24.3362 26.8756 24.351 27.5652C24.3525 28.2549 24.9019 28.8231 25.5832 28.8381C26.2778 28.8366 26.8405 28.2654 26.8391 27.5607C26.8391 26.8561 26.2748 26.2878 25.5787 26.2878ZM13.3754 26.2893C12.6941 26.3193 12.1609 26.8905 12.1624 27.5802C12.1935 28.2699 12.7563 28.8096 13.4376 28.7781C14.1055 28.7481 14.6372 28.1769 14.6061 27.4872C14.5913 26.8126 14.0418 26.2878 13.3754 26.2893ZM19.477 26.2818C18.7958 26.3133 18.2641 26.883 18.2641 27.5727C18.2952 28.2624 18.858 28.8006 19.5392 28.7706C20.2057 28.7391 20.7389 28.1694 20.7077 27.4782C20.6929 26.8051 20.1435 26.2803 19.477 26.2818ZM13.368 20.892C12.6867 20.922 12.155 21.4932 12.1565 22.1829C12.1861 22.8726 12.7504 23.4123 13.4316 23.3808C14.0981 23.3508 14.6298 22.7796 14.5987 22.0899C14.5838 21.4153 14.0359 20.8905 13.368 20.892ZM19.4711 20.8396C18.7899 20.8696 18.2567 21.4408 18.2582 22.1304C18.2878 22.8201 18.8521 23.3583 19.5333 23.3283C20.1998 23.2968 20.7314 22.7271 20.7018 22.0375C20.6855 21.3628 20.1376 20.8381 19.4711 20.8396ZM25.5728 20.8471C24.8916 20.8621 24.3584 21.4168 24.3599 22.1064V22.1229C24.3747 22.8126 24.9375 23.3358 25.6202 23.3208C26.2866 23.3043 26.8183 22.7331 26.8035 22.0435C26.7724 21.3838 26.2378 20.8456 25.5728 20.8471ZM23.84 9.51425L15.043 9.52624L15.0444 10.7391C15.0444 11.3853 14.5572 11.8951 13.9056 11.8951C13.2539 11.8966 12.7637 11.3883 12.7637 10.7421L12.7622 9.58771C9.87429 9.87706 8.2763 11.5742 8.28074 14.8261L8.28223 15.2924L30.7044 15.2624V14.7376C30.6408 11.5142 29.0235 9.82309 26.1208 9.57122L26.1223 10.7256C26.1223 11.3703 25.6202 11.8816 24.9834 11.8816C24.3317 11.8831 23.8415 11.3733 23.8415 10.7286L23.84 9.51425Z" fill="#4E821C"/>
</svg>
