<svg width="96" height="96" viewBox="0 0 96 96" fill="none" xmlns="http://www.w3.org/2000/svg">
<g clip-path="url(#clip0_269_1155)">
<path d="M6.78729e-05 91.6277C1.24467 88.679 2.48927 85.7278 3.73388 82.779C3.8769 82.4376 4.01993 82.0961 4.16296 81.7546C4.61965 81.6773 4.82792 82.0412 5.07885 82.2905C7.77883 84.9576 10.4713 87.6321 13.1562 90.3166C13.4046 90.5634 13.7835 90.7678 13.6807 91.2264C10.805 92.4079 7.89426 93.5171 5.06128 94.7958C2.75275 95.8377 1.08659 95.3268 -0.00244141 92.9339C-0.00244141 92.4977 -0.00244141 92.064 -0.00244141 91.6277H6.78729e-05Z" fill="#EC3F03"/>
<path d="M18.4131 47.4116C19.5874 44.5426 20.7342 41.6612 21.9512 38.8097C22.5986 37.2892 24.2296 36.8854 25.8305 37.7952C28.6233 39.3855 31.2982 41.1627 33.9455 42.9798C44.1357 49.9765 51.6736 59.3138 57.9418 69.7727C58.9028 71.3754 58.3683 72.9757 56.667 73.6811C53.8767 74.8376 51.0663 75.9468 48.266 77.076C47.857 77.0112 47.6387 76.6847 47.3777 76.4279C37.9353 67.0533 28.4979 57.6786 19.063 48.299C18.8045 48.0398 18.4733 47.8229 18.4156 47.4141L18.4131 47.4116Z" fill="#EC3F03"/>
<path d="M18.4131 47.4116C18.6264 47.5911 18.8523 47.7581 19.048 47.955C28.6083 57.4493 38.1662 66.9436 47.7215 76.4429C47.9172 76.6373 48.0828 76.8641 48.261 77.076C45.9675 78.2176 43.541 79.0501 41.1873 80.0522C39.4861 80.775 37.7471 81.4156 36.0258 82.0911C35.6368 81.9964 35.4009 81.6948 35.1375 81.433C28.0964 74.4413 21.0579 67.4496 14.0219 60.4554C13.7584 60.1936 13.4548 59.9618 13.3569 59.5755C14.7044 56.2728 16.0444 52.9701 17.3994 49.6724C17.713 48.9097 17.9339 48.1046 18.4081 47.4141L18.4131 47.4116Z" fill="#FBB324"/>
<path d="M13.3593 59.573C13.7207 59.9145 14.0921 60.246 14.4459 60.595C21.4317 67.5294 28.4175 74.4662 35.4009 81.4031C35.6217 81.6225 35.8199 81.8593 36.0282 82.0886C32.6607 83.4595 29.2958 84.833 25.9283 86.2039C25.5143 86.1515 25.296 85.8225 25.0375 85.5658C19.9763 80.5432 14.9176 75.5181 9.86392 70.4906C9.60546 70.2338 9.27173 70.017 9.22656 69.6032C10.6042 66.2606 11.9843 62.9156 13.3619 59.573H13.3593Z" fill="#EC3F03"/>
<path d="M9.2243 69.6057C9.39242 69.7428 9.57309 69.8674 9.72365 70.0195C14.9906 75.2465 20.2526 80.4759 25.5145 85.7079C25.6676 85.8599 25.7906 86.0394 25.9261 86.2089C23.3164 87.4826 20.5713 88.4373 17.9014 89.5739C16.5112 90.1646 15.0885 90.6806 13.6808 91.229C10.5091 88.0709 7.33482 84.9152 4.16309 81.7571C5.78408 77.6792 7.4126 73.6063 9.22179 69.6082L9.2243 69.6057Z" fill="#FBB324"/>
<path d="M80.3018 48.6604C72.7313 46.4271 65.4644 47.813 58.313 50.4676C55.7961 51.4023 53.3772 52.5614 51.021 53.8401C50.5191 54.1118 50.0047 54.361 49.6334 53.7553C49.2996 53.2119 49.7187 52.8505 50.1252 52.514C55.7083 47.8852 61.7557 44.0442 68.734 41.8183C72.2445 40.6991 75.8352 40.1183 79.5389 40.5047C79.9781 40.5495 80.3143 40.552 80.3093 41.1528C80.2842 43.6354 80.2993 46.1205 80.2993 48.6604H80.3018Z" fill="#EC3F03"/>
<path d="M50.5894 15.1973C51.6835 15.1973 52.78 15.2422 53.8716 15.1824C54.6369 15.14 54.7875 15.4541 54.8452 16.1445C55.3044 21.7354 53.7913 26.9026 51.4476 31.8853C49.1717 36.7234 46.1932 41.1178 42.7228 45.1907C42.4619 45.4973 42.2235 45.8488 41.7292 45.7591C41.1119 45.6469 40.9538 45.111 41.3729 44.3507C42.6576 42.0052 43.8119 39.5974 44.7779 37.1048C46.7578 31.9875 47.9697 26.7281 47.6912 21.1995C47.5984 19.3625 47.3324 17.5553 46.7377 15.808C46.5646 15.2946 46.5972 15.0976 47.2145 15.1226C48.3386 15.1649 49.4653 15.135 50.5919 15.135C50.5919 15.1575 50.5919 15.1774 50.5919 15.1998L50.5894 15.1973Z" fill="#FBB324"/>
<path d="M46.2511 49.6176C45.8195 49.4929 45.5209 49.2537 45.7216 48.7502C45.8119 48.5258 45.9926 48.3364 46.1532 48.1445C52.6648 40.3102 59.1864 32.481 65.6779 24.6293C66.1873 24.0136 66.4457 23.9987 66.9928 24.5795C68.2725 25.9429 69.6175 27.2465 70.9675 28.5427C71.3815 28.9415 71.4869 29.1534 70.9574 29.5871C62.9829 36.0977 55.031 42.6333 47.0716 49.1639C46.8332 49.3608 46.6049 49.5852 46.2511 49.6176Z" fill="#07B6ED"/>
<path d="M90.3844 39.4927C90.831 43.0596 92.6753 45.4699 96.0026 46.8683C92.4294 47.3419 90.0055 49.2113 88.6354 52.5265C88.1712 48.9521 86.3043 46.5218 82.9443 45.1509C86.5853 44.7097 89.0118 42.8053 90.3844 39.4927Z" fill="#EC3F03"/>
<path d="M48.8081 0C50.2309 3.3002 52.6649 5.12228 56.2281 5.55849C54.735 6.26888 53.3574 7.09143 52.3362 8.38758C51.3049 9.69869 50.8331 11.2217 50.5395 12.954C49.1745 9.67127 46.7831 7.75446 43.1572 7.31078C46.4569 5.92988 48.3213 3.51705 48.8081 0Z" fill="#FBB324"/>
<path d="M70.4154 25.0107C72.2271 21.9124 72.1543 18.8639 70.3477 15.7706C73.4265 17.5952 76.4678 17.6351 79.627 15.8703C77.8855 18.9661 77.883 21.9897 79.8829 25.2051C78.2343 24.3576 76.7865 23.7245 75.1379 23.7195C73.4592 23.7145 71.9586 24.2579 70.4154 25.0107Z" fill="#07B6ED"/>
<path d="M75.251 63.0128C75.2159 63.1275 75.2058 63.1923 75.1782 63.2471C74.5358 64.5981 74.7717 65.6749 76.0289 66.6022C76.6763 67.0782 76.5132 67.497 75.7303 67.7637C75.6123 67.8036 75.4944 67.8659 75.3739 67.8734C74.172 67.9606 73.6225 68.6212 73.4067 69.7877C73.1708 71.0539 72.7166 71.1736 71.876 70.1716C71.1157 69.2667 70.3479 69.1122 69.2638 69.4836C68.0393 69.9049 67.7031 69.5758 68.1171 68.3794C68.501 67.2702 68.3204 66.475 67.3919 65.7023C66.3983 64.8748 66.5287 64.4635 67.8436 64.1993C68.9577 63.975 69.5424 63.469 69.7406 62.3049C69.9639 60.9814 70.4834 60.8293 71.3014 61.8862C72.1997 63.0452 73.1683 62.8234 74.2623 62.4545C74.842 62.2576 75.2535 62.3323 75.2535 63.0153L75.251 63.0128Z" fill="#FBB324"/>
<path d="M34.9241 23.1612C34.9141 23.2235 34.9166 23.2908 34.889 23.3431C34.1764 24.7066 34.6406 25.7111 35.7723 26.6234C36.3469 27.087 36.1838 27.5307 35.4862 27.775C35.3683 27.8173 35.2453 27.8497 35.1224 27.8597C33.8828 27.9569 33.3182 28.6349 33.1074 29.8488C32.8941 31.0702 32.4274 31.1923 31.642 30.2277C30.844 29.2481 30.0185 29.121 28.8793 29.5123C27.6823 29.9236 27.3561 29.6145 27.8204 28.438C28.3072 27.2066 27.9358 26.4265 27.0099 25.6363C26.1542 24.906 26.2721 24.4648 27.3863 24.2729C28.666 24.0535 29.3134 23.4354 29.5066 22.1367C29.6672 21.0499 30.1992 20.9079 30.8942 21.7653C31.7223 22.7873 32.5955 23.0216 33.8175 22.5305C34.6607 22.1915 34.9919 22.4558 34.9291 23.1587L34.9241 23.1612Z" fill="#EC3F03"/>
</g>
<defs>
<clipPath id="clip0_269_1155">
<rect width="96" height="95.3093" fill="white"/>
</clipPath>
</defs>
</svg>
