<svg width="375" height="175" viewBox="0 0 375 175" fill="none" xmlns="http://www.w3.org/2000/svg">
<g clip-path="url(#clip0_541_1507)">
<g clip-path="url(#clip1_541_1507)">
<path d="M0.215127 0.723769C0.215127 1.12453 -0.103957 1.44754 -0.499858 1.44754C-0.89576 1.44754 -1.21484 1.12453 -1.21484 0.723769C-1.21484 0.323005 -0.89576 0 -0.499858 0C-0.103957 0 0.215127 0.323005 0.215127 0.723769Z" fill="black"/>
<path d="M7.8079 0.723769C7.8079 1.12453 7.48882 1.44754 7.09292 1.44754C6.69701 1.44754 6.37793 1.12453 6.37793 0.723769C6.37793 0.323005 6.69701 0 7.09292 0C7.48882 0 7.8079 0.323005 7.8079 0.723769Z" fill="white"/>
<path d="M14.6862 1.44754C15.0811 1.44754 15.4012 1.1235 15.4012 0.723769C15.4012 0.324043 15.0811 0 14.6862 0C14.2913 0 13.9712 0.324043 13.9712 0.723769C13.9712 1.1235 14.2913 1.44754 14.6862 1.44754Z" fill="black"/>
<path d="M22.9998 0.723769C22.9998 1.12453 22.6807 1.44754 22.2848 1.44754C21.8889 1.44754 21.5698 1.12453 21.5698 0.723769C21.5698 0.323005 21.8889 0 22.2848 0C22.6807 0 22.9998 0.323005 22.9998 0.723769Z" fill="black"/>
<path d="M0.215127 9.22963C0.215127 9.63039 -0.103957 9.9534 -0.499858 9.9534C-0.89576 9.9534 -1.21484 9.63039 -1.21484 9.22963C-1.21484 8.82886 -0.89576 8.50586 -0.499858 8.50586C-0.103957 8.50586 0.215127 8.82886 0.215127 9.22963Z" fill="black"/>
<path d="M7.8079 9.22963C7.8079 9.63039 7.48882 9.9534 7.09292 9.9534C6.69701 9.9534 6.37793 9.63039 6.37793 9.22963C6.37793 8.82886 6.69701 8.50586 7.09292 8.50586C7.48882 8.50586 7.8079 8.82886 7.8079 9.22963Z" fill="black"/>
<path d="M14.6862 9.9534C15.0811 9.9534 15.4012 9.62936 15.4012 9.22963C15.4012 8.8299 15.0811 8.50586 14.6862 8.50586C14.2913 8.50586 13.9712 8.8299 13.9712 9.22963C13.9712 9.62936 14.2913 9.9534 14.6862 9.9534Z" fill="black"/>
<path d="M22.9998 9.22963C22.9998 9.63039 22.6807 9.9534 22.2848 9.9534C21.8889 9.9534 21.5698 9.63039 21.5698 9.22963C21.5698 8.82886 21.8889 8.50586 22.2848 8.50586C22.6807 8.50586 22.9998 8.82886 22.9998 9.22963Z" fill="black"/>
<path d="M0.215127 17.7413C0.215127 18.1421 -0.103957 18.4651 -0.499858 18.4651C-0.89576 18.4651 -1.21484 18.1421 -1.21484 17.7413C-1.21484 17.3406 -0.89576 17.0176 -0.499858 17.0176C-0.103957 17.0176 0.215127 17.3406 0.215127 17.7413Z" fill="black"/>
<path d="M7.8079 17.7413C7.8079 18.1421 7.48882 18.4651 7.09292 18.4651C6.69701 18.4651 6.37793 18.1421 6.37793 17.7413C6.37793 17.3406 6.69701 17.0176 7.09292 17.0176C7.48882 17.0176 7.8079 17.3406 7.8079 17.7413Z" fill="black"/>
<path d="M15.407 17.7413C15.407 18.1421 15.0879 18.4651 14.692 18.4651C14.2961 18.4651 13.9771 18.1421 13.9771 17.7413C13.9771 17.3406 14.2961 17.0176 14.692 17.0176C15.0879 17.0176 15.407 17.3406 15.407 17.7413Z" fill="black"/>
<path d="M22.9998 17.7413C22.9998 18.1421 22.6807 18.4651 22.2848 18.4651C21.8889 18.4651 21.5698 18.1421 21.5698 17.7413C21.5698 17.3406 21.8889 17.0176 22.2848 17.0176C22.6807 17.0176 22.9998 17.3406 22.9998 17.7413Z" fill="black"/>
<path d="M0.215127 26.2472C0.215127 26.648 -0.103957 26.971 -0.499858 26.971C-0.89576 26.971 -1.21484 26.648 -1.21484 26.2472C-1.21484 25.8464 -0.89576 25.5234 -0.499858 25.5234C-0.103957 25.5234 0.215127 25.8464 0.215127 26.2472Z" fill="black"/>
<path d="M7.8079 26.2472C7.8079 26.648 7.48882 26.971 7.09292 26.971C6.69701 26.971 6.37793 26.648 6.37793 26.2472C6.37793 25.8464 6.69701 25.5234 7.09292 25.5234C7.48882 25.5234 7.8079 25.8464 7.8079 26.2472Z" fill="white"/>
<path d="M14.6862 26.971C15.0811 26.971 15.4012 26.6469 15.4012 26.2472C15.4012 25.8475 15.0811 25.5234 14.6862 25.5234C14.2913 25.5234 13.9712 25.8475 13.9712 26.2472C13.9712 26.6469 14.2913 26.971 14.6862 26.971Z" fill="black"/>
<path d="M22.9998 26.2472C22.9998 26.648 22.6807 26.971 22.2848 26.971C21.8889 26.971 21.5698 26.648 21.5698 26.2472C21.5698 25.8464 21.8889 25.5234 22.2848 25.5234C22.6807 25.5234 22.9998 25.8464 22.9998 26.2472Z" fill="black"/>
<path d="M0.215127 34.7528C0.215127 35.1536 -0.103957 35.4766 -0.499858 35.4766C-0.89576 35.4766 -1.21484 35.1536 -1.21484 34.7528C-1.21484 34.3521 -0.89576 34.0291 -0.499858 34.0291C-0.103957 34.0291 0.215127 34.3521 0.215127 34.7528Z" fill="black"/>
<path d="M7.8079 34.7528C7.8079 35.1536 7.48882 35.4766 7.09292 35.4766C6.69701 35.4766 6.37793 35.1536 6.37793 34.7528C6.37793 34.3521 6.69701 34.0291 7.09292 34.0291C7.48882 34.0291 7.8079 34.3521 7.8079 34.7528Z" fill="black"/>
<path d="M15.407 34.7528C15.407 35.1536 15.0879 35.4766 14.692 35.4766C14.2961 35.4766 13.9771 35.1536 13.9771 34.7528C13.9771 34.3521 14.2961 34.0291 14.692 34.0291C15.0879 34.0291 15.407 34.3521 15.407 34.7528Z" fill="black"/>
<path d="M22.9998 34.7528C22.9998 35.1536 22.6807 35.4766 22.2848 35.4766C21.8889 35.4766 21.5698 35.1536 21.5698 34.7528C21.5698 34.3521 21.8889 34.0291 22.2848 34.0291C22.6807 34.0291 22.9998 34.3521 22.9998 34.7528Z" fill="black"/>
<path d="M0.215127 43.2587C0.215127 43.6594 -0.103957 43.9824 -0.499858 43.9824C-0.89576 43.9824 -1.21484 43.6594 -1.21484 43.2587C-1.21484 42.8579 -0.89576 42.5349 -0.499858 42.5349C-0.103957 42.5349 0.215127 42.8579 0.215127 43.2587Z" fill="white"/>
<path d="M7.8079 43.2587C7.8079 43.6594 7.48882 43.9824 7.09292 43.9824C6.69701 43.9824 6.37793 43.6594 6.37793 43.2587C6.37793 42.8579 6.69701 42.5349 7.09292 42.5349C7.48882 42.5349 7.8079 42.8579 7.8079 43.2587Z" fill="black"/>
<path d="M14.6862 43.9824C15.0811 43.9824 15.4012 43.6584 15.4012 43.2587C15.4012 42.859 15.0811 42.5349 14.6862 42.5349C14.2913 42.5349 13.9712 42.859 13.9712 43.2587C13.9712 43.6584 14.2913 43.9824 14.6862 43.9824Z" fill="black"/>
<path d="M22.9998 43.2587C22.9998 43.6594 22.6807 43.9824 22.2848 43.9824C21.8889 43.9824 21.5698 43.6594 21.5698 43.2587C21.5698 42.8579 21.8889 42.5349 22.2848 42.5349C22.6807 42.5349 22.9998 42.8579 22.9998 43.2587Z" fill="black"/>
<path d="M0.215127 51.7645C0.215127 52.1653 -0.103957 52.4883 -0.499858 52.4883C-0.89576 52.4883 -1.21484 52.1653 -1.21484 51.7645C-1.21484 51.3638 -0.89576 51.0408 -0.499858 51.0408C-0.103957 51.0408 0.215127 51.3638 0.215127 51.7645Z" fill="black"/>
<path d="M7.8079 51.7645C7.8079 52.1653 7.48882 52.4883 7.09292 52.4883C6.69701 52.4883 6.37793 52.1653 6.37793 51.7645C6.37793 51.3638 6.69701 51.0408 7.09292 51.0408C7.48882 51.0408 7.8079 51.3638 7.8079 51.7645Z" fill="black"/>
<path d="M14.6862 52.4883C15.0811 52.4883 15.4012 52.1643 15.4012 51.7645C15.4012 51.3648 15.0811 51.0408 14.6862 51.0408C14.2913 51.0408 13.9712 51.3648 13.9712 51.7645C13.9712 52.1643 14.2913 52.4883 14.6862 52.4883Z" fill="white"/>
<path d="M22.9998 51.7645C22.9998 52.1653 22.6807 52.4883 22.2848 52.4883C21.8889 52.4883 21.5698 52.1653 21.5698 51.7645C21.5698 51.3638 21.8889 51.0408 22.2848 51.0408C22.6807 51.0408 22.9998 51.3638 22.9998 51.7645Z" fill="black"/>
<path d="M0.215127 60.2702C0.215127 60.6709 -0.103957 60.9939 -0.499858 60.9939C-0.89576 60.9939 -1.21484 60.6709 -1.21484 60.2702C-1.21484 59.8694 -0.89576 59.5464 -0.499858 59.5464C-0.103957 59.5464 0.215127 59.8694 0.215127 60.2702Z" fill="black"/>
<path d="M7.8079 60.2702C7.8079 60.6709 7.48882 60.9939 7.09292 60.9939C6.69701 60.9939 6.37793 60.6709 6.37793 60.2702C6.37793 59.8694 6.69701 59.5464 7.09292 59.5464C7.48882 59.5464 7.8079 59.8694 7.8079 60.2702Z" fill="black"/>
<path d="M15.407 60.2702C15.407 60.6709 15.0879 60.9939 14.692 60.9939C14.2961 60.9939 13.9771 60.6709 13.9771 60.2702C13.9771 59.8694 14.2961 59.5464 14.692 59.5464C15.0879 59.5464 15.407 59.8694 15.407 60.2702Z" fill="black"/>
<path d="M22.9998 60.2702C22.9998 60.6709 22.6807 60.9939 22.2848 60.9939C21.8889 60.9939 21.5698 60.6709 21.5698 60.2702C21.5698 59.8694 21.8889 59.5464 22.2848 59.5464C22.6807 59.5464 22.9998 59.8694 22.9998 60.2702Z" fill="black"/>
</g>
<g clip-path="url(#clip2_541_1507)">
<path d="M362.127 26H358.861V37H362.127V26Z" fill="#FDCB15"/>
<path d="M366 33.1268V29.8613H355V33.1268H366Z" fill="#FDCB15"/>
</g>
<g clip-path="url(#clip3_541_1507)">
<path d="M371.715 115.448C372.11 115.448 372.43 115.123 372.43 114.724C372.43 114.324 372.11 114 371.715 114C371.32 114 371 114.324 371 114.724C371 115.123 371.32 115.448 371.715 115.448Z" fill="black"/>
<path d="M371.715 123.953C372.11 123.953 372.43 123.629 372.43 123.23C372.43 122.83 372.11 122.506 371.715 122.506C371.32 122.506 371 122.83 371 123.23C371 123.629 371.32 123.953 371.715 123.953Z" fill="white"/>
<path d="M372.436 131.741C372.436 132.142 372.117 132.465 371.721 132.465C371.325 132.465 371.006 132.142 371.006 131.741C371.006 131.341 371.325 131.018 371.721 131.018C372.117 131.018 372.436 131.341 372.436 131.741Z" fill="black"/>
<path d="M371.715 140.971C372.11 140.971 372.43 140.647 372.43 140.247C372.43 139.847 372.11 139.523 371.715 139.523C371.32 139.523 371 139.847 371 140.247C371 140.647 371.32 140.971 371.715 140.971Z" fill="black"/>
<path d="M372.436 148.753C372.436 149.154 372.117 149.477 371.721 149.477C371.325 149.477 371.006 149.154 371.006 148.753C371.006 148.352 371.325 148.029 371.721 148.029C372.117 148.029 372.436 148.352 372.436 148.753Z" fill="black"/>
<path d="M371.715 157.982C372.11 157.982 372.43 157.658 372.43 157.259C372.43 156.859 372.11 156.535 371.715 156.535C371.32 156.535 371 156.859 371 157.259C371 157.658 371.32 157.982 371.715 157.982Z" fill="black"/>
<path d="M371.715 166.488C372.11 166.488 372.43 166.164 372.43 165.765C372.43 165.365 372.11 165.041 371.715 165.041C371.32 165.041 371 165.365 371 165.765C371 166.164 371.32 166.488 371.715 166.488Z" fill="black"/>
<path d="M372.436 174.27C372.436 174.671 372.117 174.994 371.721 174.994C371.325 174.994 371.006 174.671 371.006 174.27C371.006 173.869 371.325 173.546 371.721 173.546C372.117 173.546 372.436 173.869 372.436 174.27Z" fill="black"/>
</g>
</g>
<defs>
<clipPath id="clip0_541_1507">
<rect width="375" height="175" fill="white"/>
</clipPath>
<clipPath id="clip1_541_1507">
<rect width="47" height="61" fill="white" transform="translate(-24)"/>
</clipPath>
<clipPath id="clip2_541_1507">
<rect width="11" height="11" fill="white" transform="translate(355 26)"/>
</clipPath>
<clipPath id="clip3_541_1507">
<rect width="47" height="61" fill="white" transform="translate(371 114)"/>
</clipPath>
</defs>
</svg>
