<svg width="375" height="257" viewBox="0 0 375 257" fill="none" xmlns="http://www.w3.org/2000/svg">
<g clip-path="url(#clip0_541_860)">
<g clip-path="url(#clip1_541_860)">
<path d="M9.99978 18.9729C9.99978 19.5117 9.57207 19.9459 9.04139 19.9459C8.51072 19.9459 8.08301 19.5117 8.08301 18.9729C8.08301 18.4342 8.51072 18 9.04139 18C9.57207 18 9.99978 18.4342 9.99978 18.9729Z" fill="black"/>
<path d="M9.99978 30.407C9.99978 30.9458 9.57207 31.38 9.04139 31.38C8.51072 31.38 8.08301 30.9458 8.08301 30.407C8.08301 29.8683 8.51072 29.4341 9.04139 29.4341C9.57207 29.4341 9.99978 29.8683 9.99978 30.407Z" fill="black"/>
<path d="M9.99978 41.8489C9.99978 42.3876 9.57207 42.8218 9.04139 42.8218C8.51072 42.8218 8.08301 42.3876 8.08301 41.8489C8.08301 41.3102 8.51072 40.876 9.04139 40.876C9.57207 40.876 9.99978 41.3102 9.99978 41.8489Z" fill="black"/>
<path d="M9.99978 53.283C9.99978 53.8217 9.57207 54.2559 9.04139 54.2559C8.51072 54.2559 8.08301 53.8217 8.08301 53.283C8.08301 52.7443 8.51072 52.3101 9.04139 52.3101C9.57207 52.3101 9.99978 52.7443 9.99978 53.283Z" fill="black"/>
<path d="M9.99978 64.7171C9.99978 65.2558 9.57207 65.69 9.04139 65.69C8.51072 65.69 8.08301 65.2558 8.08301 64.7171C8.08301 64.1783 8.51072 63.7441 9.04139 63.7441C9.57207 63.7441 9.99978 64.1783 9.99978 64.7171Z" fill="black"/>
<path d="M9.99978 76.1509C9.99978 76.6896 9.57207 77.1238 9.04139 77.1238C8.51072 77.1238 8.08301 76.6896 8.08301 76.1509C8.08301 75.6122 8.51072 75.178 9.04139 75.178C9.57207 75.178 9.99978 75.6122 9.99978 76.1509Z" fill="black"/>
<path d="M9.99978 87.585C9.99978 88.1237 9.57207 88.5579 9.04139 88.5579C8.51072 88.5579 8.08301 88.1237 8.08301 87.585C8.08301 87.0463 8.51072 86.6121 9.04139 86.6121C9.57207 86.6121 9.99978 87.0463 9.99978 87.585Z" fill="black"/>
<path d="M9.99978 99.0191C9.99978 99.5578 9.57207 99.992 9.04139 99.992C8.51072 99.992 8.08301 99.5578 8.08301 99.0191C8.08301 98.4803 8.51072 98.0461 9.04139 98.0461C9.57207 98.0461 9.99978 98.4803 9.99978 99.0191Z" fill="black"/>
</g>
<g clip-path="url(#clip2_541_860)">
<path d="M362.127 29H358.861V40H362.127V29Z" fill="#FDCB15"/>
<path d="M366 36.1268V32.8613H355V36.1268H366Z" fill="#FDCB15"/>
</g>
<path d="M322.432 240.073H30.405C21.9873 236.219 19.0921 222.215 20.642 213.088C22.1919 203.961 27.6188 196.03 32.9866 188.485C38.3545 180.945 43.936 173.168 45.8677 164.114C49.1402 148.792 41.3998 133.448 39.7408 117.871C38.0318 101.822 43.1406 85.1598 53.5581 72.8333C63.9756 60.5068 79.5519 52.6846 95.66 51.6937C113.586 50.5938 131.108 57.5343 149.061 57.8842C164.915 58.1888 180.346 53.3618 195.736 49.5393C211.126 45.7123 227.42 42.8761 242.701 47.1031C257.982 51.3346 271.831 64.502 271.999 80.3601C272.108 90.8595 266.49 101.777 270.608 111.435C274.749 121.144 286.421 124.503 295.988 128.957C315.401 137.988 330.318 156.155 335.404 176.95C340.49 197.748 335.486 223.101 322.437 240.073H322.432Z" fill="#FDF7DE"/>
<path d="M278.043 106.708C280.502 112.908 285.793 117.549 291.361 121.221C296.324 124.494 301.987 127.28 307.919 126.944C314.868 126.553 321.141 121.667 324.095 115.362C327.049 109.058 326.94 101.591 324.736 94.9865C322.532 88.3824 318.373 82.5691 313.541 77.5603C308.887 72.7288 303.215 68.3927 296.574 67.4382C288.934 66.3428 281.434 70.7107 280.052 78.3603C278.357 87.7779 274.266 97.1864 278.043 106.704V106.708Z" fill="#FBEED1"/>
<mask id="mask0_541_860" style="mask-type:luminance" maskUnits="userSpaceOnUse" x="106" y="180" width="153" height="61">
<path d="M106.009 240.091L258.131 240.091V180.108L106.009 180.108V240.091Z" fill="white"/>
</mask>
<g mask="url(#mask0_541_860)">
<path d="M235.019 244.881C231.014 247.154 226.915 248.795 223.074 249.867C222.597 249.999 222.12 250.131 221.651 250.258C221.179 250.372 220.706 250.472 220.242 250.572C219.315 250.763 218.415 250.949 217.534 251.081C215.761 251.322 214.116 251.499 212.575 251.495C206.421 251.567 202.494 249.854 201.994 247.331C201.475 244.745 204.28 241.841 208.684 238.723C209.798 237.968 210.988 237.123 212.288 236.327C212.938 235.923 213.597 235.486 214.284 235.077C214.629 234.873 214.979 234.664 215.329 234.455C215.679 234.241 216.034 234.023 216.393 233.8C219.283 232.087 222.442 230.305 225.756 228.423C229.074 226.551 231.946 224.951 234.528 223.714C237.078 222.442 239.341 221.542 241.323 220.978C242.309 220.692 243.246 220.515 244.109 220.424C244.964 220.319 245.759 220.315 246.491 220.41C247.954 220.596 249.168 221.169 250.063 222.115C250.963 223.055 251.463 224.283 251.477 225.805C251.486 226.564 251.368 227.401 251.122 228.31C250.863 229.205 250.463 230.16 249.918 231.187C248.827 233.232 247.1 235.482 244.664 237.85C242.2 240.177 239.019 242.613 235.01 244.877L235.019 244.881Z" fill="#EBA25D"/>
<path d="M249.622 222.533C243.768 227.264 235.769 232.928 227.092 237.395C222.765 239.645 218.306 241.627 214.016 243.281C209.725 244.936 205.607 246.259 201.994 247.331C205.73 246.858 210.016 245.972 214.466 244.586C218.92 243.204 223.533 241.322 227.937 239.032C236.782 234.482 244.614 228.16 249.618 222.537L249.622 222.533Z" fill="#F5D896"/>
<path d="M211.334 232.078C213.18 232.65 215.475 232.955 217.984 232.755C219.216 232.641 220.507 232.405 221.825 232.055C223.147 231.709 224.411 231.178 225.702 230.569C227.002 229.969 228.193 229.182 229.365 228.341C230.547 227.51 231.601 226.546 232.57 225.537C233.056 225.033 233.529 224.523 233.956 223.996C234.369 223.46 234.765 222.919 235.128 222.383C235.865 221.305 236.487 220.228 236.928 219.16C236.506 219.528 236.074 219.906 235.628 220.292C235.169 220.665 234.701 221.042 234.224 221.428C233.26 222.187 232.315 222.987 231.242 223.705C230.188 224.437 229.124 225.169 228.02 225.846C226.888 226.51 225.752 227.141 224.615 227.728C222.275 228.855 219.957 229.809 217.67 230.487C215.439 231.223 213.221 231.65 211.334 232.082V232.078Z" fill="#F8CE13"/>
<path d="M207.103 235.714C208.584 236.559 210.521 237.277 212.661 237.518C213.738 237.65 214.879 237.686 216.066 237.618C217.247 237.55 218.415 237.327 219.62 237.023C220.215 236.868 220.815 236.682 221.406 236.477C221.988 236.259 222.552 236.009 223.115 235.741C224.229 235.191 225.356 234.6 226.324 233.868C227.306 233.15 228.219 232.373 229.038 231.573C229.824 230.75 230.506 229.896 231.078 229.064C230.233 229.546 229.347 230.055 228.419 230.582C227.492 231.091 226.492 231.564 225.492 232.037C224.992 232.268 224.483 232.5 223.974 232.718C223.461 232.936 222.92 233.132 222.392 233.323C221.329 233.709 220.261 234.059 219.197 234.368C218.102 234.645 217.016 234.882 215.952 235.082C215.42 235.182 214.898 235.268 214.379 235.345C213.848 235.409 213.325 235.464 212.807 235.514C211.775 235.609 210.784 235.668 209.839 235.704C208.893 235.741 207.957 235.714 207.103 235.709V235.714Z" fill="#F8CE13"/>
<path d="M203.162 239.032C204.121 239.809 205.384 240.518 206.875 240.995C207.62 241.236 208.42 241.422 209.257 241.536C210.075 241.631 210.929 241.663 211.797 241.618C212.666 241.572 213.547 241.454 214.411 241.268C215.252 241.059 216.084 240.781 216.874 240.45C218.479 239.813 219.838 238.877 220.892 237.918C218.27 238.718 215.038 239.491 211.866 239.668C210.261 239.75 208.716 239.727 207.243 239.595C205.757 239.45 204.38 239.236 203.166 239.027L203.162 239.032Z" fill="#F8CE13"/>
<path d="M215.847 227.505C217.688 227.673 219.738 227.428 221.979 226.823C223.097 226.519 224.183 226.073 225.306 225.555C225.865 225.291 226.429 225.014 226.979 224.701C227.515 224.382 228.047 224.037 228.574 223.678C229.624 222.951 230.674 222.155 231.583 221.255C232.501 220.36 233.424 219.442 234.165 218.437C234.919 217.442 235.61 216.428 236.192 215.415C236.742 214.383 237.201 213.365 237.569 212.397C234.605 215.156 230.928 218.424 227.051 221.105C223.202 223.837 219.061 225.86 215.838 227.5L215.847 227.505Z" fill="#F8CE13"/>
<path d="M220.647 221.924C223.71 221.546 227.51 219.669 230.555 216.638C233.633 213.642 235.655 209.538 236.269 206.234C234.082 208.783 231.605 211.947 228.774 214.706L227.742 215.747C227.392 216.088 227.024 216.41 226.669 216.738C225.96 217.378 225.26 218.015 224.574 218.633C223.869 219.224 223.183 219.801 222.524 220.351C222.201 220.628 221.888 220.901 221.579 221.169C221.261 221.428 220.951 221.683 220.652 221.928L220.647 221.924Z" fill="#F8CE13"/>
<path d="M224.052 215.692C224.711 215.483 225.415 215.201 226.111 214.824C226.792 214.442 227.488 213.983 228.174 213.456C229.583 212.415 230.82 211.02 231.938 209.47C232.479 208.688 232.928 207.852 233.347 207.011C233.551 206.588 233.747 206.161 233.924 205.734C234.087 205.302 234.224 204.866 234.356 204.434C234.61 203.57 234.806 202.716 234.937 201.902C235.042 201.08 235.065 200.284 235.037 199.557C234.669 200.193 234.301 200.866 233.924 201.561C233.519 202.248 233.101 202.957 232.678 203.684C231.874 205.147 230.874 206.597 229.942 208.043C227.956 210.893 225.811 213.529 224.061 215.697L224.052 215.692Z" fill="#F8CE13"/>
<path d="M211.28 232.018C210.675 230.127 210.275 227.919 210.08 225.61C209.961 224.437 209.907 223.246 209.916 222.073C209.93 220.905 209.93 219.687 210.039 218.542C210.161 217.406 210.266 216.247 210.466 215.169C210.684 214.101 210.889 213.042 211.17 212.065C211.311 211.574 211.48 211.11 211.639 210.656C211.789 210.192 211.957 209.751 212.134 209.329C212.502 208.488 212.92 207.729 213.32 207.033C213.343 207.456 213.37 207.897 213.379 208.342C213.379 208.788 213.37 209.242 213.366 209.706C213.343 210.633 213.366 211.647 213.289 212.647C213.239 213.669 213.184 214.724 213.129 215.797C213.043 216.86 212.961 217.955 212.889 219.078C212.689 221.273 212.52 223.578 212.234 225.755C212.007 227.982 211.639 230.059 211.275 232.018H211.28Z" fill="#F8CE13"/>
<path d="M207.28 235.922C206.666 234.309 206.257 232.404 206.007 230.318C205.889 229.286 205.825 228.227 205.825 227.182C205.825 226.137 205.83 225.046 205.93 224.023C205.975 223.51 206.039 223 206.116 222.51C206.18 222.005 206.252 221.501 206.348 221.019C206.521 220.037 206.798 219.16 207.048 218.274C207.311 217.401 207.634 216.605 208.002 215.887C208.339 215.146 208.716 214.483 209.134 213.91C209.107 214.665 209.075 215.456 209.043 216.283C208.998 217.115 208.911 217.96 208.848 218.86C208.816 219.31 208.784 219.769 208.752 220.232C208.711 220.692 208.67 221.155 208.625 221.623C208.539 222.564 208.466 223.532 208.398 224.523C208.302 225.487 208.221 226.468 208.143 227.459C208.107 227.959 208.071 228.455 208.034 228.95C207.989 229.436 207.939 229.918 207.893 230.4C207.802 231.373 207.711 232.332 207.625 233.259C207.534 234.191 207.398 235.063 207.275 235.918L207.28 235.922Z" fill="#F8CE13"/>
<path d="M203.157 239.032C202.693 237.873 202.352 236.464 202.193 234.964C202.112 234.214 202.08 233.446 202.093 232.678C202.093 231.887 202.13 231.1 202.216 230.332C202.302 229.564 202.439 228.823 202.616 228.119C202.771 227.387 202.966 226.696 203.207 226.06C203.698 224.805 204.266 223.683 204.92 222.851C204.72 225.092 204.298 227.828 203.998 230.714C203.821 232.132 203.711 233.618 203.58 235.032C203.43 236.445 203.289 237.809 203.157 239.041V239.032Z" fill="#F8CE13"/>
<path d="M215.429 227.155C215.02 225.428 214.67 223.342 214.575 221.246C214.525 220.196 214.461 219.083 214.484 218.01C214.488 217.469 214.516 216.933 214.543 216.397C214.556 215.851 214.584 215.306 214.625 214.774C214.706 213.706 214.87 212.679 214.997 211.647C215.134 210.62 215.384 209.674 215.588 208.729C215.797 207.793 216.079 206.92 216.388 206.106C216.661 205.279 216.984 204.516 217.347 203.834C217.847 207.015 217.797 211.038 217.488 215.219C217.188 219.406 216.47 223.673 215.425 227.15L215.429 227.155Z" fill="#F8CE13"/>
<path d="M219.506 221.133C218.815 218.165 218.665 214.269 219.147 210.656C219.629 207.029 220.606 203.616 222.06 201.257C222.292 204.029 222.174 207.556 221.683 211.092L221.52 212.433C221.456 212.879 221.374 213.315 221.301 213.756C221.142 214.642 220.983 215.524 220.829 216.378C220.629 217.224 220.429 218.051 220.215 218.855C220.106 219.26 219.997 219.655 219.892 220.037C219.761 220.414 219.633 220.783 219.511 221.137L219.506 221.133Z" fill="#F8CE13"/>
<path d="M223.561 215.415C223.393 214.742 223.279 214.029 223.188 213.269C223.083 212.501 223.024 211.701 223.011 210.892C223.015 209.283 223.052 207.547 223.374 205.906C223.506 205.075 223.652 204.247 223.87 203.456C223.974 203.061 224.097 202.675 224.224 202.293C224.338 201.907 224.456 201.529 224.588 201.161C224.852 200.425 225.161 199.729 225.502 199.089C225.815 198.439 226.151 197.83 226.524 197.293C226.542 197.948 226.551 198.639 226.538 199.361C226.492 200.075 226.438 200.82 226.374 201.588C226.283 203.134 225.983 204.715 225.774 206.347C225.211 209.552 224.556 212.842 223.552 215.415H223.561Z" fill="#F8CE13"/>
<path d="M231.933 193.125C230.719 195.593 229.665 198.843 228.547 202.075C228.056 203.716 227.469 205.32 227.065 206.897C226.583 208.443 226.224 209.947 225.96 211.288C226.847 210.247 227.692 208.933 228.506 207.484C229.242 206.002 230.01 204.407 230.515 202.72C231.665 199.389 232.078 195.839 231.933 193.121V193.125Z" fill="#F8CE13"/>
<path d="M228.11 206.534C225.261 212.211 221.038 219.296 215.852 225.651C213.257 228.823 210.457 231.818 207.675 234.505C204.889 237.195 202.062 239.486 199.603 241.504C202.394 240 205.544 238.045 208.584 235.532C211.625 233.027 214.616 230.05 217.275 226.801C222.597 220.287 226.406 212.651 228.115 206.529L228.11 206.534Z" fill="#F5D896"/>
<path d="M137.107 222.201C144.711 225.96 150.747 230.909 154.306 235.341C157.892 239.782 159.064 243.618 157.551 245.545C156.015 247.504 152.156 247.268 147.138 245.772C142.106 244.263 135.852 241.554 129.157 238.241C122.458 234.936 117.731 232.1 114.817 229.36C114.09 228.682 113.476 227.996 112.981 227.328C112.481 226.669 112.095 226.01 111.822 225.36C111.277 224.06 111.19 222.796 111.554 221.615C111.917 220.433 112.699 219.447 113.935 218.719C114.554 218.356 115.285 218.056 116.135 217.828C116.981 217.61 117.94 217.474 119.017 217.419C123.303 217.21 129.503 218.456 137.111 222.205L137.107 222.201Z" fill="#F8CE13"/>
<path d="M112.104 221.792C118.735 224.437 127.28 228.078 135.489 232.4C143.72 236.677 151.583 241.622 157.551 245.545C154.915 243.136 151.702 240.531 148.084 238.009C144.47 235.482 140.457 233.032 136.298 230.855C127.985 226.478 119.076 223.323 112.104 221.792Z" fill="#EBA25D"/>
<path d="M211.484 207.106C206.762 209.42 202.694 212.188 199.226 215.288C195.758 218.392 192.89 221.842 190.599 225.637C188.299 229.423 186.567 233.559 185.417 238.073C184.272 242.582 183.699 247.472 183.836 252.726C189.072 252.595 194.162 251.026 198.621 248.299C203.08 245.581 206.898 241.709 209.643 237.177C212.388 232.646 214.057 227.473 214.402 222.26C214.757 217.047 213.793 211.811 211.489 207.106H211.484Z" fill="#F8CE13"/>
<path d="M207.325 237.209C207.434 237.137 207.471 236.987 207.407 236.877C207.343 236.768 207.198 236.741 207.089 236.814C206.216 237.396 205.307 237.877 204.362 238.255C203.407 238.623 202.43 238.891 201.448 239.055C199.494 239.391 197.462 239.268 195.562 238.755L196.676 237.168L197.744 235.555C198.467 234.487 199.144 233.387 199.826 232.291C201.957 232.419 204.071 232.05 206.116 231.287C208.125 230.501 210.048 229.305 211.629 227.723C211.725 227.633 211.734 227.478 211.648 227.387C211.561 227.296 211.416 227.296 211.325 227.387C209.82 228.892 207.993 230.037 206.093 230.805C204.153 231.55 202.125 231.919 200.107 231.846C202.289 228.269 204.294 224.583 206.107 220.801C206.112 220.801 206.116 220.801 206.121 220.801C207.407 220.601 208.657 220.165 209.789 219.515C210.934 218.874 211.988 218.029 212.848 217.006C212.929 216.906 212.925 216.76 212.829 216.674C212.734 216.592 212.593 216.601 212.507 216.701C212.107 217.17 211.67 217.601 211.207 217.997C210.729 218.383 210.23 218.729 209.707 219.033C208.657 219.638 207.539 220.074 206.352 220.292C207.707 217.401 208.998 214.479 210.125 211.488C210.17 211.37 210.111 211.243 209.998 211.197C209.88 211.152 209.748 211.211 209.707 211.329C208.407 214.742 206.948 218.092 205.334 221.369C204.771 220.31 204.384 219.188 204.139 218.038C203.884 216.883 203.807 215.715 203.903 214.561C203.912 214.438 203.816 214.333 203.694 214.32C203.571 214.306 203.462 214.397 203.457 214.515C203.348 215.756 203.444 217.024 203.73 218.274C203.994 219.51 204.448 220.724 205.08 221.86C205.08 221.865 205.089 221.865 205.089 221.869C203.612 224.81 202.071 227.723 200.367 230.537C198.367 227.023 197.521 222.946 197.939 219.165C197.953 219.047 197.867 218.938 197.744 218.919C197.621 218.901 197.508 218.979 197.494 219.097C197.071 223.051 197.953 227.314 200.103 230.982C198.421 233.732 196.676 236.446 194.794 239.064C192.553 235.796 191.535 231.864 191.803 228.142C191.812 228.023 191.722 227.914 191.599 227.901C191.476 227.883 191.372 227.964 191.363 228.083C191.235 230.032 191.403 231.996 191.958 233.95C192.472 235.873 193.335 237.764 194.521 239.459L192.262 242.5C191.476 243.491 190.717 244.5 189.908 245.468C188.467 243.509 187.599 241.1 187.499 238.741C187.495 238.618 187.39 238.523 187.267 238.523C187.145 238.523 187.049 238.618 187.054 238.741C187.167 241.236 188.067 243.768 189.608 245.831C188.249 247.495 186.836 249.118 185.386 250.704C185.299 250.795 185.308 250.936 185.399 251.022C185.49 251.108 185.636 251.099 185.722 251.008C186.631 250.04 187.485 249.018 188.367 248.022C189.222 247.004 190.076 245.986 190.913 244.95C193.244 246.031 195.976 246.309 198.544 245.572C198.667 245.536 198.744 245.409 198.717 245.281C198.689 245.159 198.562 245.086 198.439 245.122C196.021 245.827 193.426 245.577 191.203 244.581C192.617 242.804 193.985 240.986 195.303 239.132C199.257 240.277 203.712 239.641 207.343 237.182L207.325 237.209Z" fill="#F5D896"/>
<path d="M159.588 219.988C162.737 223.328 165.31 226.905 167.274 230.364C169.251 233.823 170.619 237.168 171.401 240.127C172.978 246.063 172.3 250.29 169.982 251.408C167.605 252.558 164.092 250.563 159.974 247.045C157.92 245.277 155.674 243.132 153.297 240.736C150.925 238.336 148.425 235.682 145.798 232.9C143.18 230.11 140.934 227.683 139.121 225.451C137.28 223.26 135.871 221.26 134.857 219.456C134.348 218.56 133.957 217.688 133.671 216.865C133.371 216.056 133.185 215.283 133.107 214.547C132.953 213.079 133.235 211.765 133.948 210.674C134.662 209.584 135.744 208.816 137.221 208.452C137.962 208.27 138.798 208.188 139.739 208.22C140.666 208.266 141.689 208.438 142.811 208.725C145.052 209.311 147.634 210.465 150.497 212.279C153.329 214.124 156.438 216.633 159.579 219.983L159.588 219.988Z" fill="#EBA25D"/>
<path d="M134.466 211.024C140.416 215.647 147.788 222.115 154.206 229.473C157.429 233.141 160.433 236.991 163.087 240.75C165.746 244.509 168.046 248.177 169.987 251.408C168.596 247.908 166.678 243.972 164.242 239.995C161.81 236.014 158.869 231.991 155.592 228.26C149.056 220.76 141.093 214.615 134.471 211.024H134.466Z" fill="#F5D896"/>
<path d="M155.519 221.583C156.31 219.756 156.919 217.574 157.301 215.251C157.51 214.079 157.651 212.874 157.724 211.674C157.792 210.479 157.855 209.238 157.805 208.052C157.746 206.87 157.687 205.67 157.524 204.543C157.351 203.42 157.169 202.311 156.906 201.275C156.778 200.757 156.619 200.261 156.465 199.775C156.319 199.284 156.156 198.811 155.978 198.361C155.619 197.461 155.206 196.643 154.797 195.898C154.774 196.339 154.742 196.798 154.733 197.262C154.733 197.725 154.728 198.202 154.724 198.684C154.728 199.652 154.697 200.698 154.737 201.734C154.756 202.788 154.774 203.879 154.797 204.984C154.837 206.084 154.869 207.211 154.887 208.361C154.969 210.624 154.997 212.965 155.11 215.192C155.174 217.456 155.337 219.587 155.519 221.574V221.583Z" fill="#F8CE13"/>
<path d="M159.083 225.923C159.887 224.387 160.519 222.519 160.978 220.455C161.201 219.428 161.369 218.369 161.464 217.306C161.564 216.242 161.642 215.138 161.624 214.079C161.614 213.547 161.592 213.02 161.551 212.506C161.519 211.983 161.478 211.461 161.414 210.951C161.301 209.929 161.078 208.983 160.864 208.052C160.642 207.129 160.351 206.27 160.01 205.493C159.696 204.697 159.333 203.975 158.928 203.347C158.928 204.129 158.928 204.952 158.928 205.811C158.951 206.67 158.974 207.565 158.996 208.488C159.01 210.361 159.105 212.288 159.083 214.324C159.101 215.315 159.101 216.324 159.092 217.333C159.083 217.837 159.078 218.342 159.069 218.846C159.069 219.342 159.069 219.837 159.069 220.324C159.06 221.31 159.051 222.283 159.042 223.223C159.033 224.169 159.06 225.06 159.083 225.928V225.923Z" fill="#F8CE13"/>
<path d="M162.801 229.551C163.424 228.464 163.951 227.101 164.292 225.619C164.464 224.878 164.592 224.11 164.674 223.328C164.769 222.537 164.814 221.737 164.81 220.947C164.801 220.16 164.742 219.388 164.633 218.642C164.542 217.883 164.405 217.151 164.224 216.474C163.842 215.124 163.342 213.915 162.737 212.983C162.778 215.301 162.969 218.142 162.969 221.092C162.996 222.551 162.937 224.055 162.901 225.487C162.865 226.919 162.833 228.301 162.801 229.546V229.551Z" fill="#F8CE13"/>
<path d="M151.797 216.338C152.351 214.633 152.838 212.57 153.065 210.447C153.183 209.384 153.297 208.265 153.328 207.166C153.347 206.611 153.347 206.061 153.342 205.511C153.347 204.952 153.342 204.398 153.315 203.848C153.197 201.657 152.942 199.502 152.488 197.566C152.283 196.589 152.01 195.666 151.701 194.812C151.419 193.944 151.092 193.144 150.719 192.426C150.238 195.725 150.242 199.871 150.406 204.143C150.569 208.42 151.019 212.774 151.792 216.338H151.797Z" fill="#F8CE13"/>
<path d="M148.111 210.006C148.975 207.066 149.284 203.12 148.87 199.402C148.461 195.675 147.438 192.126 145.943 189.689C145.743 192.553 145.893 196.153 146.302 199.762C146.461 201.589 146.761 203.38 147.016 205.143C147.179 206.007 147.347 206.852 147.52 207.675C147.611 208.084 147.702 208.488 147.788 208.879C147.897 209.266 148.006 209.643 148.106 210.011L148.111 210.006Z" fill="#F8CE13"/>
<path d="M144.293 204.07C144.484 203.402 144.625 202.684 144.734 201.92C144.857 201.152 144.934 200.348 144.966 199.521C144.998 197.884 144.966 196.125 144.652 194.444C144.162 191.035 142.853 187.858 141.334 185.671C141.334 186.34 141.348 187.044 141.38 187.78C141.434 188.508 141.507 189.267 141.584 190.044C141.712 191.612 142.007 193.216 142.221 194.866C142.771 198.121 143.38 201.439 144.289 204.066L144.293 204.07Z" fill="#F8CE13"/>
<path d="M155.46 221.633C153.551 222.024 151.233 222.114 148.76 221.714C147.542 221.505 146.278 221.178 145.006 220.742C143.729 220.305 142.506 219.715 141.274 219.042C140.038 218.374 138.902 217.556 137.802 216.678C136.688 215.81 135.702 214.829 134.797 213.81C134.347 213.301 133.907 212.788 133.511 212.261C133.125 211.729 132.761 211.192 132.425 210.656C131.748 209.588 131.179 208.524 130.775 207.479C131.184 207.843 131.598 208.215 132.025 208.602C132.466 208.974 132.911 209.352 133.37 209.742C134.293 210.506 135.206 211.306 136.225 212.056C137.234 212.81 138.252 213.565 139.311 214.279C140.388 214.983 141.483 215.66 142.574 216.301C144.815 217.547 147.06 218.637 149.278 219.492C151.446 220.387 153.61 221.028 155.46 221.642V221.633Z" fill="#F8CE13"/>
<path d="M159.287 225.737C157.706 226.405 155.701 226.891 153.547 226.923C152.465 226.946 151.324 226.873 150.165 226.696C149.006 226.519 147.865 226.205 146.711 225.81C146.138 225.61 145.565 225.382 145.002 225.132C144.447 224.878 143.911 224.592 143.379 224.292C142.329 223.682 141.279 223.019 140.379 222.251C139.466 221.492 138.63 220.683 137.889 219.855C137.175 219.015 136.557 218.151 136.048 217.315C136.852 217.824 137.698 218.36 138.58 218.919C139.461 219.46 140.411 219.983 141.361 220.501C143.247 221.551 145.356 222.446 147.402 223.223C148.456 223.587 149.511 223.91 150.547 224.201C151.065 224.346 151.579 224.478 152.088 224.605C152.606 224.719 153.124 224.828 153.629 224.923C154.642 225.119 155.624 225.282 156.565 225.419C157.506 225.555 158.433 225.646 159.292 225.741L159.287 225.737Z" fill="#F8CE13"/>
<path d="M162.801 229.55C161.737 230.196 160.383 230.732 158.842 231.023C158.074 231.168 157.256 231.255 156.419 231.273C155.597 231.273 154.747 231.209 153.897 231.073C153.047 230.937 152.197 230.728 151.37 230.455C150.561 230.169 149.774 229.819 149.038 229.423C147.538 228.646 146.297 227.623 145.361 226.601C147.87 227.582 150.97 228.632 154.083 229.141C155.656 229.396 157.196 229.541 158.674 229.591C160.164 229.628 161.56 229.596 162.801 229.555V229.55Z" fill="#F8CE13"/>
<path d="M151.351 216.656C149.501 216.674 147.456 216.288 145.27 215.551C144.179 215.183 143.12 214.683 142.034 214.115C141.497 213.829 140.952 213.524 140.425 213.192C139.906 212.856 139.393 212.497 138.888 212.12C136.843 210.624 135.034 208.77 133.557 206.815C132.839 205.829 132.184 204.825 131.634 203.829C131.112 202.82 130.671 201.825 130.325 200.87C133.243 203.557 136.798 206.829 140.543 209.629C144.261 212.474 148.247 214.756 151.351 216.656Z" fill="#F8CE13"/>
<path d="M146.92 210.733C143.87 210.179 140.175 208.156 137.239 205.093C134.271 202.066 132.307 198.048 131.694 194.798C133.88 197.28 136.334 200.407 139.084 203.211C140.398 204.647 141.857 205.966 143.157 207.247C143.834 207.87 144.493 208.475 145.125 209.056C145.434 209.352 145.738 209.638 146.034 209.92C146.338 210.197 146.634 210.47 146.92 210.733Z" fill="#F8CE13"/>
<path d="M143.788 204.329C143.134 204.098 142.438 203.788 141.752 203.393C141.075 202.993 140.393 202.52 139.716 201.979C138.338 200.911 137.111 199.516 136.02 197.971C133.921 194.853 132.73 191.085 132.848 188.176C133.23 188.794 133.616 189.448 134.011 190.13C134.425 190.807 134.848 191.503 135.284 192.216C136.116 193.657 137.102 195.107 138.038 196.548C140.002 199.402 142.111 202.084 143.784 204.325L143.788 204.329Z" fill="#F8CE13"/>
<path d="M135.616 181.672C135.584 184.412 136.13 187.949 137.316 191.28C137.857 192.962 138.611 194.566 139.357 196.053C140.161 197.516 140.998 198.843 141.866 199.907C141.625 198.552 141.275 197.034 140.807 195.466C140.393 193.875 139.816 192.248 139.289 190.603C138.13 187.344 136.939 184.099 135.616 181.672Z" fill="#F8CE13"/>
<path d="M139.884 195.048C141.602 201.202 145.156 208.934 149.983 215.847C152.397 219.297 155.092 222.546 157.837 225.387C160.587 228.232 163.432 230.614 165.987 232.528C163.837 230.155 161.342 227.473 158.86 224.464C156.378 221.456 153.856 218.183 151.488 214.797C146.756 208.02 142.743 200.766 139.879 195.053L139.884 195.048Z" fill="#F5D896"/>
<path d="M166.414 186.435C163.296 193.053 161.346 199.661 160.392 206.129C159.442 212.601 159.501 218.942 160.519 225.119C161.533 231.296 163.51 237.323 166.482 243.149C169.459 248.972 173.427 254.603 178.5 259.876C183.759 254.817 187.549 248.504 189.681 241.609C191.817 234.723 192.29 227.269 191.108 220.083C189.922 212.897 187.09 205.988 182.859 200.152C178.632 194.307 173.018 189.539 166.414 186.435Z" fill="#F5D896"/>
<path d="M188.69 222.196C188.74 222.019 188.644 221.833 188.476 221.778C188.308 221.724 188.135 221.819 188.085 221.996C187.69 223.387 187.163 224.714 186.513 225.96C185.845 227.21 185.058 228.373 184.172 229.437C182.418 231.564 180.181 233.291 177.718 234.495L177.432 231.818L177.086 229.146C176.872 227.364 176.586 225.587 176.318 223.814C178.681 222.014 180.595 219.724 182.077 217.083C183.504 214.456 184.477 211.479 184.754 208.402C184.772 208.22 184.645 208.052 184.472 208.029C184.299 208.006 184.145 208.133 184.127 208.315C183.858 211.242 182.949 214.079 181.613 216.597C180.227 219.124 178.409 221.337 176.209 223.096C175.273 217.337 174.095 211.62 172.677 205.961C172.682 205.956 172.691 205.956 172.695 205.952C173.291 205.27 173.827 204.538 174.304 203.761C174.768 202.988 175.164 202.17 175.491 201.32C176.15 199.62 176.536 197.789 176.568 195.939C176.568 195.762 176.436 195.607 176.259 195.602C176.082 195.598 175.941 195.734 175.936 195.911C175.913 196.766 175.827 197.611 175.673 198.443C175.504 199.275 175.268 200.093 174.977 200.879C174.386 202.457 173.568 203.911 172.495 205.202C171.382 200.902 170.182 196.616 168.787 192.398C168.732 192.23 168.555 192.144 168.391 192.194C168.228 192.248 168.137 192.425 168.187 192.589C168.987 195.002 169.7 197.443 170.423 199.884C171.091 202.338 171.773 204.788 172.359 207.265C170.814 206.634 169.4 205.775 168.114 204.756C166.819 203.738 165.696 202.543 164.778 201.211C164.678 201.075 164.482 201.038 164.341 201.134C164.196 201.229 164.16 201.42 164.26 201.557C165.246 202.997 166.473 204.284 167.887 205.37C169.268 206.465 170.841 207.365 172.527 208.015C172.532 208.015 172.541 208.015 172.545 208.015C173.595 212.479 174.564 216.96 175.309 221.487C170.014 219.578 165.432 215.978 162.496 211.515C162.405 211.374 162.214 211.338 162.064 211.429C161.914 211.52 161.869 211.706 161.96 211.842C165.051 216.501 169.841 220.265 175.436 222.201C176.15 226.632 176.782 231.082 177.213 235.55C174.536 234.873 172.041 233.718 169.818 232.214C167.569 230.714 165.664 228.855 164.096 226.737C164.001 226.605 163.805 226.573 163.66 226.664C163.514 226.76 163.478 226.941 163.573 227.078C165.21 229.282 167.187 231.214 169.55 232.773C171.855 234.336 174.486 235.527 177.286 236.214L177.727 241.472C177.822 243.227 177.959 244.981 178.027 246.74C174.704 246.04 171.582 244.336 169.296 241.945C169.178 241.822 168.982 241.818 168.85 241.931C168.723 242.045 168.709 242.236 168.828 242.359C171.255 244.877 174.532 246.681 178.05 247.395C178.182 250.385 178.231 253.376 178.227 256.371C178.227 256.544 178.363 256.685 178.541 256.685C178.713 256.685 178.859 256.544 178.859 256.371C178.886 254.521 178.818 252.667 178.804 250.817C178.745 248.967 178.681 247.117 178.591 245.267C182.022 244.236 185.113 242.004 187.117 238.891C187.213 238.741 187.176 238.536 187.031 238.432C186.885 238.327 186.69 238.368 186.595 238.518C184.713 241.463 181.79 243.59 178.55 244.613C178.377 241.454 178.132 238.3 177.809 235.15C182.999 232.723 187.09 228.009 188.708 222.183L188.69 222.196Z" fill="#F8CE13"/>
</g>
<path d="M308.769 171.577C305.737 166.445 298.597 164.914 292.947 166.818C287.298 168.723 282.957 173.281 279.466 178.108C266.667 195.83 262.722 219.601 268.935 240.541H277.644C277.348 231.387 281.462 222.387 286.748 214.779C292.593 206.361 299.924 199.039 305.56 190.48C307.414 187.662 309.101 184.667 309.887 181.385C310.673 178.104 310.487 174.481 308.769 171.572V171.577Z" fill="#F5D896"/>
<path d="M277.43 199.752C282.58 188.526 291.479 179.617 298.656 173.109C298.842 172.94 298.856 172.654 298.688 172.468C298.52 172.281 298.233 172.268 298.047 172.436C290.806 179.004 281.825 187.999 276.607 199.375C271.48 210.556 269.871 224.392 271.812 240.541H272.73C270.789 224.519 272.367 210.806 277.434 199.757L277.43 199.752Z" fill="#F8CE13"/>
<path d="M284.638 240.223C284.552 236.232 287.543 232.473 290.724 230.06C293.906 227.646 297.615 226.001 300.778 223.565C303.942 221.128 306.628 217.529 306.451 213.542C306.264 209.406 302.801 205.834 298.769 204.888C294.738 203.943 290.388 205.343 287.174 207.952C283.961 210.561 281.775 214.256 280.311 218.128C277.771 224.842 277.307 233.218 278.866 240.223H284.643H284.638Z" fill="#EBA25D"/>
<path d="M281.03 229.814C281.071 229.587 281.126 229.368 281.171 229.146C281.171 229.096 281.18 229.05 281.203 229.005C281.353 228.287 281.521 227.587 281.707 226.9C281.166 224.869 281.166 220.465 281.166 220.274C281.166 220.096 281.307 219.955 281.485 219.955C281.657 219.955 281.803 220.096 281.803 220.274C281.803 220.31 281.803 223.433 282.103 225.596C282.912 223.105 283.994 220.851 285.357 218.869C285.357 218.869 285.357 218.865 285.362 218.86C285.616 218.492 285.875 218.124 286.148 217.774C286.293 217.587 286.443 217.406 286.589 217.228C286.58 215.397 287.407 211.415 287.443 211.242C287.48 211.07 287.648 210.961 287.816 210.997C287.989 211.033 288.098 211.201 288.062 211.37C288.052 211.406 287.407 214.501 287.252 216.456C289.989 213.465 293.42 211.447 297.066 210.72C297.238 210.683 297.402 210.797 297.438 210.97C297.475 211.142 297.361 211.306 297.188 211.342C293.179 212.142 289.434 214.565 286.643 218.16C286.584 218.237 286.53 218.319 286.471 218.396C291.239 216.892 294.561 216.842 297.775 216.797H298.075C298.075 216.797 298.075 216.797 298.079 216.797C298.252 216.797 298.393 216.933 298.397 217.11C298.397 217.287 298.261 217.428 298.084 217.433H297.784C294.434 217.487 290.966 217.537 285.839 219.278C284.084 221.855 282.789 224.892 281.985 228.341C285.13 226.123 291.17 225.132 291.443 225.087C291.616 225.06 291.779 225.178 291.807 225.351C291.834 225.523 291.716 225.687 291.543 225.714C291.475 225.723 284.525 226.864 281.78 229.305C281.739 229.514 281.689 229.723 281.648 229.937C281.094 232.959 280.88 236.323 280.998 240.222C281.003 240.4 280.867 240.545 280.689 240.55H280.68C280.512 240.55 280.371 240.413 280.362 240.245C280.244 236.3 280.457 232.896 281.026 229.828L281.03 229.814Z" fill="#F5D896"/>
<path d="M63.966 240.186C65.0478 234.16 64.1342 227.515 60.939 222.292C57.7619 217.102 52.844 213.243 47.9307 209.652C43.0174 206.061 37.9268 202.539 34.1634 197.753C30.4045 192.967 28.1228 186.585 29.7545 180.722C31.559 174.232 38.0495 169.655 44.7672 169.086C51.485 168.518 58.18 171.495 63.1116 176.091C71.1111 183.54 74.7154 194.776 75.129 205.702C75.5426 216.624 72.67 229.533 70.252 240.191H63.966V240.186Z" fill="#F5D896"/>
<path d="M64.743 205.248C64.743 205.248 64.7293 205.207 64.7202 205.189C64.5702 204.757 64.4203 204.325 64.2612 203.902C64.0885 203.448 63.9157 202.998 63.7339 202.548C64.952 197.603 66.1474 188.181 66.161 188.085C66.1929 187.835 66.0156 187.608 65.7656 187.576C65.5202 187.549 65.2884 187.722 65.2566 187.972C65.2475 188.058 64.2339 196.044 63.1294 201.121C61.1568 196.612 58.6342 192.471 55.6935 188.831C56.139 183.463 55.0345 176.881 55.0208 176.818C54.9799 176.572 54.7436 176.404 54.4981 176.445C54.2527 176.486 54.0845 176.722 54.1254 176.968C54.1345 177.031 55.0981 182.763 54.8481 187.812C53.9482 186.758 53.0119 185.744 52.0392 184.785C52.0028 184.731 51.9574 184.685 51.8983 184.649C47.3759 180.204 42.1398 176.818 36.522 174.85C36.2856 174.763 36.0266 174.891 35.9448 175.127C35.8629 175.363 35.9857 175.622 36.222 175.704C41.2217 177.459 45.9123 180.363 50.0575 184.154C44.676 183.035 37.0311 183.317 36.6765 183.331C36.4265 183.34 36.2311 183.554 36.2402 183.804C36.2493 184.054 36.4629 184.258 36.7129 184.24C36.8083 184.24 46.2259 183.89 51.3983 185.422C56.4298 190.408 60.5569 196.744 63.2976 203.93C58.7161 200.384 51.5392 198.171 46.9304 198.103C46.6759 198.116 46.4714 198.298 46.4714 198.553C46.4714 198.803 46.6668 199.012 46.9213 199.012C51.821 199.08 59.7887 201.757 63.9203 205.639C67.3519 215.506 68.5245 226.815 67.4973 240.15C67.4791 240.4 67.6655 240.618 67.9155 240.636C67.9291 240.636 67.9382 240.636 67.9518 240.636C68.1882 240.636 68.3882 240.455 68.4064 240.218C69.4472 226.71 68.2473 215.252 64.7475 205.243L64.743 205.248Z" fill="#F8CE13"/>
<path d="M60.4612 240.146C60.5339 236.723 57.9705 233.501 55.2433 231.428C52.5162 229.36 49.3346 227.946 46.6212 225.856C43.9122 223.765 41.6033 220.679 41.7578 217.261C41.9169 213.715 44.8849 210.652 48.3438 209.838C51.8027 209.029 55.5297 210.229 58.2886 212.466C61.0475 214.702 62.9201 217.874 64.1746 221.192C66.3517 226.946 66.7517 234.132 65.4109 240.141H60.4567L60.4612 240.146Z" fill="#EBA25D"/>
<path d="M63.5573 231.219C63.5209 231.023 63.4755 230.837 63.4391 230.646C63.4391 230.605 63.43 230.564 63.4118 230.523C63.2846 229.91 63.1391 229.305 62.9755 228.719C63.4391 226.978 63.4391 223.197 63.4391 223.038C63.4391 222.888 63.3164 222.765 63.1664 222.765C63.0164 222.765 62.8937 222.888 62.8937 223.038C62.8937 223.069 62.8937 225.746 62.6346 227.601C61.9392 225.465 61.012 223.533 59.8439 221.833C59.8439 221.833 59.8439 221.833 59.8393 221.829C59.6212 221.51 59.3984 221.197 59.1666 220.897C59.0439 220.738 58.9167 220.583 58.7848 220.429C58.7939 218.856 58.0803 215.443 58.0531 215.297C58.0213 215.152 57.8758 215.056 57.7304 215.088C57.5849 215.12 57.4895 215.261 57.5213 215.411C57.5258 215.443 58.0803 218.097 58.2167 219.774C55.8714 217.206 52.9261 215.479 49.799 214.856C49.6536 214.824 49.5082 214.92 49.4809 215.07C49.4536 215.215 49.5491 215.361 49.6945 215.388C53.1307 216.074 56.3441 218.151 58.7394 221.233C58.7894 221.297 58.8348 221.369 58.8848 221.438C54.7942 220.147 51.9489 220.106 49.19 220.065H48.9309C48.7809 220.065 48.6627 220.183 48.6582 220.333C48.6582 220.483 48.7764 220.606 48.9264 220.61H49.1854C52.058 220.656 55.0305 220.701 59.4303 222.192C60.9347 224.401 62.0437 227.005 62.7346 229.964C60.0348 228.064 54.8578 227.21 54.6215 227.174C54.4715 227.151 54.3351 227.251 54.3124 227.401C54.2897 227.551 54.3897 227.687 54.5397 227.71C54.5987 227.719 60.5575 228.696 62.9119 230.792C62.9482 230.973 62.9937 231.151 63.0255 231.332C63.5027 233.923 63.6845 236.809 63.5845 240.15C63.5845 240.3 63.6982 240.427 63.8482 240.432H63.8573C64.0027 240.432 64.1254 240.314 64.13 240.168C64.2345 236.787 64.0482 233.864 63.5618 231.232L63.5573 231.219Z" fill="#F5D896"/>
<path d="M118.849 141.329L122.744 138.065L122.039 130.72H118.849L117.921 138.365L118.849 141.329Z" fill="#468097"/>
<path d="M121.83 139.507L118.221 136.025L120.594 130.684L122.039 130.721L121.83 139.507Z" fill="black"/>
<path d="M122.039 130.721L117.512 124.721C116.553 123.448 115.194 122.535 113.653 122.126L104.94 119.817L99.4495 119.299L90.6274 121.38C88.2866 121.935 86.3822 123.63 85.5641 125.894L80.7144 139.329L88.8002 141.256L87.3185 160.914H114.767L113.803 141.92L115.062 135.093L118.844 141.324L118.817 139.602C118.767 136.348 119.912 133.184 122.035 130.716L122.039 130.721Z" fill="#6CA8BF"/>
<path d="M115.067 135.098L116.404 127.475L116.654 129.162C116.926 131.011 116.726 132.902 116.072 134.652L118.854 141.329L115.072 135.098H115.067Z" fill="#468097"/>
<path d="M88.8053 141.256L90.4734 141.611L92.9232 130.039L90.5325 123.917C92.2505 125.248 93.2596 127.303 93.2596 129.48V130.03C94.0777 131.68 94.3095 133.557 93.9186 135.357L92.1324 143.565C91.996 144.193 91.6824 144.765 91.2324 145.215C90.6734 145.774 90.3325 146.511 90.2689 147.301L89.2598 160.919H87.3281L88.8098 141.261L88.8053 141.256Z" fill="#468097"/>
<path d="M87.3186 160.918L87.1777 161.532C86.1551 166.005 85.6824 170.581 85.7642 175.168L86.096 193.712L83.8188 229.891H92.991L100.3 196.084L101.859 229.891H111.34L114.099 193.857L115.471 174.986C115.771 170.845 115.617 166.682 115.012 162.573L114.767 160.918H87.3186Z" fill="#454F6B"/>
<path d="M100.305 196.08L102.055 169.968L109.39 168.259L103.195 171.304L103.718 188.626L101.641 195.785L103.05 202.239L101.641 205.207L102.827 208.325L101.864 229.887L100.305 196.08Z" fill="black"/>
<path d="M104.327 160.918L104.75 164.941C104.814 165.555 104.768 166.177 104.614 166.773L103.896 169.541L105.259 168.827C105.945 168.468 106.464 167.85 106.7 167.109L107.018 166.104C107.113 165.805 107.141 165.486 107.091 165.173L106.441 160.918H104.327Z" fill="#566484"/>
<path d="M87.8322 232.387C88.3003 231.919 88.9367 231.655 89.6003 231.655H92.4728C91.9137 230.546 91.7638 229.26 92.0819 228.033L92.2455 227.41H85.3641L84.4097 233.123H86.0687C86.7322 233.123 87.3686 232.86 87.8367 232.391L87.8322 232.387Z" fill="#F0BF9C"/>
<path d="M98.0822 236.21L96.446 235.569C95.6687 235.264 94.9779 234.778 94.4324 234.146L93.1825 232.701C92.9053 232.378 92.6689 232.028 92.4826 231.655H89.61C88.9464 231.655 88.3101 231.919 87.8419 232.387C87.3738 232.855 86.7375 233.119 86.0739 233.119H84.4149L83.5649 238.2H100.528C99.9503 237.314 99.1049 236.605 98.0913 236.21H98.0822Z" fill="black"/>
<path d="M83.5558 238.2L83.2422 240.073H101.268C101.141 239.396 100.882 238.759 100.518 238.2H83.5558Z" fill="white"/>
<path d="M106.695 232.387C107.163 231.919 107.799 231.655 108.463 231.655H110.967C110.376 230.741 110.081 229.66 110.149 228.56L110.217 227.405H103.359L103.5 230.501L103.054 233.114H104.931C105.595 233.114 106.231 232.85 106.699 232.382L106.695 232.387Z" fill="#F0BF9C"/>
<path d="M116.703 236.209L115.067 235.569C114.29 235.264 113.599 234.778 113.054 234.146L111.399 232.241C111.24 232.055 111.099 231.86 110.967 231.66H108.463C107.799 231.66 107.163 231.923 106.695 232.391C106.227 232.86 105.591 233.123 104.927 233.123H103.05L102.182 238.205H119.14C118.562 237.318 117.717 236.609 116.703 236.214V236.209Z" fill="black"/>
<path d="M102.181 238.2L101.863 240.073H119.889C119.762 239.396 119.503 238.759 119.139 238.2H102.181Z" fill="white"/>
<path d="M100.691 117.358C100.032 116.671 99.582 115.808 99.2638 114.912C99.2047 114.744 99.1548 114.576 99.1048 114.408L98.6366 114.331L97.8594 121.044L99.0866 121.812C101.118 123.085 103.704 123.075 105.723 121.785L106.05 118.589C105.532 118.78 104.982 118.894 104.432 118.903C103.045 118.93 101.655 118.358 100.696 117.358H100.691Z" fill="#F0BF9C"/>
<path d="M99.1045 114.403C99.1545 114.571 99.2045 114.74 99.2636 114.908C99.5817 115.803 100.032 116.667 100.691 117.353C101.65 118.353 103.041 118.93 104.427 118.898C104.981 118.885 105.527 118.776 106.045 118.585L106.349 115.621L99.1045 114.403Z" fill="black"/>
<path d="M103.94 117.071C99.7633 117.071 96.3726 113.685 96.3726 109.504V104.599C96.3726 100.422 99.7587 97.0317 103.94 97.0317C108.117 97.0317 111.508 100.418 111.508 104.599V109.504C111.508 113.681 108.122 117.071 103.94 117.071Z" fill="#F0BF9C"/>
<path d="M106.631 94.5819C104.909 93.3957 102.736 92.8866 100.668 93.1866C98.5999 93.4866 96.6591 94.5865 95.341 96.2091C93.832 98.0681 93.1821 100.5 93.0866 102.891C92.9866 105.281 93.1457 107.754 93.5548 110.108H96.341C97.6182 109.704 98.4908 108.513 98.4908 107.172V104.045C104.163 104.045 105.131 102.468 107.172 99.9998C110.408 99.9998 111.513 103.195 111.513 106.054V109.504C111.513 109.504 113.954 102.504 113.999 100.682C114.044 98.8589 113.408 96.9909 112.108 95.7182C110.808 94.441 108.386 94.0547 106.64 94.5819H106.631Z" fill="#6A3649"/>
<path d="M97.4864 110.113C97.4864 111.658 96.2319 112.913 94.6865 112.913C93.1412 112.913 91.8867 111.658 91.8867 110.113C91.8867 108.567 93.1412 107.313 94.6865 107.313C96.2319 107.313 97.4864 108.567 97.4864 110.113Z" fill="#F0BF9C"/>
<path d="M96.3362 110.113C96.3362 111.026 95.5954 111.767 94.6818 111.767C93.7682 111.767 93.0273 111.026 93.0273 110.113C93.0273 109.199 93.7682 108.458 94.6818 108.458C95.5954 108.458 96.3362 109.199 96.3362 110.113Z" fill="#EBA588"/>
<path d="M128.644 117.071L128.321 137.079C128.285 139.338 126.262 141.043 124.031 140.702C121.935 140.379 120.531 138.375 120.944 136.293L124.858 116.658L123.944 115.09C123.399 114.149 123.067 113.099 122.972 112.017L122.74 109.34C123.553 109.308 124.258 109.899 124.367 110.708L124.399 110.94L124.762 108.831C124.917 107.936 125.212 107.067 125.644 106.267C126.244 105.154 127.521 104.581 128.753 104.877C130.307 105.249 131.23 106.845 130.78 108.376L130.385 109.731L130.253 112.453C130.171 114.117 129.612 115.726 128.644 117.08V117.071Z" fill="#F0BF9C"/>
<path d="M124.403 110.931C126.089 111.644 127.253 113.226 127.434 115.049L127.503 115.762L127.639 115.19C128.144 113.067 126.585 111.013 124.403 110.931Z" fill="#EBA588"/>
<path d="M82.3554 139.72L89.5232 141.411L87.7824 150.601L89.9186 167.696L92.5366 170.868C92.9684 171.395 93.1048 172.104 92.9002 172.754L91.3731 177.499L90.9731 177.572C89.1959 177.89 87.646 176.345 87.9505 174.568C85.8052 171.827 85.8643 168.873 85.8643 168.873L80.8101 152.492C80.3692 151.06 80.2965 149.538 80.6056 148.069L82.3554 139.72Z" fill="#F0BF9C"/>
<path d="M82.3557 139.72L89.5234 141.411L89.0326 144.006L82.2012 140.452L82.3557 139.72Z" fill="black"/>
<path d="M103.731 104.595C102.818 104.595 102.004 105.031 101.491 105.709H105.977C105.463 105.031 104.65 104.595 103.736 104.595H103.731Z" fill="#7C4756"/>
<path d="M104.359 107.454C104.359 107.799 104.077 108.081 103.732 108.081C103.386 108.081 103.104 107.799 103.104 107.454C103.104 107.108 103.386 106.827 103.732 106.827C104.077 106.827 104.359 107.108 104.359 107.454Z" fill="black"/>
<path d="M110.158 104.595C110.917 104.595 111.59 105.031 112.022 105.709H108.299C108.727 105.031 109.399 104.595 110.163 104.595H110.158Z" fill="#7C4756"/>
<path d="M109.636 107.454C109.636 107.799 109.868 108.081 110.158 108.081C110.449 108.081 110.681 107.799 110.681 107.454C110.681 107.108 110.449 106.827 110.158 106.827C109.868 106.827 109.636 107.108 109.636 107.454Z" fill="black"/>
<path d="M107.595 110.626H105.259C105.463 111.022 105.922 111.313 106.363 111.345C106.804 111.372 107.34 110.99 107.595 110.626Z" fill="#EBA588"/>
<path d="M108.741 112.299C106.923 112.663 105.05 112.767 103.205 112.608C103.718 113.635 104.85 114.394 105.995 114.358C107.141 114.322 108.291 113.358 108.741 112.299Z" fill="white"/>
<path d="M294.961 103.799C294.102 101.881 293.893 99.6542 294.52 97.6498C295.147 95.6454 296.643 93.8955 298.579 93.091C300.52 92.282 302.879 92.482 304.583 93.7137C307.11 92.8229 310.242 92.732 312.537 94.1182C314.833 95.5045 316.451 97.9453 316.837 100.6C317.155 102.786 316.669 104.999 316.387 107.195C316.105 109.39 316.046 111.74 317.123 113.672C317.832 114.94 319.01 116.008 319.237 117.444C319.419 118.585 318.969 119.912 320.191 120.453C321.414 120.989 322.5 121.635 323.327 122.712C324.277 123.953 324.746 125.575 324.482 127.116C324.218 128.657 323.196 130.071 321.768 130.702C321.868 132.075 321.3 133.479 320.278 134.398C319.269 135.307 317.673 135.729 316.387 136.107C314.901 136.543 313.083 136.088 311.837 135.22C310.415 134.225 309.415 132.561 307.751 132.066C305.865 131.502 303.938 132.648 302.002 132.993C299.593 133.425 296.984 132.516 295.37 130.68C293.752 128.843 293.184 126.139 293.92 123.807C294.461 122.098 295.656 120.398 295.147 118.68C294.843 117.658 293.966 116.853 293.775 115.799C293.502 114.294 294.697 112.976 295.406 111.622C296.57 109.404 295.984 106.095 294.961 103.809V103.799Z" fill="black"/>
<path d="M289.339 162.955L284.894 186.008C284.025 190.508 283.63 195.08 283.716 199.662C283.848 206.638 283.721 218.615 282.048 231.705H294.725C297.116 214.247 295.557 194.998 295.557 194.998L302.493 175.39L305.842 196.671C305.724 213.647 304.533 231.705 304.533 231.705H317.137C317.973 212.574 316.005 195.957 316.005 195.957C318.755 177.427 319.891 175.313 319.891 165.082C309.515 156.278 289.343 162.959 289.343 162.959L289.339 162.955Z" fill="#454F6B"/>
<path d="M319.882 166.2C319.882 165.837 319.886 165.464 319.886 165.077C309.51 156.274 289.338 162.955 289.338 162.955L288.752 165.996C298.592 170.018 309.987 170.068 319.882 166.196V166.2Z" fill="black"/>
<path d="M301.788 170.936L302.488 175.391L295.993 193.758V185.799C295.993 184.808 296.352 183.854 297.002 183.108C297.756 182.245 298.111 181.104 297.988 179.968L297.861 178.818C297.679 177.177 298.502 175.586 299.947 174.786L300.965 174.222L298.443 172.982C296.261 171.909 294.311 170.409 292.716 168.573L301.788 170.932V170.936Z" fill="black"/>
<path d="M301.788 170.936L313.428 169.714L312.206 170.577C309.374 172.586 305.665 172.873 302.561 171.323L301.788 170.936Z" fill="black"/>
<path d="M290.997 194.076C289.415 195.989 287.507 197.634 285.379 198.912C286.275 199.198 287.284 199.107 288.079 198.612C288.834 198.144 289.366 197.389 289.793 196.607C290.22 195.83 290.502 194.807 290.997 194.071V194.076Z" fill="black"/>
<path d="M314.76 193.753C313.987 196.144 312.192 198.185 309.915 199.253C310.692 199.457 311.583 199.794 312.305 199.444C312.878 199.171 313.251 198.603 313.551 198.039C314.232 196.757 314.564 195.189 314.755 193.749L314.76 193.753Z" fill="black"/>
<path d="M307.419 192.967C307.969 194.417 308.792 195.767 309.833 196.921C309.028 196.748 308.319 196.226 307.855 195.544C307.392 194.862 307.287 193.78 307.424 192.967H307.419Z" fill="black"/>
<path d="M272.035 118.826C273.767 121.126 277.221 122.976 277.221 122.976L279.521 117.153L276.925 115.59L272.03 118.826H272.035Z" fill="#8C404C"/>
<path d="M274.182 122.703L272.99 122.013C272.652 121.817 272.538 121.389 272.734 121.051L277.915 112.102L280.326 113.498L275.145 122.447C274.949 122.785 274.521 122.899 274.182 122.703Z" fill="#E28F50"/>
<path d="M274.195 122.716L275.386 123.407C275.722 123.603 276.154 123.489 276.349 123.153L281.531 114.203L279.122 112.808L273.94 121.757C273.745 122.094 273.859 122.525 274.195 122.721V122.716Z" fill="#EFB96D"/>
<path d="M276.491 115.381L276.038 115.119C275.826 114.996 275.749 114.721 275.874 114.505L276.808 112.892L277.646 113.377L276.489 115.375L276.491 115.381Z" fill="#E8916A"/>
<path d="M276.974 115.662L276.522 115.4C276.309 115.277 276.233 115.002 276.358 114.785L277.292 113.173L278.129 113.658L276.972 115.656L276.974 115.662Z" fill="#CC6164"/>
<path d="M285.03 91.8728C287.798 93.4273 290.457 94.8453 292.852 96.2316C294.988 97.4679 294.111 102.968 290.898 108.522C287.684 114.071 283.348 117.571 281.212 116.335C278.821 114.949 276.267 113.349 273.54 111.722C275.871 110.876 279.053 107.613 281.634 103.158C284.216 98.7042 285.457 94.3226 285.03 91.8773V91.8728Z" fill="#CC6164"/>
<path d="M285.03 91.8729C285.457 94.3182 284.211 98.6997 281.634 103.154C279.057 107.608 275.876 110.872 273.539 111.717C263.658 105.822 251.486 99.5678 236.446 101.74L257.904 64.6746C263.513 78.8009 274.994 86.2414 285.025 91.8729H285.03Z" fill="#F7DD8C"/>
<path d="M279.521 106.376C282.048 107.854 285.793 110.035 288.734 111.749C287.598 113.212 286.42 114.408 285.307 115.24C282.193 113.412 278.507 111.244 276.298 109.944C277.353 109.022 278.453 107.813 279.516 106.376H279.521Z" fill="#A34262"/>
<path d="M277.361 105.117C277.861 105.408 278.611 105.849 279.516 106.376C278.448 107.808 277.348 109.022 276.298 109.944C275.78 109.635 275.339 109.376 275.007 109.185C265.103 103.322 253.022 96.918 239.187 97.0089L243.582 89.4185C255.486 92.6683 267.426 99.3178 277.357 105.122L277.361 105.117Z" fill="#EFB96D"/>
<path d="M283.375 99.7178C284.085 98.077 284.589 96.5225 284.866 95.1499C287.098 96.418 290.811 98.5361 293.943 100.322C293.775 101.704 293.325 103.318 292.62 105.031C289.671 103.336 285.912 101.172 283.375 99.7133V99.7178Z" fill="#E8916A"/>
<path d="M283.561 94.4136C283.893 94.5999 284.338 94.8545 284.861 95.1544C284.584 96.5271 284.084 98.0815 283.37 99.7223C282.461 99.1996 281.707 98.7678 281.207 98.4815C271.225 92.7591 259.512 85.7141 250.768 77.0101L255.163 69.4197C261.976 81.4644 273.548 88.7503 283.561 94.4181V94.4136Z" fill="#FBEED1"/>
<path d="M231.669 92.6591C232.383 88.1639 234.442 82.8097 237.469 77.5873C240.496 72.3603 244.109 67.9106 247.654 65.0517C250.941 62.4019 253.799 61.4474 255.499 62.4291C257.199 63.4154 257.795 66.3698 257.131 70.5377C256.417 75.0329 254.359 80.3871 251.331 85.6095C248.304 90.8364 244.691 95.2862 241.146 98.1451C237.86 100.795 235.001 101.749 233.301 100.768C231.601 99.7813 231.005 96.827 231.669 92.6591Z" fill="#EBA25D"/>
<path d="M247.655 65.0517C250.941 62.4019 253.8 61.4474 255.5 62.4291C256.513 63.0154 257.136 64.3063 257.331 66.138C256.195 66.638 254.941 67.4334 253.613 68.5015C250.073 71.3604 246.455 75.8101 243.428 81.0371C240.401 86.264 238.342 91.6182 237.628 96.1088C237.36 97.7905 237.301 99.2723 237.433 100.509C235.746 101.249 234.319 101.354 233.306 100.768C231.606 99.7813 231.01 96.827 231.674 92.6591C232.388 88.1639 234.446 82.8097 237.474 77.5873C240.501 72.3603 244.114 67.9106 247.659 65.0517H247.655Z" fill="#EFB96D"/>
<path d="M243.427 81.0373C246.454 75.8103 250.068 71.3606 253.613 68.5017C254.936 67.4336 256.19 66.6427 257.331 66.1382C257.463 67.3745 257.399 68.8562 257.136 70.5379C256.422 75.0331 254.363 80.3873 251.336 85.6097C248.309 90.8366 244.695 95.2864 241.15 98.1453C239.828 99.2134 238.573 100.004 237.432 100.509C237.3 99.2725 237.364 97.7907 237.628 96.109C238.341 91.6139 240.4 86.2597 243.427 81.0373Z" fill="#E28F50"/>
<path d="M236.033 76.7557C232.906 82.1554 230.774 87.7096 230.029 92.4002C229.242 97.3544 230.106 100.836 232.469 102.204C234.828 103.572 238.283 102.59 242.187 99.4361C245.882 96.4545 249.641 91.8411 252.764 86.4415C255.891 81.0418 258.018 75.4876 258.763 70.797C259.55 65.8428 258.686 62.3612 256.323 60.9931C253.964 59.625 250.509 60.6067 246.605 63.7565C242.91 66.7382 239.151 71.3515 236.028 76.7512L236.033 76.7557ZM233.301 100.768C231.601 99.7815 231.006 96.8272 231.67 92.6593C232.383 88.1641 234.442 82.8099 237.469 77.5875C240.496 72.3605 244.11 67.9108 247.655 65.0519C250.941 62.4021 253.8 61.4476 255.5 62.4293C257.2 63.4156 257.795 66.37 257.132 70.5379C256.418 75.0331 254.359 80.3873 251.332 85.6097C248.305 90.8366 244.691 95.2864 241.146 98.1453C237.86 100.795 235.001 101.75 233.301 100.768Z" fill="#CC6164"/>
<path d="M247.4 91.5321C245.282 90.0231 242.832 88.5414 240.255 87.046L243.66 81.1691L247.064 75.2922C249.641 76.7831 252.146 78.1693 254.509 79.2556C253.627 81.3509 252.559 83.4917 251.332 85.6098C250.105 87.7278 248.778 89.7186 247.4 91.5276V91.5321Z" fill="#F7DD8C"/>
<path d="M239.755 84.5596C239.973 83.1824 240.605 81.5416 241.532 79.9372C242.459 78.3327 243.568 76.9692 244.655 76.092C245.664 75.2784 246.536 74.9875 247.059 75.2875C247.582 75.5875 247.764 76.4965 247.559 77.7737C247.341 79.1509 246.709 80.7917 245.782 82.3961C244.855 84.0006 243.746 85.3641 242.659 86.2413C241.65 87.0549 240.778 87.3458 240.255 87.0458C239.732 86.7459 239.55 85.8368 239.755 84.5596Z" fill="#FBEED1"/>
<path d="M276.248 113.749L277.816 115.362C278.134 115.689 278.162 116.208 277.875 116.567L275.121 120.003C274.816 120.38 274.271 120.457 273.876 120.171L272.03 118.83C271.608 118.521 271.53 117.926 271.862 117.521L274.889 113.812C275.235 113.39 275.866 113.362 276.244 113.753L276.248 113.749Z" fill="#A64F5A"/>
<path d="M277.226 122.976L273.817 142.915C273.13 146.942 276.23 150.619 280.312 150.619C283.066 150.619 285.539 149.038 286.68 146.565C288.707 142.17 291.656 135.775 291.656 135.775L284.411 132.334L281.384 139.129L280.953 122.957L281.148 117.858C281.162 117.494 281.03 117.14 280.78 116.871L279.662 115.681C279.335 115.331 278.853 115.181 278.385 115.281L275.289 115.935C275.485 116.903 276.371 117.576 277.357 117.499L278.525 117.408C275.117 119.444 277.221 122.976 277.221 122.976H277.226Z" fill="#BD6C67"/>
<path d="M284.412 132.339L291.657 135.779L287.566 144.647C284.675 140.006 286.171 135.525 286.439 134.984L284.157 132.916L284.412 132.343V132.339Z" fill="black"/>
<path d="M281.385 139.133L283.848 142.601C284.194 138.538 281.585 138.684 281.585 138.684L281.385 139.133Z" fill="#8C404C"/>
<path d="M293.611 120.062C291.57 120.353 289.77 121.544 288.698 123.303L283.471 131.889L287.83 133.957L293.616 120.062H293.611Z" fill="#A8EFFA"/>
<path d="M286.711 133.425C288.411 129.207 289.534 127.325 291.102 126.089L287.829 133.952L286.711 133.42V133.425Z" fill="#5FA5CC"/>
<path d="M299.683 122.653C300.837 123.457 302.346 123.671 303.719 123.371C305.092 123.075 306.337 122.298 307.332 121.307C307.837 120.807 308.282 120.253 308.678 119.666L305.937 119.026V113.421L300.51 114.585V119.066L297.919 119.435C297.933 120.694 298.633 121.921 299.674 122.644L299.683 122.653Z" fill="#BD6C67"/>
<path d="M300.515 116.88C302.197 118.003 304.474 116.608 305.942 115.29V113.431L300.515 114.594V116.88Z" fill="#8C404C"/>
<path d="M314.327 148.488C314.327 141.674 318.273 126.789 314.596 121.048L308.682 119.671C308.282 120.258 307.837 120.812 307.337 121.312C306.337 122.303 305.096 123.08 303.724 123.376C302.351 123.671 300.842 123.457 299.687 122.657C298.647 121.935 297.947 120.707 297.933 119.448L293.615 120.067L287.338 135.143C286.443 137.293 287.143 139.774 289.025 141.138C290.484 142.197 291.261 143.951 291.07 145.742C290.515 150.869 289.302 161.346 288.234 165.082C304.733 170.55 319.886 165.082 319.886 165.082C319.886 159.882 314.327 155.31 314.327 148.492V148.488Z" fill="#A8EFFA"/>
<path d="M307.288 142.438H291.998C292.07 141.951 292.657 141.774 293.148 141.792C293.638 141.815 294.125 141.988 294.606 141.92C295.366 141.811 295.897 141.147 296.434 140.602C296.975 140.056 297.774 139.57 298.465 139.902C299.143 140.224 299.302 141.142 299.888 141.611C300.37 141.992 301.056 141.997 301.651 141.842C302.247 141.688 302.801 141.401 303.397 141.251C304.706 140.92 306.315 141.492 307.278 142.438H307.288Z" fill="#7DD3E9"/>
<path d="M316.046 126.093H308.347L310.024 146.465L297.02 150.283C297.02 150.283 293.402 146.697 290.948 146.838C290.793 148.237 290.602 149.901 290.389 151.655C293.22 156.56 296.629 155.301 296.629 155.301L311.869 158.887C313.887 159.36 315.855 159.01 317.478 158.091C315.973 155.246 314.324 152.196 314.324 148.483C314.324 143.197 316.696 133.048 316.046 126.089V126.093Z" fill="#7DD3E9"/>
<path d="M313.818 120.871C316.582 121.516 318.732 123.698 319.332 126.471L321.377 135.934L310.319 136.829L308.342 126.089C307.905 123.73 309.391 121.439 311.723 120.876C312.409 120.707 313.128 120.707 313.818 120.866V120.871Z" fill="#A8EFFA"/>
<path d="M311.101 136.77L312.828 148.133L296.747 151.419L293.361 147.492C292.811 146.851 292.043 146.415 291.202 146.315C288.72 146.024 287.238 148.133 287.238 148.133C287.657 148.619 288.347 148.797 288.938 148.547C289.793 148.178 290.556 148.178 290.556 148.178C288.952 148.719 287.975 149.369 287.393 149.892C286.884 150.351 286.629 151.033 286.72 151.715L286.884 152.96C287.002 153.878 288.129 154.255 288.779 153.592C289.643 152.71 290.284 152.515 290.284 152.515C292.265 156.205 296.256 154.455 296.256 154.455L312.991 156.755C317.259 157.342 320.95 153.774 320.505 149.487L319.123 136.12L311.096 136.77H311.101Z" fill="#BD6C67"/>
<path d="M312.833 148.129L317.064 150.283C315.81 146.829 314.292 147.338 312.719 147.374L312.833 148.129Z" fill="#8C404C"/>
<path d="M311.1 136.77L319.127 136.116L319.195 136.77L311.459 139.134L311.1 136.77Z" fill="black"/>
<path d="M308.21 107.958C307.937 107.036 307.914 106.036 308.214 105.149C307.183 104.422 306.142 103.686 305.26 102.781C304.378 101.877 303.71 100.768 303.451 99.5315C301.942 101.318 299.751 102.504 297.438 102.822C297.415 102.84 297.397 102.863 297.374 102.881L296.865 105.304C296.406 107.495 296.429 109.758 296.933 111.935L296.979 112.126C297.179 112.985 297.57 113.794 298.174 114.435C299.438 115.762 301.274 116.226 302.942 115.753L304.96 115.181C306.128 114.849 307.183 114.244 308.042 113.431C308.024 112.799 308.11 112.153 308.296 111.549C308.655 110.376 308.56 109.131 308.21 107.954V107.958Z" fill="#BD6C67"/>
<path d="M306.679 107.408L303.042 106.059C303.574 105.613 304.451 105.595 305.088 105.877C305.724 106.159 306.32 106.813 306.679 107.404V107.408Z" fill="black"/>
<path d="M304.279 108.313C304.147 108.672 303.797 108.872 303.497 108.758C303.197 108.649 303.061 108.267 303.192 107.908C303.324 107.549 303.674 107.349 303.974 107.463C304.274 107.572 304.41 107.954 304.279 108.313Z" fill="black"/>
<path d="M297.384 103.963L299.461 104.731C299.484 104.099 299.161 103.636 298.775 103.536C298.388 103.436 297.825 103.663 297.384 103.958V103.963Z" fill="black"/>
<path d="M297.838 105.922C297.707 106.281 297.738 106.622 297.907 106.686C298.079 106.749 298.325 106.513 298.456 106.154C298.588 105.795 298.556 105.454 298.388 105.39C298.216 105.327 297.97 105.563 297.838 105.922Z" fill="black"/>
<path d="M300.511 109.84L298.47 109.081C298.502 109.508 298.792 109.926 299.192 110.09C299.588 110.258 300.188 110.113 300.515 109.836L300.511 109.84Z" fill="#A64F5A"/>
<path d="M303.429 111.862C301.806 111.758 300.188 111.653 298.565 111.549C298.775 112.14 299.288 112.608 299.874 112.835C300.461 113.062 301.12 113.062 301.724 112.894C302.329 112.726 302.952 112.267 303.429 111.858V111.862Z" fill="white"/>
<path d="M309.869 235.973C312.301 236.2 314.905 235.659 317.132 234.555C316.709 232.737 316.059 231.705 316.059 231.705H305.278C305.06 232.091 304.81 232.46 304.528 232.805C306.665 232.969 308.733 234.146 309.869 235.973Z" fill="#BD6C67"/>
<path d="M309.869 235.973C308.732 234.146 306.664 232.969 304.528 232.805C303.774 233.741 302.81 234.514 301.724 235.028C300.465 235.623 299.06 235.882 297.838 236.55C296.619 237.223 295.706 238.705 295.942 240.077H317.314C317.65 237.837 317.459 235.964 317.132 234.56C314.905 235.664 312.3 236.205 309.869 235.978V235.973Z" fill="black"/>
<path d="M305.278 231.705H316.059C310.737 234.573 305.278 231.705 305.278 231.705Z" fill="black"/>
<path d="M287.747 235.973C290.179 236.2 292.783 235.659 295.01 234.555C294.588 232.737 293.938 231.705 293.938 231.705H283.157C282.939 232.091 282.689 232.46 282.407 232.805C284.543 232.969 286.611 234.146 287.747 235.973Z" fill="#BD6C67"/>
<path d="M287.747 235.973C286.611 234.146 284.543 232.969 282.407 232.805C281.652 233.741 280.689 234.514 279.602 235.028C278.343 235.623 276.939 235.882 275.721 236.55C274.503 237.223 273.589 238.705 273.825 240.077H295.197C295.533 237.837 295.342 235.964 295.015 234.56C292.788 235.664 290.184 236.205 287.752 235.978L287.747 235.973Z" fill="black"/>
<path d="M283.157 231.705H293.938C288.616 234.573 283.157 231.705 283.157 231.705Z" fill="black"/>
<path d="M308.683 119.671C308.283 120.258 307.837 120.812 307.337 121.312C306.337 122.303 305.096 123.08 303.724 123.376C302.351 123.671 300.842 123.457 299.688 122.657C298.647 121.935 297.947 120.707 297.933 119.448H293.847C293.779 121.026 294.433 123.166 295.315 124.48C296.242 125.857 297.647 126.907 299.233 127.407C299.52 127.498 299.81 127.571 300.106 127.625C300.619 126.58 301.138 125.53 301.651 124.485C301.528 125.571 301.41 126.671 301.292 127.766C301.815 127.793 302.342 127.784 302.865 127.743C304.987 127.562 307.078 126.848 308.801 125.589C310.501 124.348 312.146 122.248 312.741 120.23L308.692 119.68L308.683 119.671Z" fill="white"/>
<path d="M218.861 66.2473L228.978 70.7106L228.769 68.5199L221.661 64.3701L218.861 66.2473Z" fill="#454F6B"/>
<path d="M226.242 58.1159L231.565 64.1201L233.105 63.6928L227.974 55.7161L226.242 58.1159Z" fill="#454F6B"/>
<path d="M234.337 53.3662L236.924 60.9612L238.51 61.1612L236.787 53.9753L234.337 53.3662Z" fill="#454F6B"/>
<path d="M217.866 85.4599L225.452 82.8419L225.643 81.2556L218.461 83.0101L217.866 85.4599Z" fill="#454F6B"/>
<path d="M217.988 74.2786L225.974 75.0694L226.533 76.5648L217.061 77.0875L217.988 74.2786Z" fill="#454F6B"/>
<path d="M69.4702 163.05L75.0562 196.953C75.3471 198.707 75.3925 200.493 75.1971 202.257L72.4836 226.587H60.8798L60.6162 219.424C60.3617 212.62 61.0752 205.811 62.7297 199.207L55.9665 178.386L52.7349 201.925C53.2485 208.711 52.9621 215.538 51.8804 222.26L51.185 226.592H39.672L42.2582 201.152L39.9402 180.567C39.2948 174.827 39.672 169.013 41.0583 163.409L41.2901 162.478L69.4793 163.055L69.4702 163.05Z" fill="#645B79"/>
<path d="M55.9666 178.381L54.594 174.15L46.0718 173.463L46.3672 173.722C47.5671 174.777 49.0489 175.468 50.626 175.709C52.4623 175.99 53.9031 177.418 54.2031 179.249L55.0939 184.713L55.9621 178.381H55.9666Z" fill="#4B4560"/>
<path d="M73.1613 197.171L68.7389 173.023L67.6526 167.091C67.6344 166.987 67.5299 166.918 67.4253 166.937C67.3208 166.955 67.248 167.059 67.2708 167.164L68.2753 172.654L72.7795 197.244C73.0204 198.553 73.0613 199.884 72.9068 201.203L70.2024 224.447C70.1888 224.551 70.266 224.651 70.3751 224.66C70.3842 224.66 70.3888 224.66 70.3979 224.66C70.4933 224.66 70.5797 224.587 70.5887 224.487L73.2931 201.243C73.4522 199.884 73.4068 198.516 73.1613 197.171Z" fill="#967F92"/>
<path d="M60.0889 231.346H72.9244L73.338 226.583H60.507L60.0889 231.346Z" fill="#967F92"/>
<path d="M38.709 231.346H51.5445L51.9582 226.583H39.1271L38.709 231.346Z" fill="#967F92"/>
<path d="M58.7986 175.091L54.967 172.827C54.9079 172.791 54.8716 172.727 54.8716 172.659V164.996C54.8716 164.887 54.9579 164.8 55.067 164.8H62.7302C62.8393 164.8 62.9256 164.887 62.9256 164.996V172.659C62.9256 172.727 62.8893 172.791 62.8302 172.827L58.9986 175.091C58.9668 175.109 58.935 175.118 58.8986 175.118C58.8622 175.118 58.8304 175.109 58.7986 175.091ZM62.5347 165.191H55.2579V172.55L58.8941 174.7L62.5302 172.55V165.191H62.5347Z" fill="#967F92"/>
<path d="M44.1308 173.363L41.5128 171.431C41.4628 171.395 41.4355 171.336 41.4355 171.277V164.736C41.4355 164.627 41.5219 164.541 41.631 164.541H46.867C46.9761 164.541 47.0625 164.627 47.0625 164.736V171.277C47.0625 171.341 47.0352 171.395 46.9852 171.431L44.3672 173.363C44.3354 173.39 44.2945 173.4 44.2536 173.4C44.2126 173.4 44.1717 173.386 44.1399 173.363H44.1308ZM46.6716 164.927H41.8219V171.177L44.249 172.968L46.6761 171.177V164.927H46.6716Z" fill="#967F92"/>
<path d="M50.8621 173.227C50.8621 173.227 50.8894 173.227 50.903 173.227C51.0076 173.204 51.0758 173.104 51.053 173C50.4122 169.827 50.3849 166.464 50.9758 163.282C50.994 163.178 50.9258 163.073 50.8212 163.055C50.7167 163.037 50.6167 163.105 50.594 163.209C49.9895 166.441 50.0167 169.855 50.6712 173.077C50.6894 173.168 50.7712 173.232 50.8621 173.232V173.227Z" fill="#967F92"/>
<path d="M62.9384 119.889L62.1884 122.703H53.5571L56.9024 116.98L62.9384 119.889Z" fill="#BD6C67"/>
<path d="M62.2885 120.849C66.4883 121.144 70.1335 117.981 70.4289 113.781L70.6562 110.586C70.9516 106.386 67.7882 102.741 63.5884 102.445C59.3887 102.15 55.7435 105.313 55.448 109.513L55.2208 112.708C54.9253 116.908 58.0888 120.553 62.2885 120.849Z" fill="#BD6C67"/>
<path d="M56.2615 117.912C56.2751 117.862 56.3478 117.94 56.3615 117.89C57.9159 119.244 60.4021 119.28 62.1157 118.131C63.4838 117.212 64.2473 115.49 64.411 113.785C64.4837 113.04 65.0837 112.454 65.8336 112.381L66.7517 112.29L66.3154 117.562L66.9063 117.017C67.3381 116.617 67.6153 116.081 67.688 115.499L68.0107 112.958C68.6243 112.54 69.0198 111.867 69.088 111.126L69.2743 109.081C70.0743 108.195 71.1333 107.127 71.7014 106.077C72.2696 105.027 72.6014 103.813 72.4196 102.632C72.2378 101.454 71.4696 100.327 70.3515 99.9181C70.2379 98.4636 69.0789 96.7228 67.8608 95.9229C66.6381 95.1184 65.0428 94.9184 63.661 95.3865C62.3475 93.9639 59.6976 94.173 58.625 95.7865C57.4114 95.1729 55.8661 95.2774 54.7434 96.041C53.6207 96.8046 52.9617 98.2091 53.089 99.559C51.8754 99.6999 50.8755 100.527 50.3891 101.65C49.9073 102.772 50.0664 104.141 50.7982 105.122C49.9664 105.272 49.2528 105.95 49.0665 106.777C48.8801 107.604 49.2301 108.522 49.921 109.013C48.971 109.822 48.7165 111.354 49.1437 112.531C49.571 113.708 50.7755 114.549 52.0254 114.558C52.0072 115.426 52.2799 116.617 52.939 117.185C53.598 117.753 55.4161 118.076 56.2706 117.926L56.2615 117.912Z" fill="black"/>
<path d="M64.6157 113.681C64.6157 115.022 65.702 116.108 67.0428 116.108C68.3837 116.108 69.47 115.022 69.47 113.681C69.47 112.34 68.3837 111.254 67.0428 111.254C65.702 111.254 64.6157 112.34 64.6157 113.681Z" fill="#BD6C67"/>
<path d="M54.685 121.849L66.4024 122.589L69.4704 163.051L41.2812 162.473L42.3221 143.397C42.5857 138.548 43.3584 133.739 44.6265 129.053C45.8401 124.567 50.0443 121.553 54.6804 121.849H54.685Z" fill="#F8CE13"/>
<path d="M64.616 129.239C63.6797 134.357 66.3023 142.411 68.2976 147.524L67.0295 130.78L64.6206 129.234L64.616 129.239Z" fill="#EBA25D"/>
<path d="M92.7866 138.084C92.6821 134.702 93.7775 131.293 95.8274 128.598C95.8274 128.598 95.8364 128.598 95.8364 128.602C96.4228 128.925 96.6591 129.643 96.3728 130.248C96.0364 130.957 95.8092 131.739 95.7501 132.489C96.0092 131.707 96.5 130.916 97.0636 130.239C97.3864 129.852 97.959 129.798 98.3499 130.111C98.9408 130.589 99.5226 131.107 100.063 131.648C100.5 132.084 100.554 132.766 100.204 133.275C99.6953 134.02 99.2681 134.87 98.9772 135.67C99.6226 138.67 98.0863 142.342 95.2865 142.902L92.7821 138.075L92.7866 138.084Z" fill="#BD6C67"/>
<path d="M66.4027 122.585C68.7616 122.585 70.8751 124.048 71.7069 126.257L78.7746 145.079L92.3193 137.002C95.8872 138.679 95.6781 143.506 95.6781 143.506L81.0745 152.528C77.552 154.705 72.9159 153.133 71.4433 149.26L65.4346 133.448C64.1892 130.166 64.3937 126.512 65.9936 123.394L66.4072 122.589L66.4027 122.585Z" fill="#F8CE13"/>
<path d="M78.7788 145.079L79.8878 148.038C80.8878 145.92 80.1515 144.261 80.1515 144.261L78.7788 145.079Z" fill="#EBA25D"/>
<path d="M62.4796 233.287L62.625 231.346H70.2473V231.787C70.2473 232.501 70.5291 233.182 71.0291 233.692L72.7471 235.441C73.388 236.091 74.2107 236.532 75.1106 236.7L75.2561 236.728C76.4924 236.959 77.5423 237.696 78.1968 238.718H60.9297L62.4796 233.287Z" fill="#454F6B"/>
<path d="M78.1974 238.718C78.461 239.127 78.661 239.586 78.7792 240.077H60.5439L60.9303 238.718H78.1974Z" fill="white"/>
<path d="M70.2517 231.346H62.6249L62.4795 233.287L70.2517 231.787V231.346Z" fill="black"/>
<path d="M41.3356 232.605V231.346H48.1761V232.128C48.1761 232.892 48.3352 233.646 48.6443 234.346L49.5124 236.31C49.7442 236.832 50.1578 237.255 50.6714 237.5C51.2032 237.75 51.6123 238.191 51.8395 238.723H40.1812L41.3311 232.61L41.3356 232.605Z" fill="#454F6B"/>
<path d="M51.8393 238.718C51.8939 238.846 51.9393 238.977 51.9711 239.114L52.1938 240.077H39.9219L40.1764 238.718H51.8348H51.8393Z" fill="white"/>
<path d="M48.1721 231.346H41.3362V232.605L41.1226 233.737L48.1721 231.755V231.346Z" fill="black"/>
<path d="M164.409 129.998C163.55 123.225 163.541 116.344 164.387 109.572C164.718 106.913 165.173 104.177 164.473 101.59C163.437 97.7498 159.741 94.859 155.778 94.5363C151.815 94.2136 147.81 96.3453 145.656 99.686C143.102 103.645 143.133 108.685 143.333 113.39C143.533 118.098 143.756 123.085 141.497 127.216C143.911 130.766 147.806 133.675 152.065 134.216C156.323 134.757 161.182 132.825 164.414 129.998H164.409Z" fill="#8C404C"/>
<path d="M162.146 123.017C163.815 123.653 165.119 124.994 165.701 126.685L172.055 145.142L181.991 141.388L184.968 144.738L174.787 152.565C172.578 154.265 169.382 153.683 167.914 151.31L162.537 142.738L162.146 123.017Z" fill="#E68799"/>
<path d="M165.128 142.538C165.741 140.256 166.778 138.047 166.832 135.689C166.878 133.548 166.096 131.457 164.969 129.639C164.173 128.357 163.21 127.194 162.205 126.066L162.532 142.743L164.755 146.283C164.628 145.052 164.805 143.743 165.128 142.543V142.538Z" fill="#E36B85"/>
<path d="M172.055 145.143L167.932 146.761L168.241 146.302C169.046 145.111 170.441 144.465 171.868 144.615L172.05 145.143H172.055Z" fill="#E36B85"/>
<path d="M184.195 135.393L181.473 141.07C181.059 141.934 181.082 142.947 181.536 143.793C182.332 145.265 184.173 145.802 185.632 144.988L189.109 143.052C190.145 142.474 190.954 141.565 191.408 140.475C191.818 139.493 191.663 138.37 191.013 137.534L190.236 136.538C189.731 135.893 188.74 135.948 188.309 136.638L187.436 138.043L184.532 138.816L184.945 137.27C185.136 136.548 184.836 135.788 184.2 135.393H184.195Z" fill="#F0BF9C"/>
<path d="M184.527 138.811C185.027 140.179 185.054 141.679 184.604 143.065L184.527 143.302L184.654 143.147C185.7 141.874 185.645 140.025 184.527 138.811Z" fill="#EBA588"/>
<path d="M156.847 231.832L155.77 240.073H169.7C168.764 238.196 167.446 236.532 165.833 235.191L161.506 231.587L156.847 231.832Z" fill="#797C99"/>
<path d="M163.605 233.337L161.505 231.587L156.846 231.832L156.564 233.978C158.905 234.459 161.391 234.237 163.605 233.337Z" fill="black"/>
<path d="M152.925 164.423L155.67 194.249L154.493 231.833L155.316 232.042C157.793 232.673 160.397 232.601 162.833 231.833L166.506 194.249L166.956 164.423H152.925Z" fill="#454F6B"/>
<path d="M136.584 231.246L136.834 232.76C137.084 234.255 137.857 235.609 139.011 236.591L140.093 237.505C140.911 238.196 141.543 239.082 141.929 240.077H134.975C132.689 240.077 130.539 238.982 129.194 237.132L128.735 236.496L131.926 230.119L136.584 231.246Z" fill="#797C99"/>
<path d="M136.925 233.164C136.893 233.028 136.861 232.896 136.839 232.76L136.589 231.246L131.93 230.119L130.998 231.978C132.852 232.81 134.893 233.223 136.93 233.164H136.925Z" fill="black"/>
<path d="M138.894 164.423C137.225 168.459 136.594 172.85 137.062 177.19L138.894 194.249L129.671 229.628C132.03 231.073 134.739 231.837 137.503 231.837H137.689L148.879 197.744L157.411 164.423H138.894Z" fill="#454F6B"/>
<path d="M149.833 120.467L140.561 124.194V136.752L142.561 141.324C144.252 145.188 144.379 149.556 142.92 153.515L138.893 164.418H166.955L165.36 154.083L163.96 145.011C163.701 143.343 163.982 141.634 164.755 140.129L165.141 139.379C166.296 137.138 166.45 134.52 165.569 132.161L162.146 123.012L155.865 120.462L154.174 123.462L149.833 120.462V120.467Z" fill="#E68799"/>
<path d="M143.907 130.666L144.648 133.157C145.325 135.434 144.934 137.893 143.584 139.843L142.557 141.329L140.557 136.757L143.907 130.666Z" fill="#E36B85"/>
<path d="M152.597 118.812C153.374 119.262 154.292 119.435 155.192 119.421C155.419 119.421 155.642 119.408 155.869 119.385V113.644H150.092C150.124 114.253 150.192 114.858 150.333 115.449C150.656 116.799 151.401 118.112 152.601 118.812H152.597Z" fill="black"/>
<path d="M155.188 119.425C154.288 119.434 153.37 119.266 152.593 118.816C151.393 118.116 150.647 116.807 150.325 115.453C150.184 114.862 150.115 114.257 150.084 113.648H149.829V120.466L154.17 123.466L155.861 120.466V119.389C155.638 119.412 155.411 119.425 155.183 119.425H155.188Z" fill="#F0BF9C"/>
<path d="M149.833 120.467L150.638 125.73C150.711 126.207 151.302 126.398 151.638 126.053L154.174 123.466L149.833 120.467Z" fill="#E36B85"/>
<path d="M155.865 120.467L154.174 123.466L155.96 124.816C156.41 125.157 157.033 124.734 156.883 124.194L155.865 120.467Z" fill="#E36B85"/>
<path d="M160.433 103.108C156.988 105.976 152.738 107.858 148.311 108.513V110.631C148.311 114.453 151.406 117.548 155.229 117.548C159.047 117.548 162.147 114.453 162.147 110.631V106.14C162.147 105.367 162.015 104.626 161.778 103.931C161.369 103.599 160.924 103.317 160.433 103.108Z" fill="#F0BF9C"/>
<path d="M155.597 106.776C154.788 106.776 154.074 107.163 153.615 107.763H157.574C157.12 107.167 156.401 106.776 155.592 106.776H155.597Z" fill="#8C404C"/>
<path d="M156.155 109.299C156.155 109.603 155.905 109.853 155.601 109.853C155.296 109.853 155.046 109.603 155.046 109.299C155.046 108.994 155.296 108.744 155.601 108.744C155.905 108.744 156.155 108.994 156.155 109.299Z" fill="black"/>
<path d="M160.742 106.776C161.315 106.776 161.824 107.163 162.142 107.763H159.337C159.66 107.167 160.165 106.776 160.737 106.776H160.742Z" fill="#8C404C"/>
<path d="M160.351 109.299C160.351 109.603 160.528 109.853 160.741 109.853C160.955 109.853 161.132 109.603 161.132 109.299C161.132 108.994 160.955 108.744 160.741 108.744C160.528 108.744 160.351 108.994 160.351 109.299Z" fill="black"/>
<path d="M159.597 111.463C158.979 111.381 158.347 111.372 157.725 111.44C157.897 111.744 158.284 111.99 158.634 112.003C158.984 112.017 159.402 111.753 159.597 111.463Z" fill="#EBA588"/>
<path d="M159.742 112.999C158.192 113.249 156.615 113.326 155.052 113.221C155.124 113.926 155.679 114.608 156.302 114.944C156.924 115.28 157.715 115.28 158.342 114.953C159.061 114.576 159.401 113.735 159.742 112.999Z" fill="white"/>
<path d="M148.311 108.513V111.726L149.042 110.994C149.611 110.426 149.929 109.658 149.929 108.854V107.599L148.306 108.517L148.311 108.513Z" fill="#8C404C"/>
<path d="M148.952 110.326C148.952 111.558 147.957 112.553 146.725 112.553C145.493 112.553 144.498 111.558 144.498 110.326C144.498 109.095 145.493 108.099 146.725 108.099C147.957 108.099 148.952 109.095 148.952 110.326Z" fill="#F0BF9C"/>
<path d="M148.038 110.326C148.038 111.054 147.447 111.64 146.724 111.64C146.002 111.64 145.411 111.049 145.411 110.326C145.411 109.604 146.002 109.013 146.724 109.013C147.447 109.013 148.038 109.604 148.038 110.326Z" fill="#EBA588"/>
<path d="M145.307 168.586L147.966 170.7L149.534 173.472C148.525 173.618 147.534 173.118 147.057 172.218L145.302 168.591L145.307 168.586Z" fill="#F0BF9C"/>
<path d="M140.485 168.396L140.839 173.913C140.88 174.522 141.075 175.113 141.412 175.622L142.621 177.468C143.212 178.363 144.33 178.749 145.343 178.404L146.311 178.077C147.293 177.745 147.939 176.813 147.911 175.777L147.843 173.491C147.825 172.85 147.634 172.232 147.289 171.691L144.33 167.068L140.48 168.391L140.485 168.396Z" fill="#F0BF9C"/>
<path d="M143.202 170.136C144.011 169.795 144.738 169.255 145.311 168.586L144.343 167.068L140.493 168.391L140.634 170.554C141.511 170.614 142.398 170.473 143.207 170.132L143.202 170.136Z" fill="black"/>
<path d="M140.561 124.194C139.502 124.666 138.707 125.58 138.384 126.694L132.926 145.538C132.198 148.047 132.326 150.724 133.289 153.151L139.68 169.273H140.321C142.139 169.273 143.898 168.618 145.27 167.432L138.539 148.742L143.716 136.566C144.298 135.193 144.479 133.689 144.243 132.216C143.761 129.257 142.489 126.485 140.561 124.189V124.194Z" fill="#E68799"/>
<path d="M227.969 104.863L218.684 105.836C216.411 104.095 213.57 103.059 210.489 103.059H197.535C190.09 103.059 184.049 109.095 184.049 116.544C184.049 123.989 190.085 130.03 197.535 130.03H210.489C217.934 130.03 223.974 123.994 223.974 116.544C223.974 114.549 223.538 112.658 222.761 110.958L227.969 104.868V104.863Z" fill="white"/>
<path d="M194.181 110.704V122.38H213.852V110.704L204.016 118.376L194.181 110.704Z" fill="#F7DD8C"/>
<path d="M204.016 118.376L213.852 110.704H194.181L204.016 118.376Z" fill="#FBEED1"/>
<path d="M210.111 85.3961L199.403 79.2147C199.939 77.6648 200.234 76.0058 200.234 74.2741C200.234 65.9337 193.476 59.175 185.135 59.175H170.632C162.291 59.175 155.533 65.9337 155.533 74.2741C155.533 82.6145 162.291 89.3732 170.632 89.3732H185.135C188.944 89.3732 192.421 87.9596 195.08 85.6325L210.111 85.3961Z" fill="white"/>
<path d="M177.887 79.5965L171.646 82.8827L172.837 75.9286L167.783 71.0016L174.764 69.988L177.887 63.6611L181.009 69.988L187.991 71.0016L182.941 75.9286L184.132 82.8827L177.887 79.5965Z" fill="#CC6164"/>
<path d="M91.9141 62.0522H79.8103C72.8516 62.0522 67.2065 67.6928 67.2065 74.656C67.2065 81.6147 72.8471 87.2598 79.8103 87.2598H86.069L91.5641 96.2137L91.146 87.2598H91.9141C98.8727 87.2598 104.518 81.6192 104.518 74.656C104.518 67.6973 98.8773 62.0522 91.9141 62.0522Z" fill="white"/>
<path d="M91.7823 70.4246C90.437 69.0792 88.2507 69.0792 86.9054 70.4246L85.8691 71.4609L84.8328 70.4246C83.4874 69.0792 81.3012 69.0792 79.9558 70.4246C78.6104 71.7699 78.6104 73.9562 79.9558 75.3015L80.9921 76.3378L85.8691 81.2148L90.746 76.3378L91.7823 75.3015C93.1277 73.9562 93.1277 71.7699 91.7823 70.4246Z" fill="#E36B85"/>
<path d="M261.972 150.346L261.627 135.229L253.982 145.179C252.777 144.87 251.514 144.706 250.209 144.706H235.706C227.365 144.706 220.606 151.465 220.606 159.805C220.606 168.145 227.365 174.904 235.706 174.904H250.209C258.55 174.904 265.308 168.145 265.308 159.805C265.308 156.223 264.058 152.937 261.977 150.346H261.972Z" fill="white"/>
<path d="M252.724 162.823C253.984 157.436 250.638 152.047 245.25 150.788C239.863 149.528 234.475 152.874 233.215 158.261C231.956 163.649 235.302 169.037 240.689 170.297C246.076 171.556 251.465 168.21 252.724 162.823Z" fill="#F5D896"/>
<path d="M239.601 159.655C240.276 159.655 240.823 159.108 240.823 158.432C240.823 157.757 240.276 157.21 239.601 157.21C238.925 157.21 238.378 157.757 238.378 158.432C238.378 159.108 238.925 159.655 239.601 159.655Z" fill="#EBA25D"/>
<path d="M246.31 159.655C246.985 159.655 247.532 159.108 247.532 158.432C247.532 157.757 246.985 157.21 246.31 157.21C245.634 157.21 245.087 157.757 245.087 158.432C245.087 159.108 245.634 159.655 246.31 159.655Z" fill="#EBA25D"/>
<path d="M237.228 163.273C238.01 165.691 240.278 167.441 242.959 167.441C245.641 167.441 247.905 165.691 248.691 163.273H237.233H237.228Z" fill="white"/>
<path d="M330.327 242H27.2731C26.7414 242 26.3096 241.568 26.3096 241.036C26.3096 240.505 26.7414 240.073 27.2731 240.073H330.327C330.859 240.073 331.291 240.505 331.291 241.036C331.291 241.568 330.859 242 330.327 242Z" fill="#E8916A"/>
<path d="M324.017 242H230.71C230.178 242 229.746 241.568 229.746 241.036C229.746 240.505 230.178 240.073 230.71 240.073H324.017C324.549 240.073 324.981 240.505 324.981 241.036C324.981 241.568 324.549 242 324.017 242Z" fill="#797C99"/>
<path d="M178.972 242H36.5129C35.9811 242 35.5493 241.568 35.5493 241.036C35.5493 240.505 35.9811 240.073 36.5129 240.073H178.972C179.504 240.073 179.936 240.505 179.936 241.036C179.936 241.568 179.504 242 178.972 242Z" fill="#797C99"/>
</g>
<defs>
<clipPath id="clip0_541_860">
<rect width="375" height="257" fill="white"/>
</clipPath>
<clipPath id="clip1_541_860">
<rect width="63" height="82" fill="white" transform="translate(-53 18)"/>
</clipPath>
<clipPath id="clip2_541_860">
<rect width="11" height="11" fill="white" transform="translate(355 29)"/>
</clipPath>
</defs>
</svg>
