<svg width="300" height="59" viewBox="0 0 300 59" fill="none" xmlns="http://www.w3.org/2000/svg">
<g clip-path="url(#clip0_137_966)">
<path d="M247.308 24.6757C249.371 24.6757 251.434 24.6659 253.497 24.6822C254.312 24.6887 255.202 24.6724 255.573 25.6046C255.896 26.4161 255.511 27.1429 254.912 27.6449C252.956 29.281 252.549 31.4125 252.715 33.8048C252.8 35.0466 252.611 36.3144 252.751 37.5464C253.08 40.4374 251.59 42.2397 249.384 43.7292C241.356 49.133 230.376 48.755 222.733 42.784C211.811 34.2481 211.459 16.7981 221.944 7.73417C230.246 0.557329 243.335 2.28473 249.56 7.58099C251.17 8.94987 252.295 10.6349 252.777 12.7273C253.777 17.0589 250.515 20.1682 246.226 18.9525C244.084 18.3463 242.549 16.9155 241.233 15.2206C239.867 13.4672 238.668 11.5703 237.194 9.91787C233.482 5.75582 228.287 6.68796 226.227 11.8864C224.066 17.3424 225.024 22.7919 226.674 28.1435C227.893 32.097 229.9 35.6202 233.365 38.0972C235.731 39.7888 238.345 40.4081 241.233 39.779C242.113 39.5867 242.523 39.2119 242.497 38.2504C242.439 36.0798 242.481 33.9091 242.478 31.7385C242.478 30.5358 242.038 29.5222 241.141 28.7106C240.659 28.2739 240.18 27.8306 239.714 27.3776C239.228 26.905 238.837 26.3672 239.095 25.6535C239.375 24.8745 240.05 24.6627 240.799 24.6594C242.97 24.6496 245.14 24.6561 247.311 24.6561C247.311 24.6659 247.311 24.6724 247.311 24.6822L247.308 24.6757Z" fill="#4E821C"/>
<path d="M185.539 19.3306C187.973 16.3288 190.789 15.1457 194.205 15.1913C200.055 15.2663 204.367 18.9688 205.42 24.7344C206.212 29.0724 206.111 33.4789 206.613 37.8398C206.782 39.3064 207.134 40.6036 208.005 41.7443C208.64 42.582 209.038 43.4783 208.611 44.4495C208.135 45.5283 207.037 45.2089 206.153 45.2122C202.627 45.2317 199.1 45.2317 195.574 45.2024C193.713 45.1861 192.989 44.0226 194.172 42.6048C195.773 40.6916 195.789 38.5992 195.714 36.3405C195.587 32.4914 195.369 28.6487 195.01 24.8159C194.88 23.4111 194.629 22.039 193.873 20.7907C193.136 19.5783 192.051 19.1415 190.711 19.2263C189.336 19.3143 188.381 20.0965 187.827 21.2926C187.325 22.3812 187.119 23.5545 187.126 24.7735C187.146 29.0594 187.175 33.3453 187.106 37.6312C187.08 39.2543 187.501 40.6036 188.638 41.7574C189.013 42.1387 189.365 42.5852 189.587 43.0676C190.121 44.2311 189.57 45.1763 188.28 45.1894C183.938 45.235 179.597 45.2122 175.256 45.2154C174.562 45.2154 173.913 45.0297 173.662 44.3322C173.431 43.6901 173.551 43.022 174.096 42.5429C176.195 40.7046 176.449 38.3091 176.351 35.7213C176.25 33.0682 176.273 30.4054 176.348 27.7492C176.4 25.8881 175.869 24.4215 174.405 23.1765C172.456 21.5208 172.593 20.6408 174.845 19.487C177.352 18.1996 179.887 16.9741 182.416 15.7389C184.581 14.6829 185.363 15.175 185.447 17.6129C185.464 18.0399 185.493 18.4636 185.542 19.3306H185.539Z" fill="#FBB10C"/>
<path d="M123.085 37.1456C124.542 33.6549 125.852 30.5195 127.156 27.3809C127.612 26.2825 128.042 25.1711 128.492 24.0695C129.389 21.8662 129.206 21.0905 127.583 19.4153C126.837 18.6428 125.416 18.1018 125.947 16.7036C126.498 15.2532 127.928 15.9442 128.971 15.8921C130.973 15.7878 132.987 15.8366 134.994 15.879C136.611 15.9116 137.106 16.7395 136.471 18.2257C136.406 18.3756 136.35 18.5386 136.249 18.6591C132.218 23.4307 130.591 29.457 127.788 34.8706C124.656 40.9198 122.502 47.4578 118.731 53.1875C114.181 60.1004 106.848 59.2302 102.712 55.658C101.48 54.5923 100.694 53.2234 100.6 51.584C100.482 49.5339 101.714 47.6338 103.311 47.2068C105.828 46.5354 107.907 47.347 108.921 49.573C109.501 50.8441 109.804 52.2424 110.267 53.5689C110.853 55.2441 111.87 55.5374 113.193 54.3837C115.266 52.5748 116.169 50.0261 117.32 47.6436C117.577 47.109 117.254 46.6006 117.007 46.1085C113.161 38.521 109.328 30.9269 105.485 23.3362C104.723 21.8271 103.777 20.4517 102.617 19.2132C101.923 18.4701 101.424 17.5706 101.877 16.5537C102.298 15.6118 103.272 15.8855 104.051 15.8823C107.796 15.8595 111.541 15.8595 115.286 15.8725C117.584 15.879 118.147 16.8079 116.981 18.7667C116.251 19.9922 116.127 21.2144 116.668 22.4953C118.604 27.081 120.563 31.6603 122.518 36.2395C122.596 36.4253 122.733 36.5915 123.085 37.1586V37.1456Z" fill="#FBB10C"/>
<path d="M86.7349 36.1645C87.4519 34.3296 88.0256 32.9444 88.5405 31.5364C89.414 29.1441 90.2516 26.7421 91.099 24.34C91.8258 22.2867 91.7313 20.4028 90.0169 18.8156C89.3847 18.2289 88.6807 17.5836 89.1272 16.5798C89.5509 15.6183 90.4732 15.8269 91.2652 15.8236C93.4913 15.8138 95.7174 15.8171 97.9434 15.8334C98.6344 15.8399 99.4394 15.703 99.7719 16.5439C100.117 17.4206 99.7197 18.1442 99.0679 18.7146C97.5099 20.0834 96.0368 21.4882 95.3751 23.5643C94.8145 25.3178 94.104 27.0224 93.4652 28.7498C91.6694 33.5767 89.8605 38.3971 88.094 43.2338C87.579 44.6418 86.7121 45.336 85.1639 45.2382C83.8113 45.1535 82.4457 45.1437 81.0931 45.2382C79.4766 45.3491 78.5803 44.5668 77.9741 43.1784C75.0831 36.5752 72.127 30.0046 69.2947 23.3753C68.5711 21.6837 67.4304 20.3409 66.3777 18.9068C65.8366 18.1735 65.4325 17.4109 65.8399 16.5015C66.2897 15.5009 67.2414 15.8464 68.0008 15.8399C72.1824 15.8106 76.364 15.8171 80.5456 15.8399C82.374 15.8497 83.0976 16.935 82.0807 18.4245C80.9269 20.1225 81.0051 21.6739 81.7287 23.4665C83.2508 27.2375 84.649 31.0573 86.1059 34.8511C86.2167 35.1444 86.3796 35.4182 86.7414 36.158L86.7349 36.1645Z" fill="#FBB10C"/>
<path d="M60.7848 27.7948C60.7848 30.8878 60.8631 33.9808 60.7555 37.0706C60.6871 39.0522 61.2509 40.6786 62.6426 42.0605C63.2781 42.6928 63.8094 43.4196 63.3987 44.3713C62.9979 45.3002 62.0983 45.222 61.29 45.2252C57.3822 45.2317 53.4776 45.2187 49.5698 45.2187C48.7973 45.2187 47.9988 45.2415 47.6175 44.3876C47.2655 43.5989 47.536 42.8134 48.0575 42.2723C49.7556 40.5124 49.987 38.3906 49.912 36.0961C49.824 33.3877 49.8175 30.6694 49.9055 27.961C49.9642 26.175 49.4199 24.6985 48.3248 23.3296C46.9722 21.6414 47.1677 20.8657 49.0418 19.9563C51.9653 18.5353 54.8791 17.0947 57.8091 15.6835C59.8103 14.7187 60.7685 15.3217 60.7783 17.5477C60.7946 20.9634 60.7816 24.3824 60.7816 27.7981H60.7881L60.7848 27.7948Z" fill="#FBB10C"/>
<path d="M55.5896 12.1146C51.2581 12.1407 48.3345 9.55609 48.416 5.89922C48.4518 4.24353 49.1558 2.85183 50.3715 1.76325C52.6986 -0.322665 57.053 -0.589923 59.6636 1.13422C61.9418 2.63998 62.8251 5.03878 62.1244 7.80914C61.5768 9.96675 59.2725 11.8376 56.8868 12.0527C56.4011 12.095 55.9122 12.1016 55.5961 12.1179L55.5896 12.1146Z" fill="#FAB10C"/>
<path d="M40.5482 13.8518C36.7903 6.38159 29.897 3.38635 22.0553 2.2228C15.5303 1.25481 8.94662 1.82843 2.38903 1.70458C1.58725 1.68829 0.648594 1.54488 0.208597 2.42487C-0.260734 3.36354 0.162967 4.20442 0.821334 4.93775C2.0077 6.25774 2.41184 7.79936 2.40206 9.57239C2.35318 18.5223 2.34992 27.4721 2.40206 36.422C2.4151 38.6578 2.24562 40.7372 0.528002 42.4092C-0.0684388 42.9894 -0.143401 43.7977 0.205337 44.5277C0.531261 45.2122 1.25807 45.1991 1.9197 45.1991C5.12027 45.1991 8.32084 45.1991 12.3395 45.1991C15.9605 45.0655 20.4028 45.4664 24.8289 44.6548C41.9692 41.5032 46.2682 25.22 40.5482 13.8518ZM30.9595 32.1198C30.2881 37.1684 26.3314 41.2587 20.631 40.7992C20.5234 40.7894 20.4126 40.7992 20.3051 40.7992C14.986 40.7992 13.389 39.2869 13.2619 33.8831C13.1673 29.8742 13.2423 25.8588 13.2423 21.8467C13.2423 17.89 13.2162 13.93 13.2488 9.97327C13.2781 6.72707 14.1418 5.92204 17.3718 6.11759C21.5468 6.37181 24.4313 8.82602 26.5465 12.0983C30.4837 18.1833 31.9112 24.9332 30.9563 32.1231L30.9595 32.1198Z" fill="#FBB10C"/>
<path d="M169.754 42.3473C168.262 41.3239 167.714 39.9159 167.522 38.2211C167.108 34.5577 166.743 30.8846 166.166 27.2472C165.599 23.6719 164.103 20.543 161.124 18.255C158.093 15.9246 154.631 15.1294 150.9 15.2044C148.207 15.1685 145.584 15.5596 143.143 16.7329C141.112 17.7107 139.528 19.0991 139.153 21.511C138.84 23.5219 139.613 25.1092 141.386 25.9077C143.309 26.7714 145.248 26.3216 146.509 24.7344C147.513 23.473 147.836 21.8988 148.488 20.4778C149.12 19.0991 149.938 18.0203 151.63 18.154C153.38 18.2909 154.09 19.5391 154.53 21.0286C155.137 23.0689 155.195 25.1972 155.534 27.2831C155.661 28.0718 155.378 28.4434 154.53 28.0718C151.561 26.7681 148.504 26.7681 145.457 27.6612C142.005 28.6748 139.447 30.7249 138.713 34.4208C138.022 37.8887 138.726 41.0175 141.568 43.3903C144.753 46.0498 151.747 46.8157 155.329 44.6255C156.916 43.6543 157.659 43.4945 159.481 44.5994C162.545 46.4605 166.221 45.7271 169.568 44.6516C170.895 44.2246 170.937 43.1621 169.757 42.3538L169.754 42.3473ZM155.322 41.728C154.156 43.0057 152.379 43.0643 151.392 41.6661C149.417 38.8697 148.924 35.7343 149.827 32.4229C150.183 31.1225 151.206 30.4706 152.467 30.3598C153.716 30.249 154.631 30.9693 155.254 31.9992C156.365 33.8342 156.316 35.9299 156.496 37.6475C156.577 39.3716 156.294 40.6655 155.319 41.7313L155.322 41.728Z" fill="#FBB10C"/>
<path d="M299.814 36.5784C299.276 35.2715 298.227 34.8217 296.9 35.1705C295.854 35.4442 294.815 35.793 293.834 36.2395C292.862 36.6795 292.432 36.4611 292.028 35.467C290.679 32.1524 289.153 28.9095 287.84 25.5818C287.129 23.7859 285.982 23.0819 284.105 23.1667C282.1 23.2579 280.089 23.1862 278.082 23.1862C278.082 23.1797 278.082 23.1732 278.082 23.1667C275.748 23.1667 273.414 23.1667 271.081 23.1667C270.536 23.1667 269.947 23.2384 269.94 22.404C269.934 21.4719 270.644 21.7522 271.11 21.7489C274.04 21.7228 276.97 21.7522 279.904 21.7294C281.856 21.7163 282.941 20.8428 282.97 19.3338C283 17.8085 281.931 16.9089 279.995 16.8926C277.28 16.8698 274.568 16.8829 271.853 16.8861C268.982 16.8894 269.067 16.8763 268.535 14.005C268.258 12.5155 268.278 11.6257 269.953 10.9022C272.222 9.92113 273.04 7.16381 272.13 4.93775C271.13 2.49006 268.679 1.26133 266.176 1.95228C263.858 2.5911 262.294 4.87582 262.665 7.30722C263.578 13.3042 264.536 19.2947 265.527 25.2787C265.882 27.42 266.629 27.9578 268.861 27.9675C273.31 27.9871 277.762 28.0523 282.211 27.9969C283.336 27.9838 283.837 28.3847 284.245 29.369C285.738 32.977 287.295 36.5589 288.853 40.1375C289.593 41.8389 290.587 42.4157 292.168 41.9106C294.283 41.2326 296.372 40.4635 298.436 39.6389C299.782 39.0978 300.326 37.8072 299.824 36.585L299.814 36.5784Z" fill="#4F8221"/>
<path d="M284.144 34.2481C283 33.6745 281.54 34.1731 280.894 35.5029C278.733 39.9713 275.125 41.8649 270.269 41.6107C268.232 41.1935 266.397 40.3494 264.784 39.0327C260.987 34.3263 260.664 29.6102 263.855 25.396C265.129 23.7142 265.133 22.3975 263.871 21.436C262.665 20.5169 261.251 20.8852 260.019 22.5279C256.91 26.6736 256.124 31.2398 257.597 36.2134C260.358 45.5283 272.596 49.5828 280.083 43.6543C282.521 42.2528 284.026 40.0561 285.18 37.5856C285.796 36.2688 285.304 34.8348 284.141 34.2514L284.144 34.2481Z" fill="#4F8221"/>
</g>
<defs>
<clipPath id="clip0_137_966">
<rect width="300" height="58.373" fill="white"/>
</clipPath>
</defs>
</svg>
