<svg width="24" height="24" viewBox="0 0 24 24" fill="none" xmlns="http://www.w3.org/2000/svg">
<path fill-rule="evenodd" clip-rule="evenodd" d="M19.0824 13.9624C18.2692 12.0994 18.2904 11.3984 18.3278 10.1244C18.3374 9.82336 18.347 9.49636 18.347 9.12136C18.347 6.14436 16.3032 1.95135 11.7604 1.95135C7.21768 1.95135 5.17384 6.14436 5.17384 9.12136C5.17384 9.49536 5.18344 9.82336 5.19304 10.1244C5.23048 11.3984 5.25064 12.0994 4.42888 13.9874C4.07752 14.9314 4.11976 15.7464 4.55656 16.4104C5.60488 18.0084 8.63848 18.2284 11.7604 18.2284C14.8824 18.2284 17.916 18.0084 18.9643 16.4104C19.402 15.7464 19.4443 14.9314 19.0824 13.9624Z" fill="white"/>
<path fill-rule="evenodd" clip-rule="evenodd" d="M14.3497 19.2406C12.784 19.4216 11.0867 19.4206 9.15705 19.2386C8.86809 19.2146 8.58201 19.3736 8.44953 19.6486C8.31609 19.9246 8.35833 20.2556 8.55513 20.4856C9.41913 21.4926 10.5558 22.0486 11.7558 22.0486H11.7577C12.9606 22.0486 14.1001 21.4936 14.9661 20.4856C15.1648 20.2546 15.2061 19.9186 15.0697 19.6416C14.9325 19.3666 14.6502 19.2126 14.3497 19.2406Z" fill="white"/>
</svg>
