<svg width="269" height="292" viewBox="0 0 269 292" fill="none" xmlns="http://www.w3.org/2000/svg">
<path d="M26.8374 160.736L18.6446 160.911L14.4857 160.979C13.0931 161.01 11.7006 161.004 10.3081 161.01H10.0333V160.73L10.0021 153.751V153.439H10.3143L18.5821 153.477C21.336 153.477 24.0961 153.545 26.8499 153.577H27.0248V153.745C27.0123 154.93 26.9686 156.109 26.9436 157.268L26.8562 160.723L26.8374 160.736ZM26.8374 160.736L26.75 157.212C26.7188 156.052 26.6813 154.905 26.6688 153.757L26.8374 153.926C24.0836 153.957 21.3235 154.026 18.5696 154.026L10.3018 154.063L10.614 153.751L10.5828 160.73L10.3018 160.449C11.6631 160.461 13.0244 160.449 14.392 160.48L18.5009 160.549L26.8437 160.723L26.8374 160.736Z" fill="#EBEBEB"/>
<path d="M17.6142 169.535L9.42129 169.71L5.26241 169.779C3.86987 169.81 2.47733 169.804 1.08479 169.816H0.810032V169.535L0.778809 162.557V162.245H1.09104L9.35884 162.283C12.1127 162.283 14.8728 162.351 17.6267 162.382H17.8015V162.551C17.789 163.736 17.7453 164.914 17.7203 166.074L17.6329 169.529L17.6142 169.535ZM17.6142 169.535L17.5267 166.012C17.4955 164.852 17.458 163.704 17.4456 162.557L17.6142 162.725C14.8603 162.756 12.1002 162.825 9.34636 162.825L1.07855 162.862L1.39078 162.551L1.35955 169.529L1.07855 169.248C2.43986 169.261 3.80118 169.248 5.16874 169.28L9.27767 169.348L17.6204 169.523L17.6142 169.535Z" fill="#EBEBEB"/>
<path d="M267.921 229.535L259.729 229.71L255.57 229.779C254.177 229.81 252.785 229.804 251.392 229.816H251.117V229.535L251.086 222.557V222.245H251.398L259.666 222.283C262.42 222.283 265.18 222.351 267.934 222.382H268.109V222.551C268.096 223.736 268.053 224.914 268.028 226.074L267.94 229.529L267.921 229.535ZM267.921 229.535L267.834 226.012C267.809 224.852 267.765 223.704 267.753 222.557L267.921 222.725C265.168 222.756 262.407 222.825 259.654 222.825L251.386 222.862L251.698 222.551L251.667 229.529L251.386 229.248C252.747 229.261 254.108 229.248 255.476 229.28L259.585 229.348L267.928 229.523L267.921 229.535Z" fill="#EBEBEB"/>
<path d="M188.835 19.2903L180.642 19.4649L176.484 19.5335C175.091 19.5647 173.699 19.5584 172.306 19.5709H172.031V19.2903L172 12.3118V12H172.312L180.58 12.0374C183.334 12.0374 186.094 12.106 188.848 12.1372H189.023V12.3056C189.01 13.4905 188.966 14.6691 188.942 15.8291L188.854 19.284L188.835 19.2903ZM188.835 19.2903L188.748 15.7667C188.723 14.6068 188.679 13.4593 188.667 12.3118L188.835 12.4802C186.082 12.5114 183.321 12.58 180.568 12.58L172.3 12.6174L172.612 12.3056L172.581 19.284L172.3 19.0034C173.661 19.0159 175.022 19.0034 176.39 19.0346L180.499 19.1032L188.842 19.2778L188.835 19.2903Z" fill="#EBEBEB"/>
<path d="M198.059 28.0897L189.866 28.2644L185.707 28.333C184.314 28.3641 182.922 28.3579 181.529 28.3704H181.254V28.0897L181.223 21.1113V20.7995H181.535L189.803 20.8369C192.557 20.8369 195.317 20.9055 198.071 20.9367H198.246V21.105C198.233 22.29 198.19 23.4686 198.165 24.6286L198.077 28.0835L198.059 28.0897ZM198.059 28.0897L197.971 24.5662C197.946 23.4063 197.903 22.2588 197.89 21.1113L198.059 21.2797C195.305 21.3108 192.545 21.3794 189.791 21.3794L181.523 21.4169L181.835 21.105L181.804 28.0835L181.523 27.8029C182.884 27.8153 184.246 27.8029 185.613 27.8403L189.722 27.9089L198.065 28.0835L198.059 28.0897Z" fill="#EBEBEB"/>
<path d="M32.6809 38.5181L18.7234 38.818L11.6383 38.9357C9.26596 38.9893 6.89362 38.9786 4.52128 39H4.05319V38.5181L4 26.5354V26H4.53191L18.617 26.0643C23.3085 26.0643 28.0106 26.182 32.7021 26.2356H33V26.5247C32.9787 28.5593 32.9043 30.5832 32.8617 32.575L32.7128 38.5074L32.6809 38.5181ZM32.6809 38.5181L32.5319 32.4679C32.4787 30.4761 32.4149 28.5058 32.3936 26.5354L32.6809 26.8245C27.9894 26.8781 23.2872 26.9959 18.5957 26.9959L4.51064 27.0601L5.04255 26.5247L4.98936 38.5074L4.51064 38.0255C6.82979 38.047 9.14894 38.0255 11.4787 38.0791L18.4787 38.1969L32.6915 38.4967L32.6809 38.5181Z" fill="#EBEBEB"/>
<path d="M240.281 64.1322L243.816 58.3912L242.067 57.3008C241.553 56.9791 241.277 56.3957 241.326 55.7905C241.353 55.458 241.363 55.1199 241.358 54.7819C241.347 54.1767 241.661 53.6097 242.192 53.3262L244 52.3503L240.827 46.3966L239.019 47.3726C238.489 47.6615 237.85 47.6124 237.352 47.2635C237.076 47.0727 236.794 46.8928 236.496 46.7292C235.966 46.4348 235.635 45.8787 235.657 45.2735L235.722 43.2072L229.014 43L228.955 45.0772C228.938 45.6879 228.565 46.2167 228.018 46.473C227.872 46.5438 227.72 46.6202 227.58 46.6965C227.433 46.7728 227.293 46.8546 227.152 46.9418C226.637 47.2526 225.999 47.2744 225.484 46.9527L223.725 45.8569L220.189 51.5979L221.938 52.6938C222.453 53.0154 222.729 53.5988 222.674 54.204C222.647 54.5366 222.637 54.8746 222.642 55.2126C222.653 55.8178 222.339 56.3848 221.808 56.6683L220 57.6443L223.173 63.5979L224.981 62.622C225.511 62.333 226.15 62.3821 226.648 62.731C226.924 62.9219 227.206 63.1018 227.498 63.2599C228.029 63.5488 228.359 64.1104 228.343 64.7156L228.278 66.7874L234.986 67L235.051 64.9282C235.067 64.323 235.441 63.7942 235.982 63.5379C236.134 63.4671 236.28 63.3907 236.426 63.3144C236.572 63.2381 236.713 63.1563 236.854 63.0691C237.373 62.7528 238.012 62.7365 238.527 63.0582L240.275 64.1486L240.281 64.1322ZM234.601 59.8687C231.927 61.3135 228.597 60.2994 227.163 57.6061C225.728 54.9128 226.73 51.5543 229.404 50.1095C232.078 48.6647 235.413 49.6788 236.848 52.3721C238.283 55.0654 237.276 58.4184 234.601 59.8632V59.8687Z" fill="#EBEBEB"/>
<path d="M238.989 174.963L236.595 171.029L235.326 171.725C234.951 171.929 234.494 171.908 234.135 171.688C233.936 171.563 233.727 171.453 233.517 171.348C233.137 171.165 232.888 170.799 232.888 170.391V169H228.101V170.391C228.101 170.799 227.852 171.165 227.472 171.348C227.257 171.453 227.053 171.563 226.854 171.688C226.495 171.913 226.032 171.929 225.663 171.725L224.394 171.029L222 174.963L223.274 175.658C223.649 175.862 223.853 176.249 223.831 176.663C223.826 176.772 223.82 176.888 223.82 176.997C223.82 177.107 223.82 177.222 223.831 177.332C223.853 177.74 223.649 178.127 223.28 178.331L222 179.032L224.394 182.965L225.668 182.27C226.043 182.066 226.501 182.087 226.86 182.312C227.058 182.437 227.262 182.547 227.477 182.652C227.858 182.835 228.106 183.201 228.106 183.609V185H232.894V183.609C232.894 183.201 233.142 182.835 233.523 182.652C233.738 182.547 233.942 182.437 234.14 182.312C234.499 182.087 234.962 182.066 235.332 182.27L236.606 182.965L239 179.032L237.726 178.336C237.351 178.132 237.147 177.745 237.169 177.337C237.174 177.228 237.18 177.112 237.18 177.003C237.18 176.893 237.18 176.778 237.169 176.668C237.147 176.26 237.351 175.868 237.726 175.664L239 174.968L238.989 174.963ZM234.411 176.997C234.411 179.053 232.657 180.716 230.489 180.716C228.321 180.716 226.567 179.053 226.567 176.997C226.567 174.942 228.327 173.279 230.489 173.279C232.651 173.279 234.411 174.947 234.411 176.997Z" fill="#EBEBEB"/>
<path d="M237.337 105.834L227.44 106.046L222.416 106.129C220.734 106.167 219.052 106.159 217.37 106.174H217.038V105.834L217 97.3778V97H217.377L227.364 97.0453C230.691 97.0453 234.025 97.1285 237.352 97.1663H237.563V97.3703C237.548 98.8061 237.495 100.234 237.465 101.64L237.359 105.827L237.337 105.834ZM237.337 105.834L237.231 101.564C237.193 100.159 237.148 98.7683 237.133 97.3778L237.337 97.5819C234.01 97.6197 230.676 97.7028 227.349 97.7028L217.362 97.7481L217.739 97.3703L217.702 105.827L217.362 105.486C219.007 105.502 220.651 105.486 222.303 105.532L227.266 105.615L237.344 105.827L237.337 105.834Z" fill="#EBEBEB"/>
<path d="M248.478 108.041H228.503V116.497H248.478V108.041Z" fill="#EBEBEB"/>
<rect x="121" y="97" width="133" height="100.853" rx="9" fill="#F8F8F8" stroke="black" stroke-width="2"/>
<g clip-path="url(#clip0_194_3155)">
<path d="M199.196 128.076H196.074V117.935C196.074 113.508 192.408 109.908 187.902 109.908C183.396 109.908 179.73 113.508 179.73 117.935V128.076H176.608V117.935C176.608 111.818 181.674 106.84 187.901 106.84C194.129 106.84 199.196 111.818 199.196 117.935V128.076Z" fill="#72716F"/>
<path d="M202.765 123.264H173.039C172.37 123.264 171.828 123.796 171.828 124.453V143.424C171.828 144.081 172.37 144.613 173.039 144.613H202.765C203.433 144.613 203.975 144.081 203.975 143.424V124.453C203.975 123.796 203.433 123.264 202.765 123.264Z" fill="#FFC749"/>
<path d="M203.976 143.424V131.8C194.182 139.939 180.062 142.997 172.06 144.119C172.28 144.418 172.635 144.613 173.039 144.613H202.765C203.433 144.613 203.975 144.081 203.975 143.425L203.976 143.424Z" fill="#FBB10C"/>
<path d="M190.558 130.723C190.558 129.282 189.369 128.114 187.902 128.114C186.434 128.114 185.245 129.282 185.245 130.723C185.245 131.582 185.669 132.342 186.321 132.818L185.476 138.719H190.326L189.481 132.818C190.133 132.343 190.558 131.582 190.558 130.723H190.558Z" fill="#58595A"/>
<path d="M172.842 125.513V129.599C172.952 127.864 173.802 124.089 179.118 124.089H174.292C173.494 124.089 172.842 124.73 172.842 125.513Z" fill="#FBB10C"/>
<path d="M185.477 138.718C185.477 138.718 189.077 137.719 189.482 132.817L190.327 138.718H185.477Z" fill="#3E3D40"/>
</g>
<rect x="133.752" y="153.15" width="23.1104" height="23.1104" rx="3.5" fill="white" stroke="#DDDDDD"/>
<path d="M146.713 159.883L146.348 163.499L149.855 162.467L150.129 164.484L146.85 164.786L148.978 167.73L147.206 168.724L145.663 165.553L144.284 168.714L142.439 167.73L144.549 164.786L141.288 164.474L141.599 162.467L145.042 163.499L144.677 159.883H146.713Z" fill="black"/>
<rect x="161.88" y="153.15" width="23.1104" height="23.1104" rx="3.5" fill="white" stroke="#DDDDDD"/>
<path d="M174.842 159.883L174.477 163.499L177.984 162.467L178.258 164.484L174.979 164.786L177.107 167.73L175.335 168.724L173.792 165.553L172.413 168.714L170.568 167.73L172.678 164.786L169.417 164.474L169.728 162.467L173.171 163.499L172.805 159.883H174.842Z" fill="black"/>
<rect x="190.009" y="153.15" width="23.1104" height="23.1104" rx="3.5" fill="white" stroke="#DDDDDD"/>
<path d="M202.971 159.883L202.606 163.499L206.113 162.467L206.387 164.484L203.108 164.786L205.236 167.73L203.464 168.724L201.921 165.553L200.542 168.714L198.697 167.73L200.806 164.786L197.546 164.474L197.857 162.467L201.3 163.499L200.934 159.883H202.971Z" fill="black"/>
<rect x="218.138" y="153.15" width="23.1104" height="23.1104" rx="3.5" fill="white" stroke="#DDDDDD"/>
<path d="M231.1 159.883L230.734 163.499L234.241 162.467L234.515 164.484L231.237 164.786L233.365 167.73L231.593 168.724L230.049 165.553L228.67 168.714L226.826 167.73L228.935 164.786L225.675 164.474L225.985 162.467L229.428 163.499L229.063 159.883H231.1Z" fill="black"/>
<g clip-path="url(#clip1_194_3155)">
<path d="M50.08 256.79C50.65 261.21 51.22 265.62 51.79 270.04C54.92 270.55 58.09 270.82 61.26 270.83C61.87 270.83 62.54 270.81 63 270.41C63.55 269.94 63.61 269.12 63.63 268.39C63.81 261.8 63.99 255.22 64.17 248.63L50.08 256.79Z" fill="#2D5E77"/>
<path d="M79.08 256.79C79.65 261.21 80.22 265.62 80.79 270.04C83.92 270.55 87.09 270.82 90.26 270.83C90.87 270.83 91.54 270.81 92 270.41C92.55 269.94 92.61 269.12 92.63 268.39C92.81 261.8 92.99 255.22 93.17 248.63L79.08 256.79Z" fill="#2D5E77"/>
<path d="M53.66 267.86C54.88 266.85 56.14 265.81 57.65 265.3C59.15 264.79 60.98 264.9 62.13 266C62.86 266.69 63.23 267.68 63.55 268.63C64.93 272.67 65.94 276.84 66.57 281.07C66.67 281.71 66.75 282.4 66.45 282.97C66.17 283.51 65.62 283.85 65.08 284.12C60.42 286.46 54.5 286.06 50.2 283.1C49.62 282.7 49.03 282.21 48.83 281.53C48.63 280.86 48.83 280.15 49.05 279.49C50.05 276.29 51.05 273.08 52.05 269.88L53.67 267.86H53.66Z" fill="#EC8117"/>
<mask id="mask0_194_3155" style="mask-type:luminance" maskUnits="userSpaceOnUse" x="48" y="265" width="19" height="21">
<path d="M53.66 267.86C54.88 266.85 56.14 265.81 57.65 265.3C59.15 264.79 60.98 264.9 62.13 266C62.86 266.69 63.23 267.68 63.55 268.63C64.93 272.67 65.94 276.84 66.57 281.07C66.67 281.71 66.75 282.4 66.45 282.97C66.17 283.51 65.62 283.85 65.08 284.12C60.42 286.46 54.5 286.06 50.2 283.1C49.62 282.7 49.03 282.21 48.83 281.53C48.63 280.86 48.83 280.15 49.05 279.49C50.05 276.29 51.05 273.08 52.05 269.88L53.67 267.86H53.66Z" fill="white"/>
</mask>
<g mask="url(#mask0_194_3155)">
<path d="M48.71 276.74C51.23 280.76 55.9 283.35 60.65 283.34C62.04 283.34 63.46 283.12 64.69 282.46C66.94 281.24 68.29 278.68 70.66 277.72C71.53 279.44 71.16 281.62 70.02 283.17C68.88 284.72 67.06 285.68 65.18 286.1C63.6 286.45 61.96 286.45 60.35 286.29C58.56 286.12 56.79 285.77 55.03 285.41C53.12 285.02 51.15 284.59 49.54 283.48C47.94 282.37 46.77 280.39 47.19 278.48L48.7 276.74H48.71Z" fill="#210A0A"/>
<path d="M50.76 271.96C53.23 270.47 55.01 267.71 57.84 267.14C59.62 266.78 61.49 267.4 62.99 268.43C64.49 269.46 65.68 270.87 66.86 272.26C66.44 270.78 65.96 269.31 65.41 267.87C64.77 266.19 63.99 264.49 62.63 263.32C59.71 260.8 55.31 261.52 51.55 262.4C50.13 262.73 48.68 263.07 47.47 263.87C46.26 264.67 45.31 266.04 45.43 267.49L50.76 271.96Z" fill="#4B89AF"/>
</g>
<path d="M55.37 274.93C57.54 273.91 60.1 273.89 62.31 274.79C62.94 275.04 63.54 275.38 64.08 275.78C64.54 276.11 65 275.37 64.54 275.04C62.41 273.49 59.63 272.94 57.06 273.46C56.33 273.61 55.62 273.85 54.95 274.17C54.44 274.41 54.86 275.18 55.37 274.94V274.93Z" fill="#1C1C1B"/>
<path d="M55.12 273.3C57.27 272.24 59.81 272.18 62.02 273.08C62.24 273.17 62.5 273 62.57 272.79C62.65 272.55 62.5 272.33 62.28 272.24C59.86 271.24 57.04 271.36 54.7 272.52C54.2 272.77 54.61 273.54 55.12 273.29V273.3Z" fill="#1C1C1B"/>
<path d="M55.87 270.53C57.62 269.58 59.82 269.54 61.6 270.46C61.81 270.57 62.07 270.53 62.2 270.32C62.32 270.13 62.27 269.83 62.06 269.72C60.01 268.65 57.49 268.65 55.45 269.76C54.96 270.03 55.37 270.8 55.87 270.53Z" fill="#1C1C1B"/>
<path d="M53.18 281.69C54.4 280.32 56.08 279.42 57.9 279.15C59.68 278.88 61.52 279.31 63.04 280.27C63.9 280.81 64.66 281.51 65.24 282.34C65.37 282.53 65.61 282.64 65.83 282.52C66.02 282.42 66.14 282.12 66.01 281.93C64.85 280.27 63.13 279.04 61.18 278.51C59.22 277.98 57.14 278.19 55.31 279.05C54.28 279.53 53.35 280.22 52.6 281.07C52.44 281.25 52.41 281.5 52.58 281.69C52.73 281.85 53.04 281.89 53.2 281.71L53.18 281.69Z" fill="#1C1C1B"/>
<path d="M91.17 268.73C89.95 267.72 88.69 266.68 87.18 266.17C85.68 265.66 83.85 265.77 82.7 266.87C81.97 267.56 81.6 268.55 81.28 269.5C79.9 273.54 78.89 277.71 78.26 281.94C78.16 282.58 78.08 283.27 78.38 283.84C78.66 284.38 79.21 284.72 79.75 284.99C84.41 287.33 90.33 286.93 94.63 283.97C95.21 283.57 95.8 283.08 96 282.4C96.2 281.73 96 281.02 95.78 280.36C94.78 277.16 93.78 273.95 92.78 270.75L91.16 268.73H91.17Z" fill="#EC8117"/>
<mask id="mask1_194_3155" style="mask-type:luminance" maskUnits="userSpaceOnUse" x="78" y="265" width="19" height="22">
<path d="M91.17 268.73C89.95 267.72 88.69 266.68 87.18 266.17C85.68 265.66 83.85 265.77 82.7 266.87C81.97 267.56 81.6 268.55 81.28 269.5C79.9 273.54 78.89 277.71 78.26 281.94C78.16 282.58 78.08 283.27 78.38 283.84C78.66 284.38 79.21 284.72 79.75 284.99C84.41 287.33 90.33 286.93 94.63 283.97C95.21 283.57 95.8 283.08 96 282.4C96.2 281.73 96 281.02 95.78 280.36C94.78 277.16 93.78 273.95 92.78 270.75L91.16 268.73H91.17Z" fill="white"/>
</mask>
<g mask="url(#mask1_194_3155)">
<path d="M96.12 277.62C93.6 281.64 88.93 284.23 84.18 284.22C82.79 284.22 81.37 284 80.14 283.34C77.89 282.12 76.54 279.56 74.17 278.6C73.3 280.32 73.67 282.5 74.81 284.05C75.95 285.6 77.77 286.56 79.65 286.98C81.23 287.33 82.87 287.33 84.48 287.17C86.27 287 88.04 286.65 89.8 286.29C91.71 285.9 93.68 285.47 95.29 284.36C96.9 283.25 98.06 281.27 97.64 279.36L96.13 277.62H96.12Z" fill="#210A0A"/>
<path d="M94.07 272.83C91.6 271.34 89.82 268.58 86.99 268.01C85.21 267.65 83.34 268.27 81.84 269.3C80.34 270.33 79.15 271.74 77.97 273.13C78.39 271.65 78.87 270.18 79.42 268.74C80.06 267.06 80.84 265.36 82.2 264.19C85.12 261.67 89.52 262.39 93.28 263.27C94.7 263.6 96.15 263.94 97.36 264.74C98.57 265.54 99.52 266.91 99.4 268.36L94.07 272.83Z" fill="#4B89AF"/>
</g>
<path d="M89.46 275.8C87.29 274.78 84.73 274.76 82.52 275.66C81.89 275.91 81.29 276.25 80.75 276.65C80.29 276.98 79.83 276.24 80.29 275.91C82.42 274.36 85.2 273.81 87.77 274.33C88.5 274.48 89.21 274.72 89.88 275.04C90.39 275.28 89.97 276.05 89.46 275.81V275.8Z" fill="#1C1C1B"/>
<path d="M89.71 274.17C87.56 273.11 85.02 273.05 82.81 273.95C82.59 274.04 82.33 273.87 82.26 273.66C82.18 273.42 82.33 273.2 82.55 273.11C84.97 272.11 87.79 272.23 90.13 273.39C90.63 273.64 90.22 274.41 89.71 274.16V274.17Z" fill="#1C1C1B"/>
<path d="M88.96 271.4C87.21 270.45 85.01 270.41 83.23 271.33C83.02 271.44 82.76 271.4 82.63 271.19C82.51 271 82.56 270.7 82.77 270.59C84.82 269.52 87.34 269.52 89.38 270.63C89.87 270.9 89.46 271.67 88.96 271.4Z" fill="#1C1C1B"/>
<path d="M91.65 282.56C90.43 281.19 88.75 280.29 86.93 280.02C85.15 279.75 83.31 280.18 81.79 281.14C80.93 281.68 80.17 282.38 79.59 283.21C79.46 283.4 79.22 283.51 79 283.39C78.81 283.29 78.69 282.99 78.82 282.8C79.98 281.14 81.7 279.91 83.65 279.38C85.61 278.85 87.69 279.06 89.52 279.92C90.55 280.4 91.48 281.09 92.23 281.94C92.39 282.12 92.42 282.37 92.25 282.56C92.1 282.72 91.79 282.76 91.63 282.58L91.65 282.56Z" fill="#1C1C1B"/>
<path d="M49.78 121.7C48.65 142.53 45.45 255.16 46.68 262.97C52.83 263.28 65.26 262.74 71.41 262.48C71.46 262.56 72.88 154.94 72.95 154.81C72.88 154.94 76.13 263.17 76.13 263.17C76.17 263.69 98.28 263.45 98.47 262.56C99.69 256.87 95.29 129.03 92.28 117.06C79.91 120.65 62.62 120.53 49.79 121.69L49.78 121.7Z" fill="#EC8117"/>
<mask id="mask2_194_3155" style="mask-type:luminance" maskUnits="userSpaceOnUse" x="46" y="117" width="53" height="147">
<path d="M49.78 121.7C48.65 142.53 45.45 255.16 46.68 262.97C52.83 263.28 65.26 262.74 71.41 262.48C71.46 262.56 72.88 154.94 72.95 154.81C72.88 154.94 76.13 263.17 76.13 263.17C76.17 263.69 98.28 263.45 98.47 262.56C99.69 256.87 95.29 129.03 92.28 117.06C79.91 120.65 62.62 120.53 49.79 121.69L49.78 121.7Z" fill="white"/>
</mask>
<g mask="url(#mask2_194_3155)">
<path d="M68.01 126.84C67.78 131.24 67.8 135.66 68.06 140.06C68.19 142.26 68.38 144.46 68.64 146.65C68.76 147.71 68.9 148.78 69.05 149.84C69.19 150.8 69.35 151.77 69.7 152.69C70.36 154.47 71.92 156.18 73.98 156.04C74.14 156.03 74.28 155.91 74.28 155.74C74.25 151.64 74.22 147.55 74.2 143.45C74.17 139.37 74.14 135.29 74.12 131.21C74.1 128.9 74.09 126.59 74.07 124.28C74.07 123.9 73.48 123.9 73.48 124.28C73.51 128.38 73.54 132.47 73.56 136.57C73.59 140.65 73.62 144.73 73.64 148.81C73.66 151.12 73.67 153.43 73.69 155.74L73.99 155.44C72.24 155.56 70.9 154.11 70.31 152.6C69.97 151.72 69.8 150.78 69.66 149.84C69.51 148.81 69.38 147.77 69.26 146.74C68.77 142.52 68.5 138.27 68.47 134.03C68.45 131.63 68.5 129.23 68.63 126.83C68.65 126.45 68.06 126.45 68.04 126.83L68.01 126.84Z" fill="#B25C0F"/>
<path d="M65.35 157.49C69.18 156.66 73.05 156.01 76.94 155.56C78.04 155.43 79.15 155.32 80.26 155.22C80.64 155.19 80.64 154.6 80.26 154.63C76.32 154.98 72.4 155.51 68.51 156.25C67.4 156.46 66.3 156.68 65.2 156.92C64.83 157 64.99 157.57 65.36 157.49H65.35Z" fill="#B25C0F"/>
<path d="M59.2699 125.89C59.2499 131 59.2299 136.11 59.2099 141.21C59.2099 143.64 59.3399 146.17 58.6099 148.51C57.9499 150.63 56.6099 152.51 55.1599 154.17C53.5199 156.05 51.6299 157.69 49.5299 159.04C49.2099 159.25 49.5099 159.76 49.8299 159.55C51.7299 158.33 53.4699 156.87 55.0099 155.22C56.5199 153.59 57.9199 151.77 58.7899 149.71C59.7599 147.41 59.7799 144.94 59.7799 142.49C59.7799 139.89 59.7999 137.28 59.8099 134.68C59.8199 131.75 59.8299 128.82 59.8399 125.89C59.8399 125.51 59.2499 125.51 59.2499 125.89H59.2699Z" fill="#B25C0F"/>
<path d="M47.5099 186.53C50.3899 186.3 53.2599 186.04 56.1399 185.77C56.3699 192.83 56.5899 199.89 56.8199 206.95C53.6199 207.62 46.8899 208.2 43.6299 208.06L47.5099 186.53Z" fill="#B25C0F"/>
<path d="M55.1399 186.04C53.8899 188.34 51.7299 190.1 49.2399 190.89C48.5399 191.11 47.8099 191.26 47.0799 191.33C46.6999 191.36 46.6999 191.95 47.0799 191.92C49.8399 191.68 52.4599 190.35 54.2899 188.27C54.8099 187.68 55.2699 187.03 55.6399 186.34C55.8199 186.01 55.3099 185.71 55.1299 186.04H55.1399Z" fill="#EC8117"/>
<path d="M104.05 185.34C98.53 185.49 93.02 185.91 87.6 186.6C87.69 194.05 88.36 201.49 89.62 208.89C89.7 209.39 89.85 209.96 90.5 210.23C90.93 210.41 91.48 210.41 91.99 210.39C95.8 210.31 99.6 210.23 103.41 210.16L104.05 185.34Z" fill="#B25C0F"/>
<path d="M46.6699 259.59C62.4799 259.37 49.33 259.55 65.74 259.33C67.5399 259.31 69.34 259.28 71.15 259.26C71.5299 259.26 71.5299 258.66 71.15 258.67C64.7899 258.76 58.4399 258.85 52.0799 258.93L46.6699 259C46.2899 259 46.2899 259.6 46.6699 259.59Z" fill="#B25C0F"/>
<path d="M76.9099 259.37C94.9099 261.24 77.5699 260.37 93.7499 260.1C95.3399 260.07 96.9299 260.02 98.5199 259.94C98.8999 259.92 98.8999 259.33 98.5199 259.35C92.9099 259.63 87.2799 259.58 81.6699 259.19C80.0799 259.08 78.4999 258.94 76.9099 258.78C76.5299 258.74 76.5299 259.33 76.9099 259.37Z" fill="#B25C0F"/>
<path d="M81.92 125.13C82.1 127.92 82.34 130.71 82.65 133.49C82.94 136.09 83.25 138.69 83.71 141.26C84.14 143.63 84.76 145.99 85.85 148.14C86.86 150.13 88.3 151.87 90.16 153.11C92.14 154.44 94.56 155.12 96.93 154.67C97.3 154.6 97.15 154.03 96.77 154.1C92.49 154.92 88.52 151.83 86.57 148.25C85.46 146.21 84.82 143.95 84.38 141.69C83.89 139.21 83.59 136.68 83.31 134.17C82.96 131.16 82.69 128.15 82.5 125.13C82.48 124.75 81.88 124.75 81.91 125.13H81.92Z" fill="#B25C0F"/>
<path d="M87.02 187.42C88.59 188.62 90.55 189.3 92.45 189.75C94.54 190.25 96.71 190.48 98.86 190.37C99.92 190.31 100.99 190.17 102.01 189.86C102.37 189.75 102.22 189.18 101.85 189.29C100.01 189.86 98.02 189.89 96.11 189.74C94.03 189.57 91.94 189.14 89.99 188.38C89.04 188.01 88.13 187.54 87.32 186.92C87.02 186.69 86.72 187.2 87.02 187.43V187.42Z" fill="#EC8117"/>
<path d="M79.69 169.21L80.13 171.7C80.16 171.86 80.35 171.95 80.49 171.91C80.66 171.86 80.72 171.7 80.7 171.55C80.55 170.72 80.41 169.89 80.26 169.06C80.23 168.9 80.04 168.81 79.9 168.85C79.73 168.9 79.67 169.06 79.69 169.21Z" fill="#B25C0F"/>
<path d="M81.8099 166.63V167.87C81.8099 168.02 81.9499 168.17 82.1099 168.17C82.2699 168.17 82.4099 168.04 82.4099 167.87V166.63C82.4099 166.48 82.2699 166.33 82.1099 166.33C81.9499 166.33 81.8099 166.46 81.8099 166.63Z" fill="#B25C0F"/>
<path d="M84.72 159.58V161.24C84.72 161.39 84.86 161.54 85.02 161.54C85.18 161.54 85.32 161.41 85.32 161.24V159.58C85.32 159.43 85.18 159.28 85.02 159.28C84.86 159.28 84.72 159.41 84.72 159.58Z" fill="#B25C0F"/>
<path d="M58.58 163.73V165.8C58.58 165.96 58.72 166.1 58.88 166.1C59.04 166.1 59.18 165.96 59.18 165.8V163.73C59.18 163.57 59.04 163.43 58.88 163.43C58.72 163.43 58.58 163.57 58.58 163.73Z" fill="#B25C0F"/>
<path d="M61.9 164.56V166.22C61.9 166.37 62.04 166.52 62.2 166.52C62.36 166.52 62.5 166.39 62.5 166.22V164.56C62.5 164.41 62.36 164.26 62.2 164.26C62.04 164.26 61.9 164.39 61.9 164.56Z" fill="#B25C0F"/>
<path d="M62.2299 186.43L61.81 187.67C61.76 187.82 61.87 188 62.02 188.03C62.18 188.07 62.33 187.98 62.38 187.82C62.52 187.41 62.6599 186.99 62.7999 186.58C62.8499 186.43 62.74 186.25 62.59 186.22C62.43 186.18 62.2799 186.27 62.2299 186.43Z" fill="#B25C0F"/>
<path d="M64.39 187.79V188.62C64.39 188.77 64.53 188.92 64.69 188.92C64.85 188.92 64.99 188.79 64.99 188.62V187.79C64.99 187.64 64.85 187.49 64.69 187.49C64.53 187.49 64.39 187.62 64.39 187.79Z" fill="#B25C0F"/>
<path d="M80.98 186.54V187.78C80.98 187.93 81.12 188.08 81.28 188.08C81.44 188.08 81.58 187.95 81.58 187.78V186.54C81.58 186.39 81.44 186.24 81.28 186.24C81.12 186.24 80.98 186.37 80.98 186.54Z" fill="#B25C0F"/>
<path d="M83.56 187.17L83.97 187.58C84.02 187.63 84.1 187.67 84.18 187.67C84.22 187.67 84.26 187.67 84.29 187.64C84.33 187.63 84.36 187.61 84.39 187.58C84.44 187.52 84.48 187.45 84.48 187.37C84.48 187.29 84.45 187.22 84.39 187.16C84.25 187.02 84.11 186.88 83.98 186.75C83.93 186.7 83.85 186.66 83.77 186.66C83.73 186.66 83.69 186.66 83.66 186.69C83.62 186.7 83.59 186.72 83.56 186.75C83.51 186.81 83.47 186.88 83.47 186.96C83.47 187.04 83.5 187.11 83.56 187.17Z" fill="#B25C0F"/>
<path d="M85.8 127.33C86.57 132.6 85.8 138.11 87.36 143.27C88.53 147.12 91.11 151.01 95.19 152.15C98.05 152.94 101.06 152.19 103.73 151.1C104.08 150.96 103.93 150.38 103.57 150.53C101.22 151.5 98.6 152.23 96.05 151.75C94.07 151.38 92.34 150.28 91 148.8C89.64 147.3 88.68 145.45 88.05 143.54C87.28 141.19 87.04 138.71 86.92 136.25C86.77 133.23 86.8 130.19 86.36 127.19C86.31 126.81 85.74 126.97 85.79 127.35L85.8 127.33Z" fill="#B25C0F"/>
<path d="M54.96 130.27C56.07 135.35 56.46 140.59 56.1 145.78C56.01 147.04 55.92 148.31 55.56 149.53C55.24 150.58 54.69 151.54 54.01 152.39C52.57 154.18 50.66 155.58 48.83 156.95C46.54 158.68 44.17 160.31 41.75 161.84C41.43 162.04 41.73 162.55 42.05 162.35C44.27 160.95 46.43 159.47 48.53 157.91C49.54 157.16 50.55 156.39 51.53 155.59C52.41 154.88 53.26 154.13 54.01 153.29C54.73 152.48 55.36 151.59 55.79 150.6C56.3 149.43 56.49 148.18 56.6 146.92C56.84 144.27 56.88 141.6 56.74 138.95C56.57 135.98 56.17 133.03 55.53 130.12C55.45 129.75 54.88 129.91 54.96 130.28V130.27Z" fill="#B25C0F"/>
</g>
<path d="M46.51 83.51C47.84 96.98 43.59 120.89 45.16 134.33C59.4 136.25 84.18 135.76 97.96 131.69C98.23 111.8 91.51 80.79 86.72 61.48C86.24 59.53 85.71 57.54 84.55 55.91C82.59 53.13 79.15 51.8 75.82 51.12C66.7 49.24 56.86 51.2 49.15 56.42L46.51 83.52V83.51Z" fill="#1B4B5E"/>
<path d="M50.66 91.03C51.74 91.43 52.86 91.98 53.39 92.99C53.8 93.77 53.7 94.74 53.08 95.36C52.55 95.9 51.98 95.79 51.43 95.69C47.73 94.99 44.03 94.29 40.34 93.59C39.35 93.4 38.24 93.15 37.85 92.09C37.6 91.41 37.76 90.65 38.21 90.07C38.73 89.4 39.44 89.05 40.22 88.87C41.04 88.69 41.89 88.73 42.71 88.94L50.66 91.03Z" fill="#DC4345"/>
<path d="M46.85 94.83C47.13 95.99 47.08 97.25 47.02 98.45C46.73 104.03 46.45 109.61 46.16 115.19C45.76 122.96 45.36 130.72 44.97 138.49C44.36 150.35 43.71 162.42 40.37 173.75C39.82 175.61 37.12 175.41 36.85 173.48C35 160.44 36.38 147 37.79 133.83C39.2 120.62 40.6 107.41 42.01 94.19V93.93L39.74 93.51C37.06 108.38 32.96 144.74 31.54 157.6C31.2 160.64 31.16 163.71 31.42 166.76C32.09 174.8 33.42 190.66 33.43 190.66C33.44 190.66 31.64 262.04 28.94 282.25L33.24 283.4L39.17 191.59L45.04 170.67C46.56 165.26 47.5 159.71 47.84 154.1L51.45 95.68L46.86 94.83H46.85Z" fill="#C2B38C"/>
<path d="M28.87 280.74L33.84 281.1C34.49 283.49 35.01 285.91 35.38 288.36C35.43 288.7 35.47 289.07 35.28 289.35C35.12 289.58 34.85 289.68 34.59 289.77C31.84 290.7 28.8 290.76 26.01 289.94C26.76 287.15 27.51 284.36 28.26 281.57L28.87 280.74Z" fill="#DC4345"/>
<path d="M90.49 91.76C89.41 92.16 88.29 92.71 87.76 93.72C87.35 94.5 87.45 95.47 88.07 96.09C88.6 96.63 89.17 96.52 89.72 96.42C93.42 95.72 97.12 95.02 100.81 94.32C101.8 94.13 102.91 93.88 103.3 92.82C103.55 92.14 103.39 91.38 102.94 90.8C102.42 90.13 101.71 89.78 100.93 89.6C100.11 89.42 99.26 89.46 98.44 89.67L90.49 91.76Z" fill="#DC4345"/>
<path d="M94.3 95.56C94.02 96.72 94.07 97.98 94.13 99.18C94.42 104.76 94.7 110.34 94.99 115.92C95.39 123.69 95.79 131.45 96.18 139.22C96.79 151.08 97.44 163.15 100.78 174.48C101.33 176.34 104.03 176.14 104.3 174.21C106.15 161.17 104.77 147.73 103.36 134.56C101.95 121.35 100.55 108.14 99.14 94.92V94.66L101.41 94.24C104.09 109.11 108.19 145.47 109.61 158.33C109.95 161.37 109.99 164.44 109.73 167.49C109.06 175.53 107.73 191.39 107.72 191.39C107.71 191.39 111.14 263 113.84 283.2L109.54 284.35L101.98 192.31L96.11 171.39C94.59 165.98 93.65 160.43 93.31 154.82L89.7 96.4L94.29 95.55L94.3 95.56Z" fill="#C2B38C"/>
<path d="M113.91 281.7L108.94 282.06C108.29 284.45 107.77 286.87 107.4 289.32C107.35 289.66 107.31 290.03 107.5 290.31C107.66 290.54 107.93 290.64 108.19 290.73C110.94 291.66 113.98 291.72 116.77 290.9C116.02 288.11 115.27 285.32 114.52 282.53L113.91 281.7Z" fill="#DC4345"/>
<path d="M95.18 149.16C96.92 148.64 98.69 148.21 100.48 147.87C101.37 147.7 102.26 147.55 103.15 147.43C103.21 147.43 103.28 147.41 103.34 147.4C103.28 147.4 103.28 147.4 103.34 147.4C103.45 147.39 103.56 147.37 103.67 147.36C103.89 147.33 104.11 147.31 104.33 147.28C104.8 147.23 105.27 147.18 105.75 147.14C106.21 147.1 106.66 146.76 106.64 146.25C106.62 145.8 106.25 145.32 105.75 145.36C102.01 145.68 98.31 146.37 94.71 147.44C94.27 147.57 93.94 148.07 94.09 148.53C94.24 148.98 94.7 149.29 95.18 149.15V149.16Z" fill="#C2B38C"/>
<path d="M35.92 85.41C35.42 85.4 34.88 85.41 34.5 85.72C33.94 86.17 34.24 87.04 34.06 87.73C29.66 104.59 33.25 126.5 33.85 131.96C34.71 139.77 33.47 147.67 33.9 155.52C33.93 156.17 34.02 156.9 34.53 157.31C35.04 157.72 36.04 157.37 35.91 156.73C35.68 157.59 36.3 158.57 37.17 158.73C38.04 158.9 38.98 158.21 39.08 157.33C39.1 158.45 40.29 159.4 41.39 159.17C42.49 158.94 43.2 157.6 42.77 156.56C42.77 158.3 45.83 158.24 46.49 156.63C47.15 155.02 46.26 153.23 45.38 151.72L47.5 153.87C48.91 153.58 48.79 151.52 48.33 150.15C42.3 132.05 45.8 108.14 48.93 89.32C48.93 89.32 41.64 85.55 35.91 85.4L35.92 85.41Z" fill="#CC7748"/>
<path d="M63.84 51.06C57.69 51.02 47.34 52.85 42.65 56.82C40.3 58.81 38.73 61.58 37.44 64.38C33.65 72.57 30.29 81.24 30.53 90.26C36.13 90.29 43.22 91.18 48.75 92.1C52.18 83.55 55.65 74.92 60.83 67.31C62.51 64.85 64.42 62.35 64.79 59.39C65.16 56.43 63.19 52.94 60.21 52.96L63.84 51.06Z" fill="#1B4B5E"/>
<path d="M36.23 153.7C35.81 155.06 35.65 156.5 35.77 157.92C35.8 158.3 36.39 158.3 36.36 157.92C36.24 156.55 36.39 155.18 36.8 153.86C36.91 153.5 36.34 153.34 36.23 153.7Z" fill="#561E1C"/>
<path d="M38.73 154.25C38.97 155.5 39.21 156.75 39.45 158C39.52 158.37 40.09 158.22 40.02 157.84C39.78 156.59 39.54 155.34 39.3 154.09C39.23 153.72 38.66 153.87 38.73 154.25Z" fill="#561E1C"/>
<path d="M42.06 154.24C42.47 155.35 42.87 156.46 43.28 157.57C43.33 157.72 43.48 157.82 43.64 157.78C43.78 157.74 43.9 157.57 43.85 157.42C43.44 156.31 43.04 155.2 42.63 154.09C42.58 153.94 42.43 153.84 42.27 153.88C42.13 153.92 42.01 154.09 42.06 154.24Z" fill="#561E1C"/>
<path d="M36.07 154.05C38.88 154.26 41.72 153.98 44.45 153.25C44.82 153.15 44.66 152.58 44.29 152.68C41.61 153.4 38.83 153.66 36.07 153.46C35.69 153.43 35.69 154.02 36.07 154.05Z" fill="#561E1C"/>
<path d="M35.46 101.73C34.44 102.8 34.24 104.52 35 105.79C35.2 106.12 35.71 105.82 35.51 105.49C34.89 104.45 35.04 103.03 35.88 102.15C36.14 101.87 35.73 101.46 35.46 101.73Z" fill="#561E1C"/>
<path d="M140.04 65.04C138.08 66.75 136.13 68.52 134.53 70.29C136.5 67.71 138.32 64.36 139.71 61.73C140.12 60.96 139.17 60.19 138.49 60.74C136.69 62.19 133.56 66.58 132.3 68.4C133.42 66.75 136.11 62.71 139.08 57.74C139.52 56.99 138.61 56.16 137.92 56.7C134.57 59.32 128.78 67.06 129 66.66C130.75 63.48 133.25 60.49 134.99 57.31V57.29C135.47 56.45 134.32 55.65 133.69 56.38L123.58 68.17C123.58 68.17 126.92 62.1 125.09 59.69C122.85 62.8 120.78 66.03 118.88 69.36C118.4 70.21 117.92 71.09 117.84 72.06C117.76 73.04 118.09 74.01 118.09 74.99C118.09 74.99 111.63 86.52 108.42 90.26C106.96 85.54 104.72 81.49 103.27 76.77L90.57 87.12C92.89 91.73 95.2 96.33 97.52 100.94C98.74 103.37 100 105.84 101.94 107.74C103.88 109.64 106.68 110.88 109.33 110.28C112.23 109.62 114.23 107.02 115.85 104.53C118.56 100.38 125.64 83.29 126.11 82.87C126.94 82.12 129.23 81.34 130.11 80.65C131.31 79.72 132.18 78.43 133.02 77.17C135.15 73.99 137.29 70.8 139.42 67.62C139.94 66.85 140.47 65.85 140 65.05L140.04 65.04Z" fill="#CC7748"/>
<path d="M71.96 50.86C78.11 51.01 89.22 49.24 96.08 55.54C98.35 57.63 100.2 60.29 101.05 63.26C106.33 81.71 109.53 87.02 109.53 87.02C103.93 86.87 94.43 89.87 88.88 90.61C85.72 81.96 82.53 73.23 77.59 65.45C75.99 62.93 74.16 60.38 73.89 57.41C73.61 54.44 75.69 51.01 78.67 51.12L71.97 50.86H71.96Z" fill="#1B4B5E"/>
<path d="M126.44 65.42C129.09 67.13 131.74 68.84 134.39 70.55C134.71 70.76 135.01 70.25 134.69 70.04C132.04 68.33 129.39 66.62 126.74 64.91C126.42 64.7 126.12 65.21 126.44 65.42Z" fill="#561E1C"/>
<path d="M124.04 68.48C125.51 70.52 125.71 73.35 124.64 75.62C124.33 76.27 123.93 76.86 123.44 77.37C123.18 77.64 123.59 78.06 123.86 77.79C125.75 75.82 126.37 72.81 125.57 70.22C125.34 69.49 125 68.8 124.56 68.18C124.34 67.87 123.83 68.17 124.05 68.48H124.04Z" fill="#561E1C"/>
<path d="M126.95 76.35C128.15 74.56 130.03 73.29 132.13 72.82C132.5 72.74 132.34 72.17 131.97 72.25C129.72 72.75 127.71 74.13 126.43 76.05C126.22 76.37 126.73 76.66 126.94 76.35H126.95Z" fill="#561E1C"/>
<path d="M108.07 90.13C105.83 92.34 104.35 95.29 103.91 98.4C103.78 99.29 103.74 100.19 103.78 101.09C103.8 101.47 104.39 101.47 104.37 101.09C104.23 98.06 105.12 95.02 106.84 92.52C107.33 91.81 107.88 91.15 108.5 90.55C108.77 90.28 108.35 89.86 108.08 90.13H108.07Z" fill="#561E1C"/>
<path d="M60.45 59.71C60.73 61.27 61.78 62.57 63.09 63.43C64.63 64.45 66.49 64.8 68.31 64.85C69.34 64.88 70.36 64.81 71.39 64.74C72.36 64.67 73.34 64.58 74.3 64.42C76.11 64.13 77.93 63.59 79.4 62.48C80.86 61.38 81.97 59.82 82.18 57.97C82.22 57.59 81.63 57.6 81.59 57.97C81.42 59.49 80.52 60.81 79.37 61.76C78.05 62.86 76.38 63.43 74.72 63.75C72.91 64.1 71.03 64.23 69.19 64.26C67.43 64.29 65.6 64.12 64.02 63.29C62.56 62.52 61.34 61.22 61.04 59.56C60.97 59.19 60.4 59.34 60.47 59.72L60.45 59.71Z" fill="black"/>
<path d="M87.58 67.9C88.23 73.34 89.08 78.76 90.13 84.14C90.43 85.66 90.74 87.18 91.06 88.69C91.14 89.06 91.71 88.9 91.63 88.53C90.48 83.21 89.53 77.86 88.77 72.47C88.56 70.95 88.36 69.42 88.17 67.89C88.13 67.52 87.53 67.51 87.58 67.89V67.9Z" fill="black"/>
<path d="M90.72 69.54C90.44 73.69 90.38 77.85 90.56 82C90.58 82.38 91.17 82.38 91.15 82C90.97 77.85 91.02 73.69 91.31 69.54C91.34 69.16 90.74 69.16 90.72 69.54Z" fill="black"/>
<path d="M50.09 66.54C49.22 72.25 48.83 78.02 48.94 83.79C48.97 85.4 49.04 87.02 49.15 88.63C49.18 89.01 49.77 89.01 49.74 88.63C49.36 82.93 49.46 77.2 50.05 71.52C50.22 69.91 50.42 68.3 50.67 66.7C50.73 66.33 50.16 66.17 50.1 66.54H50.09Z" fill="black"/>
<path d="M47.34 68.82C47.79 71.58 48.24 74.34 48.7 77.1C48.76 77.47 49.33 77.32 49.27 76.94C48.82 74.18 48.37 71.42 47.91 68.66C47.85 68.29 47.28 68.44 47.34 68.82Z" fill="black"/>
<path d="M64.13 78.82C66.78 81.48 69.22 84.35 71.41 87.4C73.6 90.45 75.55 93.66 77.24 97.02C78.19 98.91 79.05 100.83 79.82 102.8C79.96 103.15 80.53 103 80.39 102.64C79 99.11 77.33 95.69 75.4 92.43C73.47 89.17 71.28 86.06 68.86 83.14C67.5 81.5 66.06 79.92 64.55 78.4C64.28 78.13 63.86 78.55 64.13 78.82Z" fill="black"/>
<path d="M63.11 83.58C66.6 87.11 69.64 91.06 72.16 95.34C72.88 96.56 73.55 97.8 74.18 99.06C74.35 99.4 74.86 99.1 74.69 98.76C72.45 94.28 69.66 90.08 66.4 86.27C65.48 85.2 64.52 84.16 63.53 83.16C63.26 82.89 62.84 83.31 63.11 83.58Z" fill="black"/>
<path d="M56.77 131.75C60.53 131.88 64.29 132.03 68.05 132.09C71.77 132.15 75.51 132.11 79.22 131.76C81.3 131.56 83.38 131.27 85.43 130.86C85.8 130.78 85.65 130.21 85.27 130.29C81.65 131.03 77.96 131.36 74.27 131.47C70.56 131.59 66.84 131.49 63.13 131.37C61.01 131.3 58.9 131.23 56.78 131.16C56.4 131.15 56.4 131.74 56.78 131.75H56.77Z" fill="black"/>
<path d="M88.16 58.12C88.71 58.77 89.08 59.59 89.18 60.44C89.2 60.6 89.3 60.74 89.48 60.74C89.62 60.74 89.79 60.6 89.78 60.44C89.66 59.42 89.25 58.48 88.59 57.7C88.49 57.58 88.28 57.59 88.17 57.7C88.05 57.82 88.07 58 88.17 58.12H88.16Z" fill="black"/>
<path d="M90.57 59.25C90.84 59.94 91.12 60.63 91.39 61.33C91.45 61.48 91.59 61.58 91.75 61.54C91.89 61.5 92.02 61.33 91.96 61.18C91.69 60.49 91.41 59.8 91.14 59.1C91.08 58.95 90.94 58.85 90.78 58.89C90.64 58.93 90.51 59.1 90.57 59.25Z" fill="black"/>
<path d="M92.93 86.13C96.53 85.62 100.1 84.97 103.64 84.15C104.64 83.92 105.64 83.68 106.64 83.42C107.01 83.33 106.85 82.76 106.48 82.85C102.96 83.75 99.41 84.49 95.82 85.09C94.81 85.26 93.79 85.41 92.77 85.56C92.39 85.61 92.55 86.18 92.93 86.13Z" fill="black"/>
<path d="M32.33 86.95C36.42 87.07 40.51 87.19 44.59 87.32L48.09 87.42C48.47 87.43 48.47 86.84 48.09 86.83C44 86.71 39.91 86.59 35.83 86.47L32.33 86.37C31.95 86.36 31.95 86.95 32.33 86.96V86.95Z" fill="black"/>
<path d="M80.87 45.49C81.91 47.07 83.66 48.15 85.53 48.36C86.36 48.45 87.29 48.35 87.84 47.73C88.39 47.11 88.21 45.89 87.4 45.72C87.51 46.52 88.67 46.55 89.42 46.27C90.34 45.92 91.24 45.41 91.75 44.57C92.26 43.73 92.25 42.52 91.51 41.87C93.04 41.31 94.4 40.3 95.37 39C95.78 38.44 96.14 37.75 95.96 37.08C95.78 36.41 94.77 36.03 94.36 36.59C95.55 35.78 96.54 34.69 97.22 33.43C97.85 32.27 98.21 30.8 97.56 29.65C96.91 28.5 94.94 28.19 94.33 29.36C95.42 29.88 96.78 29.5 97.72 28.74C98.66 27.98 99.29 26.9 99.89 25.85C100.37 25.01 100.85 24.16 101.11 23.22C101.6 21.43 101.15 19.4 99.95 17.99C99.41 17.36 98.7 16.83 97.88 16.7C97.06 16.57 96.13 16.91 95.76 17.65C96.39 17.82 96.9 17.12 97.06 16.49C97.47 14.89 96.83 13.07 95.51 12.07C94.19 11.07 92.27 10.95 90.83 11.78C91.8 9.92 91.56 7.39 90 5.98C88.44 4.57 85.63 4.71 84.46 6.46C85.09 3.92 83.47 1.03 80.97 0.239996C78.47 -0.550004 75.49 0.899996 74.55 3.35C73.87 5.14 74.46 7.53 76.23 8.28C76.75 6.23 74.44 4.35 72.32 4.47C70.2 4.59 68.41 6.01 66.82 7.41C66.35 7.82 65.85 8.28 65.71 8.89C65.57 9.5 65.98 10.27 66.6 10.25C66.54 9.65 66.01 9.13 65.41 9.08C64.81 9.03 64.2 9.45 64.04 10.03C62.59 8.46 59.64 8.92 58.58 10.78C57.52 12.64 58.46 15.27 60.38 16.21C59.61 15.53 58.29 15.8 57.66 16.61C57.03 17.42 56.99 18.57 57.31 19.55C57.63 20.53 58.25 21.37 58.87 22.19C57.47 21.53 55.82 23.17 56.01 24.71C56.2 26.25 57.57 27.38 59.01 27.95C58.34 26.99 56.79 26.92 55.91 27.68C55.02 28.45 54.81 29.81 55.23 30.91C55.65 32.01 56.59 32.84 57.65 33.34C57.01 32.52 55.6 32.64 54.94 33.44C54.28 34.24 54.33 35.47 54.88 36.35C55.42 37.23 56.37 37.81 57.35 38.14C56.61 37.86 55.8 38.6 55.74 39.38C55.68 40.16 56.15 40.9 56.69 41.46C57.59 42.39 58.75 43.07 60.01 43.38C59.98 42.83 59.32 42.42 58.82 42.64C60.33 44.84 63.2 46.02 65.82 45.5C65.24 46.06 66.16 46.92 66.94 47.13C70.41 48.06 74.27 47.42 77.27 45.43C77.74 45.12 78.22 44.43 77.78 44.07L80.87 45.54V45.49Z" fill="#561E1C"/>
<path d="M79.22 45.46L78.71 55.53C78.59 57.94 76.82 59.96 74.45 60.4C71.41 60.96 68.28 60.99 65.23 60.49C64.63 60.39 63.97 60.23 63.66 59.71C63.39 59.26 63.48 58.7 63.57 58.19C64.66 52.01 65.13 45.71 64.97 39.44C69.24 40.32 73.61 40.74 77.97 40.71L79.22 45.47V45.46Z" fill="#CC7748"/>
<g opacity="0.4">
<path d="M79.03 47.15C76.18 48.96 72.98 50.84 69.66 50.27C67.42 49.88 64.79 47.61 63.01 46.21C64 48.73 64.2 52.48 66.82 54.03C67.79 54.61 68.87 55.12 69.99 55.03C71.59 54.91 74.9 52.84 75.92 51.6C77.08 50.2 78.1 48.68 78.97 47.09L79.04 47.15H79.03Z" fill="#561E1C"/>
</g>
<path d="M65.42 17.5C63.44 23.83 62.29 30.41 61.99 37.03C61.86 39.86 61.9 42.75 62.83 45.42C63.76 48.09 65.71 50.54 68.4 51.43C70.95 52.27 73.84 51.59 76.1 50.13C78.36 48.67 80.08 46.51 81.54 44.25C85.99 37.4 88.4 29.45 90.57 21.58L65.41 17.49L65.42 17.5Z" fill="#CC7748"/>
<path d="M72.54 30.89C72.51 31.84 72.3 32.8 71.84 33.64C71.4 34.44 70.72 35.04 70.07 35.66C69.49 36.22 68.86 36.86 68.62 37.65C68.42 38.29 68.48 39.02 68.75 39.63C69.04 40.28 69.64 40.77 70.38 40.72C70.76 40.69 70.76 40.1 70.38 40.13C69.14 40.22 68.87 38.42 69.29 37.57C69.65 36.84 70.28 36.28 70.86 35.73C71.47 35.15 72.05 34.54 72.43 33.79C72.89 32.89 73.1 31.89 73.13 30.88C73.14 30.5 72.55 30.5 72.54 30.88V30.89Z" fill="#561E1C"/>
<path d="M75.04 37.01C75.5 36.2 76.5 35.73 77.42 35.96C78.33 36.19 79 37.08 79.01 38.02C79.01 38.4 79.6 38.4 79.6 38.02C79.59 36.83 78.74 35.69 77.58 35.39C76.41 35.09 75.12 35.66 74.53 36.71C74.34 37.04 74.85 37.34 75.04 37.01Z" fill="black"/>
<path d="M63.91 33.71C64.37 32.9 65.37 32.43 66.29 32.66C67.2 32.89 67.87 33.78 67.88 34.72C67.88 35.1 68.47 35.1 68.47 34.72C68.46 33.53 67.61 32.39 66.45 32.09C65.28 31.79 63.99 32.36 63.4 33.41C63.21 33.74 63.72 34.04 63.91 33.71Z" fill="black"/>
<path d="M74.03 42.8C72.55 43.29 70.96 43.26 69.49 42.71C69.13 42.58 68.98 43.15 69.33 43.28C70.88 43.86 72.61 43.88 74.18 43.37C74.54 43.25 74.39 42.68 74.02 42.8H74.03Z" fill="#561E1C"/>
<path d="M78.62 29.25C77.39 29.23 76.84 30.81 77.84 31.53C77.84 31.53 77.86 31.54 77.86 31.55C79.3 32.56 80.91 33.34 82.59 33.84C82.46 31.96 81.33 30.18 79.68 29.27L78.61 29.25H78.62Z" fill="#561E1C"/>
<path d="M72.26 27.07C73.25 28.02 72.43 29.69 71.08 29.47H71.05C69.13 29.12 67.26 28.48 65.53 27.55C67.1 26.17 69.39 25.66 71.4 26.24L72.26 27.06V27.07Z" fill="#561E1C"/>
<path d="M83.84 37.45C84.85 36.63 86.32 36.43 87.52 36.94C87.79 37.05 88.04 37.21 88.22 37.43C88.71 38.05 88.44 38.95 88.11 39.67C87.55 40.91 86.84 42.14 85.72 42.92C84.6 43.7 82.98 43.88 81.91 43.04L83.83 37.46L83.84 37.45Z" fill="#CC7748"/>
<path d="M63.13 31.92C63.13 30.8 61.81 29.92 60.78 30.35C60.03 30.67 59.61 31.47 59.38 32.24C58.96 33.65 58.98 35.24 59.69 36.53C60.4 37.82 61.89 38.72 63.34 38.51L63.12 31.92H63.13Z" fill="#CC7748"/>
<path d="M86.65 39.12C85.48 39.61 84.38 40.22 83.35 40.97C83.22 41.06 83.16 41.23 83.24 41.37C83.31 41.5 83.51 41.57 83.64 41.48C84.62 40.77 85.68 40.16 86.8 39.69C86.95 39.63 87.05 39.49 87.01 39.33C86.97 39.19 86.79 39.06 86.65 39.12Z" fill="#561E1C"/>
<path d="M85.52 40.83C85.26 40.71 85.01 40.6 84.75 40.48C84.68 40.45 84.6 40.43 84.52 40.45C84.45 40.47 84.38 40.52 84.34 40.59C84.3 40.66 84.29 40.74 84.31 40.82C84.33 40.89 84.38 40.97 84.45 41C84.71 41.12 84.96 41.23 85.22 41.35C85.29 41.38 85.37 41.4 85.45 41.38C85.52 41.36 85.59 41.31 85.63 41.24C85.67 41.17 85.68 41.09 85.66 41.01C85.64 40.94 85.59 40.86 85.52 40.83Z" fill="#561E1C"/>
<path d="M60.01 32.15C60.25 33.28 60.49 34.42 60.73 35.55C60.81 35.92 61.38 35.76 61.3 35.39C61.06 34.26 60.82 33.12 60.58 31.99C60.5 31.62 59.93 31.78 60.01 32.15Z" fill="#561E1C"/>
<path d="M59.59 33.79C59.92 34.09 60.25 34.39 60.58 34.69C60.69 34.79 60.89 34.81 61 34.69C61.1 34.58 61.12 34.38 61 34.27C60.67 33.97 60.34 33.67 60.01 33.37C59.9 33.27 59.7 33.25 59.59 33.37C59.49 33.48 59.47 33.68 59.59 33.79Z" fill="#561E1C"/>
<path d="M86.65 36.3C85.91 36.97 84.6 36.56 84.1 35.68C83.6 34.81 83.74 33.71 84.1 32.77C84.52 31.67 85.24 30.67 86.15 29.92C85.07 29.85 84.38 28.58 84.58 27.52C84.78 26.46 85.59 25.62 86.44 24.95C84.29 25.64 82.05 24.35 80.16 23.11C79.82 22.89 79.47 22.65 79.29 22.29C79.11 21.93 79.19 21.41 79.55 21.24C80.2 22.35 78.93 23.69 77.68 23.95C76.03 24.3 74.21 23.65 73.15 22.34C72.61 23.36 71.11 23.21 70.02 22.81C69.47 22.61 68.89 22.35 68.6 21.84C68.31 21.33 69.13 21.47 68.3 22.49C67.47 23.51 65.64 23.38 64.87 22.3C64.68 23.48 63.61 24.45 62.42 24.54C63.98 25.28 64.25 27.8 62.88 28.85C63.32 29.28 63.38 30.05 63 30.55C62.62 31.04 61.87 31.19 61.33 30.88C60.55 30.43 60.46 29.36 60.5 28.46C60.67 24.35 61.55 20.26 63.1 16.45C63.48 15.51 63.92 14.56 64.68 13.89C66.08 12.65 68.17 12.69 70.03 12.86C74.57 13.29 79.07 14.12 83.47 15.34C85.64 15.94 87.82 16.66 89.65 17.98C91.48 19.3 92.92 21.3 93.07 23.55C93.17 25.05 92.69 26.52 92.15 27.92C90.88 31.2 89.85 33.86 87.81 36.73L86.64 36.29L86.65 36.3Z" fill="#561E1C"/>
</g>
<defs>
<clipPath id="clip0_194_3155">
<rect width="32.1472" height="37.773" fill="white" transform="translate(171.828 106.84)"/>
</clipPath>
<clipPath id="clip1_194_3155">
<rect width="114.22" height="291.47" fill="white" transform="translate(26)"/>
</clipPath>
</defs>
</svg>
