<svg width="375" height="277" viewBox="0 0 375 277" fill="none" xmlns="http://www.w3.org/2000/svg">
<g clip-path="url(#clip0_541_1261)">
<path d="M323.932 245.606H301.41V245.776H323.932V245.606Z" fill="#EBEBEB"/>
<path d="M243.23 247.456H237.32V247.626H243.23V247.456Z" fill="#EBEBEB"/>
<path d="M300.73 239.296H287.681V239.466H300.73V239.296Z" fill="#EBEBEB"/>
<path d="M83.0421 240.438H53.6729V240.608H83.0421V240.438Z" fill="#EBEBEB"/>
<path d="M93.405 240.438H89.1006V240.608H93.405V240.438Z" fill="#EBEBEB"/>
<path d="M171.102 243.308H107.399V243.478H171.102V243.308Z" fill="#EBEBEB"/>
<path d="M358 234.665H18V234.835H358V234.665Z" fill="#EBEBEB"/>
<path d="M99.1444 188.664C98.5732 182.095 91.8684 179.64 83.9192 180.334C75.9768 181.027 69.8024 184.618 70.3736 191.18L99.1444 188.664Z" fill="#F0F0F0"/>
<path d="M83.661 177.328C87.3466 177.008 88.523 173.894 88.2034 170.202C87.8838 166.516 86.1838 163.653 82.4914 163.973C78.8058 164.292 77.6294 167.407 77.949 171.099C78.2686 174.785 79.9686 177.648 83.661 177.328Z" fill="#F0F0F0"/>
<path d="M249.268 48.7337C249.445 50.7669 247.942 52.5621 245.909 52.7389C243.876 52.9157 242.081 51.4129 241.904 49.3797C241.727 47.3465 243.23 45.5513 245.263 45.3745C247.296 45.1977 249.091 46.7005 249.268 48.7337Z" fill="#F5F5F5"/>
<path d="M269.716 46.9451C269.893 48.9783 268.39 50.7735 266.357 50.9503C264.324 51.1271 262.528 49.6243 262.352 47.5911C262.175 45.5579 263.678 43.7627 265.711 43.5859C267.744 43.4091 269.539 44.9119 269.716 46.9451Z" fill="#F5F5F5"/>
<path d="M290.17 45.1568C290.347 47.19 288.844 48.9852 286.811 49.162C284.778 49.3388 282.982 47.836 282.806 45.8028C282.629 43.7696 284.132 41.9744 286.165 41.7976C288.198 41.6208 289.993 43.1236 290.17 45.1568Z" fill="#F5F5F5"/>
<path d="M251.09 69.5755C251.267 71.6087 249.764 73.4039 247.731 73.5807C245.698 73.7575 243.903 72.2547 243.726 70.2215C243.549 68.1883 245.052 66.3931 247.085 66.2163C249.118 66.0395 250.914 67.5423 251.09 69.5755Z" fill="#F5F5F5"/>
<path d="M271.538 67.7871C271.715 69.8203 270.212 71.6155 268.179 71.7923C266.146 71.9691 264.351 70.4663 264.174 68.4331C263.997 66.3999 265.5 64.6047 267.533 64.4279C269.566 64.2511 271.361 65.7539 271.538 67.7871Z" fill="#F5F5F5"/>
<path d="M291.993 65.9988C292.17 68.032 290.667 69.8272 288.634 70.004C286.6 70.1808 284.805 68.678 284.628 66.6448C284.452 64.6116 285.954 62.8164 287.988 62.6396C290.021 62.4628 291.816 63.9656 291.993 65.9988Z" fill="#F5F5F5"/>
<path d="M252.913 90.4175C253.09 92.4507 251.587 94.2459 249.554 94.4227C247.521 94.5995 245.726 93.0967 245.549 91.0635C245.372 89.0303 246.875 87.2351 248.908 87.0583C250.941 86.8815 252.736 88.3843 252.913 90.4175Z" fill="#F5F5F5"/>
<path d="M273.367 88.6289C273.544 90.6621 272.041 92.4573 270.008 92.6341C267.975 92.8109 266.18 91.3081 266.003 89.2749C265.826 87.2417 267.329 85.4465 269.362 85.2697C271.395 85.0929 273.191 86.5957 273.367 88.6289Z" fill="#F5F5F5"/>
<path d="M293.815 86.8406C293.992 88.8738 292.489 90.669 290.456 90.8458C288.423 91.0226 286.627 89.5198 286.451 87.4866C286.274 85.4534 287.777 83.6582 289.81 83.4814C291.843 83.3046 293.638 84.8074 293.815 86.8406Z" fill="#F5F5F5"/>
<path d="M289.395 88.0442L247.378 91.723L284.628 46.4555L246.46 49.7943C246.011 49.8351 245.623 49.5019 245.582 49.0599C245.542 48.6111 245.875 48.2235 246.317 48.1827L288.334 44.5039L251.084 89.7714L289.252 86.4326C289.701 86.3918 290.088 86.725 290.129 87.167C290.17 87.6158 289.837 88.0034 289.395 88.0442Z" fill="#E6E6E6"/>
<path d="M290.041 168.841C289.905 168.44 289.545 168.141 289.123 168.114C287.199 167.985 285.567 167.264 284.281 165.972C282.602 164.285 281.616 161.715 281.453 158.669C281.425 158.098 280.949 157.656 280.378 157.656C279.746 157.656 279.249 158.186 279.283 158.812C279.481 162.388 280.684 165.441 282.745 167.509C284.349 169.12 286.423 170.065 288.783 170.269C288.824 170.269 288.878 170.276 288.939 170.283C289.721 170.344 290.313 169.583 290.055 168.841H290.041Z" fill="#F0F0F0"/>
<path d="M68.8162 167.155C68.449 167.189 68.1226 166.917 68.0886 166.55L67.5786 160.75L73.379 160.24C73.7462 160.206 74.0726 160.478 74.1066 160.845C74.1406 161.212 73.8686 161.538 73.5014 161.572L69.0406 161.96L69.4282 166.421C69.4622 166.788 69.1902 167.114 68.823 167.148L68.8162 167.155Z" fill="#E0E0E0"/>
<path d="M96.3836 164.748C96.0164 164.782 95.69 164.51 95.656 164.143L95.2684 159.682L90.8076 160.07C90.4404 160.104 90.114 159.832 90.08 159.464C90.046 159.097 90.318 158.771 90.6852 158.737L96.4856 158.227L96.9956 164.027C97.0296 164.394 96.7576 164.721 96.3904 164.755L96.3836 164.748Z" fill="#E0E0E0"/>
<path d="M99.2394 189.711L93.439 190.221C93.0718 190.255 92.7454 189.983 92.7114 189.616C92.6774 189.248 92.9494 188.922 93.3166 188.888L97.7774 188.5L97.3898 184.04C97.3558 183.672 97.6278 183.346 97.995 183.312C98.3622 183.278 98.6886 183.55 98.7226 183.917L99.2326 189.718L99.2394 189.711Z" fill="#E0E0E0"/>
<path d="M76.1331 191.73L70.3327 192.24L69.8227 186.44C69.7887 186.073 70.0607 185.746 70.4279 185.712C70.7951 185.678 71.1215 185.95 71.1555 186.318L71.5431 190.778L76.0039 190.391C76.3711 190.357 76.6975 190.629 76.7315 190.996C76.7655 191.363 76.4935 191.69 76.1263 191.724L76.1331 191.73Z" fill="#E0E0E0"/>
<path d="M95.9146 70.48L73.7262 72.418L73.2706 67.2228C72.8014 61.8372 76.7998 57.0704 82.1854 56.6012C87.571 56.132 92.3378 60.1304 92.807 65.516L93.0722 68.5352L96.275 68.2564L96.0098 65.2372C95.3842 58.0836 89.0534 52.7729 81.9066 53.3985C74.753 54.024 69.4422 60.3548 70.0678 67.5016L70.5234 72.724C67.9394 73.2272 66.1034 75.6072 66.3346 78.2864L67.919 96.4015C68.1706 99.2643 70.6934 101.386 73.563 101.134L98.4034 98.9583C101.266 98.7067 103.388 96.1839 103.136 93.3143L101.552 75.1992C101.3 72.3364 98.7774 70.2148 95.9078 70.4664L95.9146 70.48ZM86.4898 84.4404L87.0338 90.6759C87.1222 91.7027 86.3674 92.6003 85.3406 92.6955C84.3138 92.7839 83.4162 92.0291 83.321 91.0023L82.777 84.7668C81.961 84.2636 81.383 83.4068 81.2878 82.38C81.1382 80.6596 82.4098 79.1364 84.137 78.9868C85.8574 78.8372 87.3806 80.1088 87.5302 81.836C87.6186 82.8628 87.197 83.808 86.483 84.4472L86.4898 84.4404Z" fill="#EBEBEB"/>
<path d="M133.899 80.9791L131.655 77.3207C130.438 77.4907 129.445 77.4907 128.228 77.3207L125.984 80.9791L125.556 80.8635C124.107 80.4759 122.713 79.8979 121.408 79.1431L121.02 78.9187L121.972 74.9475C122.047 74.6279 122.373 74.4307 122.693 74.5055C123.013 74.5803 123.21 74.9067 123.135 75.2263L122.394 78.3203C123.366 78.8507 124.379 79.2723 125.433 79.5851L127.623 76.0151L128.017 76.0831C129.289 76.2939 130.581 76.2939 131.853 76.0831L132.247 76.0151L134.437 79.5851C135.484 79.2723 136.504 78.8507 137.476 78.3203L136.504 74.2539L136.83 74.0227C137.721 73.3835 138.51 72.6287 139.19 71.7719C139.394 71.5203 139.754 71.4591 140.013 71.6495C140.285 71.8467 140.353 72.2343 140.142 72.4995C139.475 73.3427 138.707 74.0975 137.85 74.7571L138.85 78.9255L138.462 79.1499C137.157 79.9047 135.763 80.4827 134.321 80.8703L133.893 80.9859L133.899 80.9791ZM120.15 72.9959C119.959 72.7783 119.776 72.5607 119.606 72.3295L115.437 73.3291L115.213 72.9415C114.458 71.6359 113.88 70.2419 113.493 68.7935L113.377 68.3651L117.035 66.1211C116.954 65.5091 116.913 64.9515 116.913 64.4075C116.913 63.8635 116.954 63.3059 117.035 62.6939L113.377 60.4499L113.493 60.0215C113.88 58.5731 114.458 57.1791 115.213 55.8735L115.437 55.486L119.606 56.4855C120.306 55.5743 121.115 54.7652 122.027 54.0648L121.272 50.9096C121.197 50.59 121.394 50.2636 121.714 50.1888C122.033 50.114 122.36 50.3112 122.435 50.6308L123.373 54.5612L123.047 54.7992C121.999 55.5539 121.088 56.4651 120.333 57.5123L120.102 57.8387L116.029 56.8663C115.505 57.8387 115.077 58.8519 114.771 59.9059L118.341 62.0955L118.28 62.4899C118.164 63.1903 118.11 63.8159 118.11 64.4075C118.11 64.9991 118.164 65.6247 118.28 66.3251L118.348 66.7195L114.778 68.9091C115.091 69.9563 115.512 70.9763 116.036 71.9487L120.109 70.9763L120.34 71.3027C120.565 71.6087 120.796 71.9079 121.047 72.1935C121.258 72.4315 121.251 72.7851 121.02 73.0095L121 73.0299C120.762 73.2611 120.374 73.2407 120.157 72.9891L120.15 72.9959ZM144.453 73.3291L142.916 72.9619C142.597 72.8871 142.399 72.5607 142.474 72.2411C142.549 71.9215 142.875 71.7243 143.195 71.7991L143.861 71.9555C144.385 70.9831 144.813 69.9699 145.119 68.9159L141.549 66.7263L141.617 66.3319C141.733 65.6315 141.787 65.0059 141.787 64.4143C141.787 63.8227 141.733 63.1971 141.617 62.4967L141.556 62.1023L145.126 59.9127C144.813 58.8655 144.392 57.8455 143.868 56.8731L139.795 57.8455L139.557 57.5191C138.802 56.4719 137.891 55.5608 136.844 54.806L136.517 54.568L137.49 50.4948C136.517 49.9644 135.504 49.5428 134.45 49.23L132.261 52.8L131.866 52.7388C130.595 52.5348 129.303 52.5348 128.031 52.7388L127.637 52.8L125.447 49.23C125.311 49.2708 125.175 49.3116 125.039 49.3592C124.733 49.4612 124.407 49.298 124.298 48.9988C124.182 48.686 124.345 48.3324 124.665 48.2236C124.964 48.1284 125.263 48.04 125.563 47.9584L125.991 47.8428L128.235 51.5012C129.452 51.3312 130.438 51.3312 131.662 51.5012L133.906 47.8428L134.335 47.9584C135.783 48.346 137.177 48.924 138.476 49.6788L138.863 49.9032L137.864 54.0716C138.775 54.772 139.584 55.5811 140.285 56.4923L144.453 55.4927L144.677 55.8803C145.432 57.1859 146.01 58.5799 146.398 60.0283L146.513 60.4567L142.855 62.7007C142.937 63.3127 142.977 63.8771 142.977 64.4143C142.977 64.9515 142.937 65.5159 142.855 66.1279L146.513 68.3719L146.398 68.8003C146.01 70.2487 145.432 71.6427 144.677 72.9483L144.453 73.3359V73.3291ZM129.779 70.2419C126.739 70.1535 124.209 67.6239 124.121 64.5843C124.033 61.5243 126.324 58.9675 129.275 58.6207C129.629 58.5799 129.949 58.8587 129.949 59.2191C129.949 59.5183 129.724 59.7767 129.425 59.8107C126.821 60.1031 124.862 62.5715 125.406 65.3459C125.76 67.1479 127.215 68.6031 129.017 68.9567C131.975 69.5347 134.579 67.2703 134.579 64.4143C134.579 63.4555 134.287 62.5307 133.743 61.7555C133.573 61.5107 133.621 61.1775 133.845 60.9803C134.117 60.7423 134.532 60.7899 134.736 61.0891C135.416 62.0615 135.776 63.2243 135.776 64.4211C135.776 67.6919 133.07 70.3439 129.779 70.2487V70.2419Z" fill="#F0F0F0"/>
<path d="M91.6507 130.755L90.2023 128.395C89.4203 128.504 88.7743 128.504 87.9923 128.395L86.5439 130.755L86.2651 130.68C85.3335 130.429 84.4291 130.055 83.5859 129.572L83.3343 129.429L83.9463 126.865C83.9939 126.655 84.2047 126.532 84.4155 126.58C84.6263 126.627 84.7487 126.838 84.7011 127.049L84.2183 129.048C84.8439 129.388 85.5035 129.66 86.1835 129.864L87.5979 127.559L87.8563 127.6C88.6791 127.736 89.5155 127.736 90.3315 127.6L90.5899 127.559L92.0043 129.864C92.6843 129.66 93.3439 129.388 93.9695 129.048L93.3371 126.417L93.5479 126.267C94.1259 125.852 94.6359 125.369 95.0711 124.812C95.2003 124.649 95.4315 124.608 95.6015 124.73C95.7783 124.859 95.8191 125.111 95.6831 125.281C95.2479 125.825 94.7515 126.315 94.2007 126.736L94.8467 129.429L94.5951 129.572C93.7519 130.061 92.8543 130.435 91.9159 130.68L91.6371 130.755H91.6507ZM82.7699 125.601C82.6475 125.465 82.5319 125.315 82.4163 125.172L79.7235 125.818L79.5807 125.567C79.0911 124.723 78.7171 123.826 78.4723 122.887L78.3975 122.609L80.7571 121.16C80.7027 120.766 80.6755 120.405 80.6755 120.052C80.6755 119.698 80.7027 119.338 80.7571 118.943L78.3975 117.495L78.4723 117.216C78.7239 116.285 79.0979 115.38 79.5807 114.537L79.7235 114.285L82.4163 114.931C82.8651 114.34 83.3955 113.816 83.9803 113.367L83.4907 111.327C83.4431 111.123 83.5655 110.913 83.7763 110.865C83.9803 110.817 84.1911 110.94 84.2387 111.151L84.8439 113.687L84.6331 113.843C83.9599 114.326 83.3683 114.918 82.8787 115.598L82.7291 115.809L80.0975 115.176C79.7575 115.802 79.4855 116.461 79.2815 117.141L81.5867 118.556L81.5459 118.814C81.4711 119.27 81.4371 119.671 81.4371 120.052C81.4371 120.433 81.4711 120.841 81.5459 121.289L81.5867 121.548L79.2815 122.962C79.4855 123.642 79.7575 124.302 80.0975 124.927L82.7291 124.295L82.8787 124.506C83.0215 124.703 83.1779 124.9 83.3343 125.084C83.4703 125.24 83.4635 125.465 83.3207 125.607L83.3071 125.621C83.1507 125.771 82.9059 125.757 82.7631 125.594L82.7699 125.601ZM98.4711 125.818L97.4783 125.58C97.2675 125.533 97.1451 125.322 97.1927 125.111C97.2403 124.9 97.4511 124.778 97.6619 124.825L98.0903 124.927C98.4303 124.302 98.7023 123.642 98.9063 122.962L96.6011 121.548L96.6419 121.289C96.7167 120.834 96.7507 120.433 96.7507 120.052C96.7507 119.671 96.7167 119.263 96.6419 118.814L96.6011 118.556L98.9063 117.141C98.7023 116.461 98.4303 115.802 98.0903 115.176L95.4587 115.809L95.3091 115.598C94.8263 114.925 94.2347 114.333 93.5547 113.843L93.3439 113.687L93.9763 111.055C93.3507 110.715 92.6911 110.443 92.0111 110.239L90.5967 112.545L90.3383 112.504C89.5155 112.368 88.6791 112.368 87.8563 112.504L87.5979 112.545L86.1835 110.239C86.0951 110.267 86.0067 110.294 85.9183 110.321C85.7211 110.382 85.5103 110.28 85.4423 110.083C85.3675 109.879 85.4763 109.648 85.6803 109.587C85.8707 109.525 86.0679 109.464 86.2583 109.417L86.5371 109.342L87.9855 111.701C88.7743 111.593 89.4067 111.593 90.1955 111.701L91.6439 109.342L91.9227 109.417C92.8543 109.668 93.7587 110.042 94.6019 110.525L94.8535 110.668L94.2075 113.361C94.7991 113.809 95.3227 114.34 95.7715 114.925L98.4643 114.279L98.6071 114.53C99.0967 115.373 99.4707 116.271 99.7155 117.209L99.7903 117.488L97.4307 118.937C97.4851 119.331 97.5123 119.691 97.5123 120.045C97.5123 120.399 97.4851 120.759 97.4307 121.153L99.7903 122.602L99.7155 122.881C99.4639 123.812 99.0899 124.717 98.6071 125.56L98.4643 125.811L98.4711 125.818ZM88.9919 123.826C87.0267 123.771 85.3947 122.133 85.3335 120.174C85.2791 118.195 86.7547 116.543 88.6655 116.325C88.8967 116.298 89.1007 116.482 89.1007 116.713C89.1007 116.91 88.9579 117.073 88.7607 117.094C87.0811 117.284 85.8163 118.875 86.1631 120.671C86.3943 121.833 87.3327 122.772 88.4955 123.003C90.4063 123.377 92.0859 121.915 92.0859 120.072C92.0859 119.453 91.8955 118.855 91.5419 118.352C91.4331 118.195 91.4603 117.978 91.6031 117.849C91.7799 117.692 92.0451 117.726 92.1811 117.917C92.6163 118.542 92.8543 119.297 92.8543 120.065C92.8543 122.18 91.1067 123.887 88.9783 123.833L88.9919 123.826Z" fill="#E6E6E6"/>
<path d="M188 265C260.816 265 319.845 261.554 319.845 257.303C319.845 253.051 260.816 249.605 188 249.605C115.184 249.605 56.1548 253.051 56.1548 257.303C56.1548 261.554 115.184 265 188 265Z" fill="#F5F5F5"/>
<path d="M265.146 73.7915H243.005L227.345 252.801H249.486C255.782 252.801 261.352 247.681 261.902 241.384L275.564 85.2155C276.114 78.9187 271.443 73.7983 265.146 73.7983V73.7915Z" fill="#EBA25D"/>
<path d="M260.631 73.7915H185.695C179.398 73.7915 173.829 78.9119 173.278 85.2087L159.617 241.377C159.066 247.674 163.738 252.794 170.034 252.794H244.97C251.267 252.794 256.836 247.674 257.387 241.377L271.048 85.2087C271.599 78.9119 266.928 73.7915 260.631 73.7915Z" fill="#F5D896"/>
<path opacity="0.4" d="M260.311 77.45H240.557C239.394 77.45 238.3 78.2115 237.864 79.3335C236.266 83.4611 232.22 86.2899 227.916 86.2899H216.234C211.922 86.2899 208.373 83.4611 207.502 79.3335C207.264 78.2183 206.306 77.45 205.143 77.45H185.389C181.105 77.45 177.324 80.9247 176.95 85.2087L163.289 241.377C162.915 245.661 166.084 249.136 170.368 249.136H245.304C249.588 249.136 253.368 245.661 253.742 241.377L267.404 85.2087C267.778 80.9247 264.609 77.45 260.325 77.45H260.311Z" fill="white"/>
<path d="M241.639 162.286H189.197C187.64 162.286 186.491 161.028 186.627 159.471L186.892 156.472C187.028 154.915 188.401 153.657 189.952 153.657H242.393C243.951 153.657 245.1 154.915 244.964 156.472L244.699 159.471C244.563 161.028 243.189 162.286 241.639 162.286Z" fill="white"/>
<path d="M240.51 175.234H188.068C186.511 175.234 185.362 173.976 185.498 172.418L185.763 169.42C185.899 167.862 187.273 166.604 188.823 166.604H241.265C242.822 166.604 243.971 167.862 243.835 169.42L243.57 172.418C243.434 173.976 242.06 175.234 240.51 175.234Z" fill="white"/>
<path opacity="0.1" d="M225.706 80.3807C225.556 82.1079 224.033 83.5019 222.313 83.5019C220.592 83.5019 219.314 82.1011 219.464 80.3807C219.613 78.6535 221.136 77.2595 222.857 77.2595C224.577 77.2595 225.856 78.6603 225.706 80.3807Z" fill="black"/>
<path opacity="0.1" d="M224.292 80.3806C224.21 81.3258 223.381 82.0874 222.435 82.0874C221.49 82.0874 220.797 81.3258 220.878 80.3806C220.96 79.4354 221.789 78.6738 222.734 78.6738C223.68 78.6738 224.373 79.4354 224.292 80.3806Z" fill="black"/>
<g opacity="0.8">
<path d="M251.084 85.5825C250.58 85.5825 250.206 85.1745 250.247 84.6645L250.397 82.9917C250.444 82.4885 250.886 82.0737 251.39 82.0737C251.893 82.0737 252.267 82.4817 252.226 82.9917L252.076 84.6645C252.029 85.1677 251.587 85.5825 251.084 85.5825Z" fill="white"/>
<path d="M258.4 85.5826C257.897 85.5826 257.523 85.1746 257.564 84.6646L257.904 80.741C257.945 80.2378 258.394 79.823 258.897 79.823C259.4 79.823 259.774 80.231 259.733 80.741L259.393 84.6646C259.352 85.1678 258.904 85.5826 258.4 85.5826Z" fill="white"/>
<path d="M254.742 85.5827C254.239 85.5827 253.865 85.1747 253.905 84.6647L254.15 81.8699C254.198 81.3667 254.64 80.9519 255.143 80.9519C255.646 80.9519 256.02 81.3599 255.979 81.8699L255.735 84.6647C255.694 85.1679 255.245 85.5827 254.742 85.5827Z" fill="white"/>
</g>
<g opacity="0.8">
<path d="M188.435 85.5826H183.838C183.553 85.5826 183.342 85.3514 183.369 85.0658L183.587 82.5974C183.614 82.3118 183.865 82.0806 184.151 82.0806H188.748C189.033 82.0806 189.244 82.3118 189.217 82.5974L188.999 85.0658C188.972 85.3514 188.721 85.5826 188.435 85.5826Z" fill="white"/>
<path d="M190.563 84.9161C190.278 84.9161 190.067 84.6849 190.094 84.3993L190.196 83.2705C190.223 82.9849 190.475 82.7537 190.761 82.7537C191.046 82.7537 191.257 82.9849 191.23 83.2705L191.128 84.3993C191.101 84.6849 190.849 84.9161 190.563 84.9161Z" fill="white"/>
</g>
<path d="M232.998 142.551C242.149 133.791 243.061 119.894 235.037 111.512C227.012 103.129 213.089 103.434 203.938 112.194C194.788 120.954 193.875 134.85 201.9 143.233C209.924 151.616 223.848 151.31 232.998 142.551Z" fill="white"/>
<path d="M218.546 126.532C212.772 126.532 207.904 128.729 207.489 133.495L207.026 138.786H227.923L228.385 133.495C228.8 128.729 224.319 126.532 218.546 126.532Z" fill="#F5D896"/>
<path d="M218.736 124.349C221.415 124.349 222.646 122.18 222.884 119.501C223.115 116.822 222.265 114.653 219.586 114.653C216.907 114.653 215.676 116.822 215.438 119.501C215.207 122.18 216.057 124.349 218.736 124.349Z" fill="#F5D896"/>
<path d="M239.245 157.812C237.817 157.812 236.62 158.356 236.511 159.532L236.396 160.838H241.557L241.672 159.532C241.774 158.356 240.666 157.812 239.245 157.812Z" fill="#F5D896"/>
<path d="M239.292 157.275C239.952 157.275 240.258 156.738 240.319 156.078C240.38 155.419 240.163 154.881 239.503 154.881C238.843 154.881 238.537 155.419 238.476 156.078C238.415 156.738 238.633 157.275 239.292 157.275Z" fill="#F5D896"/>
<path d="M223.353 188.181H202.947C200.56 188.181 198.798 186.249 199.009 183.863C199.22 181.476 201.321 179.545 203.701 179.545H224.108C226.495 179.545 228.256 181.476 228.045 183.863C227.835 186.249 225.733 188.181 223.353 188.181Z" fill="#F5D896"/>
<path d="M220.892 236.304H199.05C196.534 236.304 194.671 234.264 194.888 231.741L196.282 215.809C196.5 213.293 198.724 211.246 201.24 211.246H223.081C225.597 211.246 227.46 213.286 227.243 215.809L225.849 231.741C225.631 234.257 223.408 236.304 220.892 236.304Z" fill="#F5D896"/>
<g opacity="0.6">
<path d="M214.16 219.841C214.289 218.325 213.174 217.094 211.657 217.094C210.141 217.094 208.808 218.325 208.672 219.841C208.591 220.746 208.965 221.535 209.597 222.038L209.114 227.525C209.033 228.423 209.699 229.157 210.603 229.157C211.508 229.157 212.297 228.43 212.378 227.525L212.861 222.038C213.575 221.535 214.085 220.746 214.167 219.841H214.16Z" fill="white"/>
</g>
<path d="M223.278 214.571H220.463L221.15 206.69C221.565 201.957 218.049 198.102 213.31 198.102C208.57 198.102 204.381 201.957 203.966 206.69L203.28 214.571H200.464L201.151 206.69C201.702 200.4 207.264 195.287 213.554 195.287C219.844 195.287 224.509 200.4 223.958 206.69L223.272 214.571H223.278Z" fill="#F5D896"/>
<path d="M239.592 169.882L239.66 169.127C239.728 168.352 239.156 167.726 238.381 167.726C237.606 167.726 236.926 168.352 236.858 169.127L236.79 169.882C236.484 169.882 236.212 170.134 236.185 170.44L236.008 172.452C235.981 172.758 236.212 173.01 236.518 173.01H239.32C239.626 173.01 239.898 172.758 239.925 172.452L240.102 170.44C240.129 170.134 239.898 169.882 239.592 169.882ZM238.347 168.073C238.932 168.073 239.36 168.549 239.313 169.127L239.245 169.882H237.137L237.205 169.127C237.252 168.542 237.769 168.073 238.354 168.073H238.347Z" fill="#F5D896"/>
<path d="M197.418 170.691L196.439 170.487C196.323 170.46 196.262 170.344 196.31 170.229L196.718 169.263C196.806 169.059 196.555 168.903 196.398 169.066L195.657 169.828C195.569 169.916 195.426 169.916 195.358 169.828L194.753 169.066C194.623 168.903 194.345 169.052 194.399 169.263L194.637 170.229C194.664 170.344 194.583 170.467 194.467 170.487L193.454 170.691C193.236 170.732 193.209 171.038 193.42 171.086L194.399 171.29C194.515 171.317 194.576 171.432 194.528 171.548L194.12 172.514C194.032 172.718 194.283 172.874 194.44 172.711L195.181 171.949C195.269 171.861 195.412 171.861 195.48 171.949L196.085 172.711C196.215 172.874 196.493 172.724 196.439 172.514L196.201 171.548C196.174 171.432 196.255 171.31 196.371 171.29L197.384 171.086C197.602 171.045 197.629 170.739 197.418 170.691Z" fill="black"/>
<path d="M203.851 170.691L202.872 170.487C202.756 170.46 202.695 170.344 202.742 170.229L203.15 169.263C203.239 169.059 202.987 168.903 202.831 169.066L202.09 169.828C202.001 169.916 201.858 169.916 201.79 169.828L201.185 169.066C201.056 168.903 200.777 169.052 200.832 169.263L201.07 170.229C201.097 170.344 201.015 170.467 200.9 170.487L199.886 170.691C199.669 170.732 199.642 171.038 199.852 171.086L200.832 171.29C200.947 171.317 201.008 171.432 200.961 171.548L200.553 172.514C200.464 172.718 200.716 172.874 200.872 172.711L201.614 171.949C201.702 171.861 201.845 171.861 201.913 171.949L202.518 172.711C202.647 172.874 202.926 172.724 202.872 172.514L202.634 171.548C202.606 171.432 202.688 171.31 202.804 171.29L203.817 171.086C204.034 171.045 204.062 170.739 203.851 170.691Z" fill="black"/>
<path d="M210.284 170.691L209.305 170.487C209.189 170.46 209.128 170.344 209.176 170.229L209.584 169.263C209.672 169.059 209.42 168.903 209.264 169.066L208.523 169.828C208.434 169.916 208.292 169.916 208.224 169.828L207.618 169.066C207.489 168.903 207.21 169.052 207.265 169.263L207.503 170.229C207.53 170.344 207.448 170.467 207.333 170.487L206.32 170.691C206.102 170.732 206.075 171.038 206.286 171.086L207.265 171.29C207.38 171.317 207.442 171.432 207.394 171.548L206.986 172.514C206.898 172.718 207.149 172.874 207.306 172.711L208.047 171.949C208.135 171.861 208.278 171.861 208.346 171.949L208.951 172.711C209.08 172.874 209.359 172.724 209.305 172.514L209.067 171.548C209.04 171.432 209.121 171.31 209.237 171.29L210.25 171.086C210.468 171.045 210.495 170.739 210.284 170.691Z" fill="black"/>
<path d="M216.723 170.691L215.744 170.487C215.629 170.46 215.567 170.344 215.615 170.229L216.023 169.263C216.111 169.059 215.86 168.903 215.703 169.066L214.962 169.828C214.874 169.916 214.731 169.916 214.663 169.828L214.058 169.066C213.929 168.903 213.65 169.052 213.704 169.263L213.942 170.229C213.969 170.344 213.888 170.467 213.772 170.487L212.759 170.691C212.541 170.732 212.514 171.038 212.725 171.086L213.704 171.29C213.82 171.317 213.881 171.432 213.833 171.548L213.425 172.514C213.337 172.718 213.589 172.874 213.745 172.711L214.486 171.949C214.575 171.861 214.717 171.861 214.785 171.949L215.391 172.711C215.52 172.874 215.799 172.724 215.744 172.514L215.506 171.548C215.479 171.432 215.561 171.31 215.676 171.29L216.689 171.086C216.907 171.045 216.934 170.739 216.723 170.691Z" fill="black"/>
<path d="M223.156 170.691L222.177 170.487C222.061 170.46 222 170.344 222.048 170.229L222.456 169.263C222.544 169.059 222.292 168.903 222.136 169.066L221.395 169.828C221.306 169.916 221.164 169.916 221.096 169.828L220.49 169.066C220.361 168.903 220.082 169.052 220.137 169.263L220.375 170.229C220.402 170.344 220.32 170.467 220.205 170.487L219.192 170.691C218.974 170.732 218.947 171.038 219.158 171.086L220.137 171.29C220.252 171.317 220.314 171.432 220.266 171.548L219.858 172.514C219.77 172.718 220.021 172.874 220.178 172.711L220.919 171.949C221.007 171.861 221.15 171.861 221.218 171.949L221.823 172.711C221.952 172.874 222.231 172.724 222.177 172.514L221.939 171.548C221.912 171.432 221.993 171.31 222.109 171.29L223.122 171.086C223.34 171.045 223.367 170.739 223.156 170.691Z" fill="black"/>
<path d="M229.589 170.691L228.61 170.487C228.494 170.46 228.433 170.344 228.481 170.229L228.889 169.263C228.977 169.059 228.726 168.903 228.569 169.066L227.828 169.828C227.74 169.916 227.597 169.916 227.529 169.828L226.924 169.066C226.794 168.903 226.516 169.052 226.57 169.263L226.808 170.229C226.835 170.344 226.754 170.467 226.638 170.487L225.625 170.691C225.407 170.732 225.38 171.038 225.591 171.086L226.57 171.29C226.686 171.317 226.747 171.432 226.699 171.548L226.291 172.514C226.203 172.718 226.454 172.874 226.611 172.711L227.352 171.949C227.44 171.861 227.583 171.861 227.651 171.949L228.256 172.711C228.386 172.874 228.664 172.724 228.61 172.514L228.372 171.548C228.345 171.432 228.426 171.31 228.542 171.29L229.555 171.086C229.773 171.045 229.8 170.739 229.589 170.691Z" fill="black"/>
<path d="M214.078 156.608H201.994C201.246 156.608 200.58 157.22 200.519 157.968C200.451 158.716 201.008 159.328 201.756 159.328H213.84C214.588 159.328 215.254 158.716 215.316 157.968C215.384 157.22 214.826 156.608 214.078 156.608Z" fill="black"/>
<path d="M226.345 156.608H219.334C218.586 156.608 217.92 157.22 217.859 157.968C217.791 158.716 218.348 159.328 219.096 159.328H226.107C226.855 159.328 227.521 158.716 227.583 157.968C227.651 157.22 227.093 156.608 226.345 156.608Z" fill="black"/>
<path d="M235.6 218.25C231.044 220.073 227.053 222.725 224.319 225.737C222.714 224.37 220.436 223.425 217.709 222.99L217.39 222.942L217.247 224.547L217.424 224.615C220.117 225.635 222.313 227.444 223.768 229.844L223.999 230.218L224.251 229.817C227.053 225.329 231.139 221.576 235.757 219.236L235.913 219.155L236.008 218.087L235.607 218.25H235.6Z" fill="black"/>
<path opacity="0.2" d="M174.835 84.3655C173.985 85.8615 173.428 87.5275 173.271 89.2955L163.146 205.045H194.48L200.777 180.912L198.703 156.778L205 132.645L202.926 108.512L209.223 84.3791H174.842L174.835 84.3655Z" fill="black"/>
<path d="M200.206 101.699L206.503 77.5654H127.262L120.972 101.699L123.04 125.838L116.75 149.972L118.817 174.105L112.527 198.245H191.76L198.057 174.105L195.983 149.972L202.28 125.838L200.206 101.699Z" fill="#F5D896"/>
<path opacity="0.7" d="M200.206 101.699L206.503 77.5654H127.262L120.972 101.699L123.04 125.838L116.75 149.972L118.817 174.105L112.527 198.245H191.76L198.057 174.105L195.983 149.972L202.28 125.838L200.206 101.699Z" fill="white"/>
<path opacity="0.5" d="M200.206 101.699H120.973L127.263 77.5654H206.503L200.206 101.699Z" fill="white"/>
<path opacity="0.5" d="M195.983 149.971H116.75L123.04 125.838H202.28L195.983 149.971Z" fill="white"/>
<path opacity="0.5" d="M191.76 198.245H112.527L118.817 174.105H198.057L191.76 198.245Z" fill="white"/>
<path opacity="0.2" d="M189.605 111.79C188.925 112.001 188.055 112.13 187.103 112.13C185.702 112.13 184.478 111.851 183.777 111.436C183.587 111.321 183.376 111.266 183.165 111.266C182.968 111.266 182.778 111.321 182.594 111.423C182.581 111.429 182.567 111.429 182.553 111.443C182.553 111.443 182.54 111.45 182.526 111.457C182.268 111.606 181.941 111.742 181.561 111.844C180.908 112.028 180.099 112.137 179.228 112.137C178.99 112.137 178.759 112.13 178.535 112.116C177.855 112.069 177.236 111.96 176.726 111.797C176.637 111.769 176.549 111.749 176.461 111.749C175.842 111.708 175.291 112.184 175.291 112.837V113.571H144.494C142.107 113.571 140.176 115.503 140.176 117.889V122.241C140.176 124.628 142.107 126.559 144.494 126.559H179.534C179.609 126.559 179.684 126.552 179.765 126.546C180.146 126.858 180.534 127.171 180.955 127.484C181.452 127.865 181.982 128.246 182.533 128.647C182.914 128.926 183.444 128.926 183.825 128.647C188.231 125.451 191.06 123.248 191.06 117.189V112.837C191.06 112.089 190.333 111.579 189.625 111.803L189.605 111.79Z" fill="black"/>
<path d="M178.847 111.164H143.814C141.429 111.164 139.496 113.097 139.496 115.482V119.827C139.496 122.212 141.429 124.145 143.814 124.145H178.847C181.232 124.145 183.165 122.212 183.165 119.827V115.482C183.165 113.097 181.232 111.164 178.847 111.164Z" fill="#F5D896"/>
<path d="M186.429 109.729C185.028 109.729 183.804 109.451 183.104 109.036C182.723 108.805 182.261 108.805 181.88 109.036C181.18 109.451 179.949 109.729 178.555 109.729C177.603 109.729 176.732 109.6 176.052 109.389C175.338 109.165 174.618 109.682 174.618 110.423V114.775C174.618 120.834 177.446 123.037 181.853 126.233C182.234 126.512 182.764 126.512 183.145 126.233C187.551 123.037 190.38 120.834 190.38 114.775V110.423C190.38 109.675 189.652 109.165 188.945 109.389C188.265 109.6 187.395 109.729 186.443 109.729H186.429Z" fill="#F5D896"/>
<path opacity="0.3" d="M186.429 109.729C185.028 109.729 183.804 109.451 183.104 109.036C182.723 108.805 182.261 108.805 181.88 109.036C181.18 109.451 179.949 109.729 178.555 109.729C177.603 109.729 176.732 109.6 176.052 109.389C175.338 109.165 174.618 109.682 174.618 110.423V114.775C174.618 120.834 177.446 123.037 181.853 126.233C182.234 126.512 182.764 126.512 183.145 126.233C187.551 123.037 190.38 120.834 190.38 114.775V110.423C190.38 109.675 189.652 109.165 188.945 109.389C188.265 109.6 187.395 109.729 186.443 109.729H186.429Z" fill="white"/>
<path opacity="0.2" d="M181.88 109.036C181.18 109.451 179.949 109.729 178.555 109.729C177.603 109.729 176.732 109.6 176.052 109.389C175.338 109.165 174.618 109.682 174.618 110.423V114.775C174.618 120.834 177.446 123.037 181.853 126.233C182.043 126.369 182.274 126.444 182.499 126.444V108.866C182.288 108.866 182.077 108.92 181.887 109.036H181.88Z" fill="white"/>
<path d="M188.809 113.592C185.96 114.768 183.526 116.488 181.928 118.44C180.812 117.556 179.282 116.944 177.487 116.665L177.276 116.631V117.672L177.399 117.712C179.201 118.372 180.724 119.542 181.805 121.099L181.975 121.344L182.118 121.078C183.675 118.175 186.11 115.74 188.966 114.224L189.061 114.17V113.476L188.809 113.578V113.592Z" fill="black"/>
<path d="M205.102 84.3518H202.096C200.43 84.3518 199.193 82.9986 199.342 81.3326L199.608 78.3271C199.75 76.6611 201.226 75.3079 202.892 75.3079H205.898C207.564 75.3079 208.801 76.6611 208.652 78.3271L208.386 81.3326C208.244 82.9986 206.768 84.3518 205.102 84.3518Z" fill="#F5D896"/>
<path d="M206.353 78.3202L205.7 77.6062L204.055 79.1158L202.681 77.6062L201.899 78.3202L203.279 79.8298L201.641 81.3394L202.293 82.0602L203.932 80.5506L205.313 82.0602L206.088 81.3394L204.707 79.8298L206.353 78.3202Z" fill="white"/>
<path d="M137.932 110.287C139.673 112.184 141.339 114.142 142.984 116.128C144.63 118.107 146.235 120.12 147.819 122.153C147.887 122.241 147.86 122.207 147.88 122.234C147.887 122.248 147.887 122.268 147.901 122.275C147.921 122.296 147.928 122.33 147.948 122.343C147.982 122.391 148.023 122.432 148.071 122.479C148.166 122.568 148.302 122.629 148.445 122.656C148.519 122.67 148.594 122.676 148.676 122.67C148.717 122.67 148.757 122.663 148.798 122.663C148.819 122.663 148.839 122.649 148.859 122.649C148.893 122.636 148.873 122.663 148.968 122.608L150.668 121.684C152.953 120.473 155.258 119.29 157.638 118.229L159.631 120.698C157.713 122.466 155.714 124.669 153.694 126.287L152.171 127.484C152.13 127.518 151.967 127.627 151.865 127.695C151.749 127.77 151.634 127.851 151.511 127.919C151.267 128.055 151.015 128.191 150.75 128.293C150.226 128.518 149.669 128.66 149.104 128.749C147.969 128.919 146.792 128.803 145.691 128.409C145.14 128.212 144.609 127.946 144.127 127.613C143.882 127.45 143.651 127.266 143.426 127.076C143.311 126.981 143.209 126.879 143.107 126.777L142.835 126.505C141.033 124.662 139.258 122.799 137.517 120.895C135.776 118.998 134.056 117.08 132.41 115.101L137.925 110.287H137.932Z" fill="#B55B52"/>
<path d="M156.713 119.732L158.298 114.639L162.473 116.72C162.473 116.72 161.868 120.432 158.828 121.078L156.713 119.732Z" fill="#B55B52"/>
<path d="M159.971 113.231L163.738 114.265L162.473 116.72L158.298 114.639L159.971 113.231Z" fill="#B55B52"/>
<path d="M115.981 111.674C115.526 113.837 114.975 115.979 114.39 118.107C113.812 120.242 113.18 122.364 112.52 124.472L112.275 125.267L112.153 125.662C112.126 125.75 112.112 125.771 112.085 125.825C112.01 126.022 111.962 126.24 111.956 126.471C111.942 126.927 112.051 127.43 112.35 127.865C112.377 127.933 112.608 128.185 112.792 128.382L113.356 128.994L114.472 130.238C115.206 131.081 115.934 131.925 116.627 132.809L114.261 135.549C113.282 134.991 112.343 134.393 111.405 133.788L110.011 132.87L109.324 132.401C109.093 132.237 108.902 132.129 108.528 131.816C107.236 130.721 106.271 129.164 105.917 127.43C105.734 126.566 105.693 125.669 105.795 124.778C105.822 124.567 105.863 124.315 105.897 124.132L105.972 123.724L106.114 122.908C106.495 120.725 106.903 118.549 107.359 116.393C107.814 114.231 108.297 112.075 108.882 109.94L115.995 111.661L115.981 111.674Z" fill="#B55B52"/>
<path d="M114.309 132.625L117.117 131.19L118.355 135.957C118.355 135.957 116.104 136.821 114.363 135.712L114.315 132.625H114.309Z" fill="#B55B52"/>
<path d="M120.986 129.667L121.115 134.039L117.981 136.093L116.893 131.285L120.986 129.667Z" fill="#B55B52"/>
<path d="M130.159 89.1934C130.227 89.5334 130.459 89.7646 130.683 89.7238C130.901 89.6762 131.03 89.3702 130.955 89.0302C130.88 88.6902 130.649 88.459 130.431 88.4998C130.214 88.5474 130.091 88.8534 130.159 89.1934Z" fill="black"/>
<path d="M130.431 89.7715C130.431 89.7715 131.594 91.5599 132.628 92.3283C132.145 93.0083 131.077 92.9607 131.077 92.9607L130.431 89.7783V89.7715Z" fill="#A02724"/>
<path d="M128.548 87.5683C128.5 87.5683 128.453 87.5479 128.412 87.5139C128.33 87.4391 128.323 87.3099 128.398 87.2283C129.16 86.4055 130.078 86.5551 130.119 86.5619C130.227 86.5823 130.302 86.6843 130.282 86.7931C130.261 86.9019 130.159 86.9767 130.051 86.9563C130.051 86.9563 129.303 86.8475 128.697 87.5003C128.657 87.5411 128.602 87.5683 128.548 87.5683Z" fill="black"/>
<path d="M120.354 93.9331C121.102 97.0543 121.85 102.766 119.177 104.847C119.177 104.847 120.224 108.009 127.337 108.009C135.157 108.009 131.077 105.969 131.077 105.969C126.807 105.139 126.922 101.433 127.664 99.0058L120.36 93.9263L120.354 93.9331Z" fill="#B55B52"/>
<path d="M118.341 105.425C117.872 104.561 117.362 103.569 118.423 103.256C119.592 102.916 127.093 102.283 129.296 102.923C128.616 104.126 129.765 105.609 129.765 105.609L118.341 105.425Z" fill="black"/>
<path d="M124.556 251.339H129.459L129.949 241.465H125.039L124.556 251.339Z" fill="#B55B52"/>
<path d="M93.4189 249.979L98.3897 250.237L101.409 240.513L96.4381 240.248L93.4189 249.979Z" fill="#B55B52"/>
<path d="M98.2402 249.843L93.5618 248.83C93.3918 248.796 93.215 248.877 93.147 249.04L91.5218 252.563C91.3518 252.93 91.5762 253.358 91.9706 253.433C93.6094 253.76 94.4254 253.834 96.4858 254.283C97.7506 254.555 100.613 255.256 102.361 255.63C104.075 255.997 104.714 254.331 104.034 254.018C100.974 252.617 99.6954 251.393 98.8726 250.244C98.723 250.04 98.4986 249.897 98.2538 249.843H98.2402Z" fill="black"/>
<path d="M129.2 250.843H124.542C124.366 250.843 124.216 250.965 124.182 251.135L123.339 254.923C123.25 255.317 123.55 255.691 123.951 255.684C125.63 255.657 128.058 255.555 130.166 255.555C132.634 255.555 134.77 255.691 137.66 255.691C139.407 255.691 139.897 253.923 139.162 253.76C135.824 253.032 133.104 252.951 130.22 251.176C129.908 250.985 129.561 250.843 129.194 250.843H129.2Z" fill="black"/>
<path d="M110.29 106.289C106.584 108.05 105.584 118.719 105.584 118.719L114.744 122.949C114.744 122.949 117.015 119.596 117.192 114.333C117.375 108.818 114.077 104.48 110.296 106.282L110.29 106.289Z" fill="#F5D896"/>
<path opacity="0.4" d="M115.261 112.871C113.608 115.434 113.765 119.412 114.336 122.765L114.744 122.955C114.744 122.955 117.022 119.603 117.192 114.34C117.199 114.013 117.199 113.687 117.192 113.367L115.261 112.871Z" fill="black"/>
<path d="M135.851 106.03C135.851 106.03 140.386 111.157 136.102 142.879H113.295C113.139 139.377 115.335 122.303 111.962 105.806C111.962 105.806 115.872 105.024 119.599 104.84C122.516 104.697 126.732 104.609 129.296 104.84C132.675 105.146 135.851 106.023 135.851 106.023V106.03Z" fill="#F5D896"/>
<path opacity="0.2" d="M137.843 115.727L137.755 115.652L133.219 113.231C132.757 120.215 135.878 124.594 137.735 126.505C137.993 122.031 137.986 118.501 137.837 115.727H137.843Z" fill="black"/>
<path opacity="0.2" d="M129.949 241.465L129.697 246.552H124.788L125.039 241.465H129.949Z" fill="black"/>
<path opacity="0.2" d="M96.4381 240.248L101.409 240.513L99.8517 245.525L94.8809 245.266L96.4381 240.248Z" fill="black"/>
<path d="M118.776 90.7643C119.871 94.8511 120.306 97.2991 122.829 98.999C126.623 101.556 131.349 98.6182 131.492 94.2867C131.628 90.3903 129.812 84.3587 125.426 83.5359C121.108 82.7267 117.681 86.6775 118.776 90.7643Z" fill="#B55B52"/>
<path d="M128.018 142.886C128.018 142.886 123.176 175.471 120.524 187.677C117.614 201.046 102.014 245.273 102.014 245.273L94.3848 243.621C94.3848 243.621 104.163 207.581 106.604 188.888C107.556 181.598 108.706 169.841 110.161 160.036C111.568 150.543 113.302 142.886 113.302 142.886H128.018Z" fill="black"/>
<path d="M103.844 242.716L102.422 245.477L93.834 243.621L94.5548 241.037L103.844 242.716Z" fill="#F5D896"/>
<path opacity="0.6" d="M103.844 242.716L102.422 245.477L93.834 243.621L94.5548 241.037L103.844 242.716Z" fill="white"/>
<path opacity="0.6" d="M124.957 154.494C119.361 155.588 119.953 176.458 120.626 187.188C122.237 179.599 124.604 165.006 126.215 154.643C125.841 154.46 125.427 154.398 124.957 154.494Z" fill="black"/>
<path d="M136.102 142.886C136.102 142.886 138.38 174.764 137.911 187.766C137.428 201.291 131.016 245.572 131.016 245.572H123.794C123.794 245.572 123.529 202.08 123.21 188.799C122.856 174.322 121.108 142.886 121.108 142.886H136.096H136.102Z" fill="black"/>
<path d="M132.41 242.689L132.002 245.688H123.217L122.979 243.009L132.41 242.689Z" fill="#F5D896"/>
<path opacity="0.6" d="M132.41 242.689L132.002 245.688H123.217L122.979 243.009L132.41 242.689Z" fill="white"/>
<path d="M133.192 112.001C133.192 120.555 137.748 124.077 137.748 124.077L145.147 116.842C145.147 116.842 142.631 112.511 139.17 108.526C134.892 103.609 133.192 106.493 133.192 112.001Z" fill="#F5D896"/>
<path opacity="0.2" d="M131.234 95.8369C131.043 96.3605 130.554 97.2513 129.316 97.6049C127.507 98.1217 127.487 99.6517 127.487 99.6517L127.507 99.6789C129.228 99.1077 130.662 97.6865 131.234 95.8369Z" fill="black"/>
<path d="M129.316 82.6382C130.839 80.7139 128.493 80.6255 128.493 80.6255C129.105 78.3339 126.358 79.5647 126.358 79.5647C124.713 77.2935 123.781 80.0543 123.781 80.0543C122.074 78.1299 121.761 81.2715 121.761 81.2715C120.048 78.8303 119.177 82.3526 119.177 82.3526C117.6 79.8163 116.634 83.121 116.634 83.121C113.377 81.9582 114.927 85.3378 114.927 85.3378C112.146 85.4126 114.377 87.5682 114.377 87.5682C111.045 87.575 113.982 89.4858 113.982 89.4858C111.337 91.2198 114.655 91.689 114.655 91.689C112.5 95.0618 116.206 93.8106 116.206 93.8106C114.703 97.1494 118.035 95.6806 118.035 95.6806C117.817 98.9038 119.681 98.0266 120.578 97.4282C120.748 98.0742 121.075 98.7678 121.673 98.8426C122.836 98.9922 123.06 96.8026 123.06 96.8026C123.06 96.8026 124.141 97.639 125.039 97.1834C125.943 96.7278 125.603 95.5786 125.603 95.5786C125.603 95.5786 126.297 96.0954 126.929 95.599C127.317 95.2998 127.317 93.1306 126.827 92.369L128.595 91.6754C128.595 91.6754 129.908 91.4918 129.323 89.7578C128.738 88.0238 129.235 86.657 129.235 86.657C131.234 85.7186 129.595 84.5966 129.595 84.5966C131.907 83.1006 129.323 82.6246 129.323 82.6246L129.316 82.6382Z" fill="black"/>
<path d="M125.733 90.9342C126.012 92.0086 126.719 92.9266 127.453 93.4774C128.562 94.3002 129.391 93.491 129.31 92.233C129.242 91.1042 128.575 89.309 127.351 88.9758C126.148 88.6426 125.413 89.7034 125.726 90.9342H125.733Z" fill="#B55B52"/>
<g clip-path="url(#clip1_541_1261)">
<path d="M362.127 19H358.861V30H362.127V19Z" fill="#FDCB15"/>
<path d="M366 26.1268V22.8613H355V26.1268H366Z" fill="#FDCB15"/>
</g>
<g clip-path="url(#clip2_541_1261)">
<path d="M9.99978 8.97294C9.99978 9.51167 9.57207 9.94587 9.04139 9.94587C8.51072 9.94587 8.08301 9.51167 8.08301 8.97294C8.08301 8.4342 8.51072 8 9.04139 8C9.57207 8 9.99978 8.4342 9.99978 8.97294Z" fill="black"/>
<path d="M9.99978 20.407C9.99978 20.9458 9.57207 21.38 9.04139 21.38C8.51072 21.38 8.08301 20.9458 8.08301 20.407C8.08301 19.8683 8.51072 19.4341 9.04139 19.4341C9.57207 19.4341 9.99978 19.8683 9.99978 20.407Z" fill="black"/>
<path d="M9.99978 31.8489C9.99978 32.3876 9.57207 32.8218 9.04139 32.8218C8.51072 32.8218 8.08301 32.3876 8.08301 31.8489C8.08301 31.3102 8.51072 30.876 9.04139 30.876C9.57207 30.876 9.99978 31.3102 9.99978 31.8489Z" fill="black"/>
<path d="M9.99978 43.283C9.99978 43.8217 9.57207 44.2559 9.04139 44.2559C8.51072 44.2559 8.08301 43.8217 8.08301 43.283C8.08301 42.7443 8.51072 42.3101 9.04139 42.3101C9.57207 42.3101 9.99978 42.7443 9.99978 43.283Z" fill="black"/>
<path d="M9.99978 54.7171C9.99978 55.2558 9.57207 55.69 9.04139 55.69C8.51072 55.69 8.08301 55.2558 8.08301 54.7171C8.08301 54.1783 8.51072 53.7441 9.04139 53.7441C9.57207 53.7441 9.99978 54.1783 9.99978 54.7171Z" fill="black"/>
<path d="M9.99978 66.1509C9.99978 66.6896 9.57207 67.1238 9.04139 67.1238C8.51072 67.1238 8.08301 66.6896 8.08301 66.1509C8.08301 65.6122 8.51072 65.178 9.04139 65.178C9.57207 65.178 9.99978 65.6122 9.99978 66.1509Z" fill="black"/>
<path d="M9.99978 77.585C9.99978 78.1237 9.57207 78.5579 9.04139 78.5579C8.51072 78.5579 8.08301 78.1237 8.08301 77.585C8.08301 77.0463 8.51072 76.6121 9.04139 76.6121C9.57207 76.6121 9.99978 77.0463 9.99978 77.585Z" fill="black"/>
<path d="M9.99978 89.0191C9.99978 89.5578 9.57207 89.992 9.04139 89.992C8.51072 89.992 8.08301 89.5578 8.08301 89.0191C8.08301 88.4803 8.51072 88.0461 9.04139 88.0461C9.57207 88.0461 9.99978 88.4803 9.99978 89.0191Z" fill="black"/>
</g>
</g>
<defs>
<clipPath id="clip0_541_1261">
<rect width="375" height="277" fill="white"/>
</clipPath>
<clipPath id="clip1_541_1261">
<rect width="11" height="11" fill="white" transform="translate(355 19)"/>
</clipPath>
<clipPath id="clip2_541_1261">
<rect width="63" height="82" fill="white" transform="translate(-53 8)"/>
</clipPath>
</defs>
</svg>
