<svg width="24" height="24" viewBox="0 0 24 24" fill="none" xmlns="http://www.w3.org/2000/svg">
<path fill-rule="evenodd" clip-rule="evenodd" d="M6.7108 15.2202C8.14075 14.7408 10.0351 14.5962 11.9848 14.5962C13.9463 14.5962 15.8412 14.7464 17.2693 15.2321C17.9872 15.4763 18.6419 15.8231 19.1236 16.3279C19.6225 16.8509 19.9043 17.5122 19.9043 18.2938C19.9043 19.0771 19.62 19.738 19.1181 20.259C18.6341 20.7615 17.9771 21.105 17.2584 21.3461C15.8287 21.8256 13.9346 21.9705 11.9848 21.9705C10.0234 21.9705 8.12822 21.8205 6.69996 21.335C5.98189 21.0909 5.32708 20.7441 4.84528 20.2392C4.34619 19.7161 4.06433 19.0547 4.06433 18.2729C4.06433 17.4894 4.34873 16.8283 4.8507 16.3072C5.33487 15.8046 5.99202 15.4612 6.7108 15.2202Z" fill="#141414"/>
<path fill-rule="evenodd" clip-rule="evenodd" d="M6.67434 7.40851C6.675 4.47628 9.05286 2.10019 11.9848 2.10019C14.9174 2.10019 17.2944 4.47713 17.2944 7.40971C17.2944 10.3421 14.9176 12.7202 11.9848 12.7202H11.9525L11.95 12.7202C9.02721 12.7103 6.66512 10.3318 6.67434 7.40851ZM6.67434 7.40851L6.67435 7.4073L7.38863 7.40971H6.67434L6.67434 7.40851Z" fill="#141414"/>
</svg>
