<svg width="375" height="812" viewBox="0 0 375 812" fill="none" xmlns="http://www.w3.org/2000/svg">
<g clip-path="url(#clip0_542_1625)">
<rect width="375" height="812" fill="#FDF7DE"/>
<g clip-path="url(#clip1_542_1625)">
<path d="M7.21513 82.7238C7.21513 83.1245 6.89604 83.4475 6.50014 83.4475C6.10424 83.4475 5.78516 83.1245 5.78516 82.7238C5.78516 82.323 6.10424 82 6.50014 82C6.89604 82 7.21513 82.323 7.21513 82.7238Z" fill="black"/>
<path d="M14.8079 82.7238C14.8079 83.1245 14.4888 83.4475 14.0929 83.4475C13.697 83.4475 13.3779 83.1245 13.3779 82.7238C13.3779 82.323 13.697 82 14.0929 82C14.4888 82 14.8079 82.323 14.8079 82.7238Z" fill="white"/>
<path d="M21.6862 83.4475C22.0811 83.4475 22.4012 83.1235 22.4012 82.7238C22.4012 82.324 22.0811 82 21.6862 82C21.2913 82 20.9712 82.324 20.9712 82.7238C20.9712 83.1235 21.2913 83.4475 21.6862 83.4475Z" fill="black"/>
<path d="M29.9998 82.7238C29.9998 83.1245 29.6807 83.4475 29.2848 83.4475C28.8889 83.4475 28.5698 83.1245 28.5698 82.7238C28.5698 82.323 28.8889 82 29.2848 82C29.6807 82 29.9998 82.323 29.9998 82.7238Z" fill="black"/>
<path d="M7.21513 91.2296C7.21513 91.6304 6.89604 91.9534 6.50014 91.9534C6.10424 91.9534 5.78516 91.6304 5.78516 91.2296C5.78516 90.8289 6.10424 90.5059 6.50014 90.5059C6.89604 90.5059 7.21513 90.8289 7.21513 91.2296Z" fill="black"/>
<path d="M14.8079 91.2296C14.8079 91.6304 14.4888 91.9534 14.0929 91.9534C13.697 91.9534 13.3779 91.6304 13.3779 91.2296C13.3779 90.8289 13.697 90.5059 14.0929 90.5059C14.4888 90.5059 14.8079 90.8289 14.8079 91.2296Z" fill="black"/>
<path d="M21.6862 91.9534C22.0811 91.9534 22.4012 91.6294 22.4012 91.2296C22.4012 90.8299 22.0811 90.5059 21.6862 90.5059C21.2913 90.5059 20.9712 90.8299 20.9712 91.2296C20.9712 91.6294 21.2913 91.9534 21.6862 91.9534Z" fill="black"/>
<path d="M29.9998 91.2296C29.9998 91.6304 29.6807 91.9534 29.2848 91.9534C28.8889 91.9534 28.5698 91.6304 28.5698 91.2296C28.5698 90.8289 28.8889 90.5059 29.2848 90.5059C29.6807 90.5059 29.9998 90.8289 29.9998 91.2296Z" fill="black"/>
<path d="M7.21513 99.7413C7.21513 100.142 6.89604 100.465 6.50014 100.465C6.10424 100.465 5.78516 100.142 5.78516 99.7413C5.78516 99.3406 6.10424 99.0176 6.50014 99.0176C6.89604 99.0176 7.21513 99.3406 7.21513 99.7413Z" fill="black"/>
<path d="M14.8079 99.7413C14.8079 100.142 14.4888 100.465 14.0929 100.465C13.697 100.465 13.3779 100.142 13.3779 99.7413C13.3779 99.3406 13.697 99.0176 14.0929 99.0176C14.4888 99.0176 14.8079 99.3406 14.8079 99.7413Z" fill="black"/>
<path d="M22.407 99.7413C22.407 100.142 22.0879 100.465 21.692 100.465C21.2961 100.465 20.9771 100.142 20.9771 99.7413C20.9771 99.3406 21.2961 99.0176 21.692 99.0176C22.0879 99.0176 22.407 99.3406 22.407 99.7413Z" fill="black"/>
<path d="M29.9998 99.7413C29.9998 100.142 29.6807 100.465 29.2848 100.465C28.8889 100.465 28.5698 100.142 28.5698 99.7413C28.5698 99.3406 28.8889 99.0176 29.2848 99.0176C29.6807 99.0176 29.9998 99.3406 29.9998 99.7413Z" fill="black"/>
<path d="M7.21513 108.247C7.21513 108.648 6.89604 108.971 6.50014 108.971C6.10424 108.971 5.78516 108.648 5.78516 108.247C5.78516 107.846 6.10424 107.523 6.50014 107.523C6.89604 107.523 7.21513 107.846 7.21513 108.247Z" fill="black"/>
<path d="M14.8079 108.247C14.8079 108.648 14.4888 108.971 14.0929 108.971C13.697 108.971 13.3779 108.648 13.3779 108.247C13.3779 107.846 13.697 107.523 14.0929 107.523C14.4888 107.523 14.8079 107.846 14.8079 108.247Z" fill="white"/>
<path d="M21.6862 108.971C22.0811 108.971 22.4012 108.647 22.4012 108.247C22.4012 107.847 22.0811 107.523 21.6862 107.523C21.2913 107.523 20.9712 107.847 20.9712 108.247C20.9712 108.647 21.2913 108.971 21.6862 108.971Z" fill="black"/>
<path d="M29.9998 108.247C29.9998 108.648 29.6807 108.971 29.2848 108.971C28.8889 108.971 28.5698 108.648 28.5698 108.247C28.5698 107.846 28.8889 107.523 29.2848 107.523C29.6807 107.523 29.9998 107.846 29.9998 108.247Z" fill="black"/>
<path d="M7.21513 116.753C7.21513 117.154 6.89604 117.477 6.50014 117.477C6.10424 117.477 5.78516 117.154 5.78516 116.753C5.78516 116.352 6.10424 116.029 6.50014 116.029C6.89604 116.029 7.21513 116.352 7.21513 116.753Z" fill="black"/>
<path d="M14.8079 116.753C14.8079 117.154 14.4888 117.477 14.0929 117.477C13.697 117.477 13.3779 117.154 13.3779 116.753C13.3779 116.352 13.697 116.029 14.0929 116.029C14.4888 116.029 14.8079 116.352 14.8079 116.753Z" fill="black"/>
<path d="M22.407 116.753C22.407 117.154 22.0879 117.477 21.692 117.477C21.2961 117.477 20.9771 117.154 20.9771 116.753C20.9771 116.352 21.2961 116.029 21.692 116.029C22.0879 116.029 22.407 116.352 22.407 116.753Z" fill="black"/>
<path d="M29.9998 116.753C29.9998 117.154 29.6807 117.477 29.2848 117.477C28.8889 117.477 28.5698 117.154 28.5698 116.753C28.5698 116.352 28.8889 116.029 29.2848 116.029C29.6807 116.029 29.9998 116.352 29.9998 116.753Z" fill="black"/>
<path d="M7.21513 125.259C7.21513 125.659 6.89604 125.982 6.50014 125.982C6.10424 125.982 5.78516 125.659 5.78516 125.259C5.78516 124.858 6.10424 124.535 6.50014 124.535C6.89604 124.535 7.21513 124.858 7.21513 125.259Z" fill="white"/>
<path d="M14.8079 125.259C14.8079 125.659 14.4888 125.982 14.0929 125.982C13.697 125.982 13.3779 125.659 13.3779 125.259C13.3779 124.858 13.697 124.535 14.0929 124.535C14.4888 124.535 14.8079 124.858 14.8079 125.259Z" fill="black"/>
<path d="M21.6862 125.982C22.0811 125.982 22.4012 125.658 22.4012 125.259C22.4012 124.859 22.0811 124.535 21.6862 124.535C21.2913 124.535 20.9712 124.859 20.9712 125.259C20.9712 125.658 21.2913 125.982 21.6862 125.982Z" fill="black"/>
<path d="M29.9998 125.259C29.9998 125.659 29.6807 125.982 29.2848 125.982C28.8889 125.982 28.5698 125.659 28.5698 125.259C28.5698 124.858 28.8889 124.535 29.2848 124.535C29.6807 124.535 29.9998 124.858 29.9998 125.259Z" fill="black"/>
<path d="M7.21513 133.765C7.21513 134.165 6.89604 134.488 6.50014 134.488C6.10424 134.488 5.78516 134.165 5.78516 133.765C5.78516 133.364 6.10424 133.041 6.50014 133.041C6.89604 133.041 7.21513 133.364 7.21513 133.765Z" fill="black"/>
<path d="M14.8079 133.765C14.8079 134.165 14.4888 134.488 14.0929 134.488C13.697 134.488 13.3779 134.165 13.3779 133.765C13.3779 133.364 13.697 133.041 14.0929 133.041C14.4888 133.041 14.8079 133.364 14.8079 133.765Z" fill="black"/>
<path d="M21.6862 134.488C22.0811 134.488 22.4012 134.164 22.4012 133.765C22.4012 133.365 22.0811 133.041 21.6862 133.041C21.2913 133.041 20.9712 133.365 20.9712 133.765C20.9712 134.164 21.2913 134.488 21.6862 134.488Z" fill="white"/>
<path d="M29.9998 133.765C29.9998 134.165 29.6807 134.488 29.2848 134.488C28.8889 134.488 28.5698 134.165 28.5698 133.765C28.5698 133.364 28.8889 133.041 29.2848 133.041C29.6807 133.041 29.9998 133.364 29.9998 133.765Z" fill="black"/>
<path d="M7.21513 142.27C7.21513 142.671 6.89604 142.994 6.50014 142.994C6.10424 142.994 5.78516 142.671 5.78516 142.27C5.78516 141.869 6.10424 141.546 6.50014 141.546C6.89604 141.546 7.21513 141.869 7.21513 142.27Z" fill="black"/>
<path d="M14.8079 142.27C14.8079 142.671 14.4888 142.994 14.0929 142.994C13.697 142.994 13.3779 142.671 13.3779 142.27C13.3779 141.869 13.697 141.546 14.0929 141.546C14.4888 141.546 14.8079 141.869 14.8079 142.27Z" fill="black"/>
<path d="M22.407 142.27C22.407 142.671 22.0879 142.994 21.692 142.994C21.2961 142.994 20.9771 142.671 20.9771 142.27C20.9771 141.869 21.2961 141.546 21.692 141.546C22.0879 141.546 22.407 141.869 22.407 142.27Z" fill="black"/>
<path d="M29.9998 142.27C29.9998 142.671 29.6807 142.994 29.2848 142.994C28.8889 142.994 28.5698 142.671 28.5698 142.27C28.5698 141.869 28.8889 141.546 29.2848 141.546C29.6807 141.546 29.9998 141.869 29.9998 142.27Z" fill="black"/>
</g>
<g clip-path="url(#clip2_542_1625)">
<path d="M300.715 752.448C301.11 752.448 301.43 752.123 301.43 751.724C301.43 751.324 301.11 751 300.715 751C300.32 751 300 751.324 300 751.724C300 752.123 300.32 752.448 300.715 752.448Z" fill="black"/>
<path d="M308.314 752.448C308.709 752.448 309.029 752.123 309.029 751.724C309.029 751.324 308.709 751 308.314 751C307.919 751 307.599 751.324 307.599 751.724C307.599 752.123 307.919 752.448 308.314 752.448Z" fill="black"/>
<path d="M316.622 751.724C316.622 752.125 316.303 752.448 315.907 752.448C315.511 752.448 315.192 752.125 315.192 751.724C315.192 751.323 315.511 751 315.907 751C316.303 751 316.622 751.323 316.622 751.724Z" fill="black"/>
<path d="M324.215 751.724C324.215 752.125 323.896 752.448 323.5 752.448C323.104 752.448 322.785 752.125 322.785 751.724C322.785 751.323 323.104 751 323.5 751C323.896 751 324.215 751.323 324.215 751.724Z" fill="black"/>
<path d="M331.808 751.724C331.808 752.125 331.489 752.448 331.093 752.448C330.697 752.448 330.378 752.125 330.378 751.724C330.378 751.323 330.697 751 331.093 751C331.489 751 331.808 751.323 331.808 751.724Z" fill="white"/>
<path d="M338.686 752.448C339.081 752.448 339.401 752.123 339.401 751.724C339.401 751.324 339.081 751 338.686 751C338.291 751 337.971 751.324 337.971 751.724C337.971 752.123 338.291 752.448 338.686 752.448Z" fill="black"/>
<path d="M347 751.724C347 752.125 346.681 752.448 346.285 752.448C345.889 752.448 345.57 752.125 345.57 751.724C345.57 751.323 345.889 751 346.285 751C346.681 751 347 751.323 347 751.724Z" fill="black"/>
<path d="M300.715 760.953C301.11 760.953 301.43 760.629 301.43 760.23C301.43 759.83 301.11 759.506 300.715 759.506C300.32 759.506 300 759.83 300 760.23C300 760.629 300.32 760.953 300.715 760.953Z" fill="white"/>
<path d="M308.314 760.953C308.709 760.953 309.029 760.629 309.029 760.23C309.029 759.83 308.709 759.506 308.314 759.506C307.919 759.506 307.599 759.83 307.599 760.23C307.599 760.629 307.919 760.953 308.314 760.953Z" fill="black"/>
<path d="M316.622 760.23C316.622 760.63 316.303 760.953 315.907 760.953C315.511 760.953 315.192 760.63 315.192 760.23C315.192 759.829 315.511 759.506 315.907 759.506C316.303 759.506 316.622 759.829 316.622 760.23Z" fill="black"/>
<path d="M324.215 760.23C324.215 760.63 323.896 760.953 323.5 760.953C323.104 760.953 322.785 760.63 322.785 760.23C322.785 759.829 323.104 759.506 323.5 759.506C323.896 759.506 324.215 759.829 324.215 760.23Z" fill="black"/>
<path d="M331.808 760.23C331.808 760.63 331.489 760.953 331.093 760.953C330.697 760.953 330.378 760.63 330.378 760.23C330.378 759.829 330.697 759.506 331.093 759.506C331.489 759.506 331.808 759.829 331.808 760.23Z" fill="black"/>
<path d="M338.686 760.953C339.081 760.953 339.401 760.629 339.401 760.23C339.401 759.83 339.081 759.506 338.686 759.506C338.291 759.506 337.971 759.83 337.971 760.23C337.971 760.629 338.291 760.953 338.686 760.953Z" fill="black"/>
<path d="M347 760.23C347 760.63 346.681 760.953 346.285 760.953C345.889 760.953 345.57 760.63 345.57 760.23C345.57 759.829 345.889 759.506 346.285 759.506C346.681 759.506 347 759.829 347 760.23Z" fill="black"/>
<path d="M301.436 768.741C301.436 769.142 301.117 769.465 300.721 769.465C300.325 769.465 300.006 769.142 300.006 768.741C300.006 768.341 300.325 768.018 300.721 768.018C301.117 768.018 301.436 768.341 301.436 768.741Z" fill="black"/>
<path d="M309.029 768.741C309.029 769.142 308.71 769.465 308.314 769.465C307.918 769.465 307.599 769.142 307.599 768.741C307.599 768.341 307.918 768.018 308.314 768.018C308.71 768.018 309.029 768.341 309.029 768.741Z" fill="black"/>
<path d="M316.622 768.741C316.622 769.142 316.303 769.465 315.907 769.465C315.511 769.465 315.192 769.142 315.192 768.741C315.192 768.341 315.511 768.018 315.907 768.018C316.303 768.018 316.622 768.341 316.622 768.741Z" fill="white"/>
<path d="M324.215 768.741C324.215 769.142 323.896 769.465 323.5 769.465C323.104 769.465 322.785 769.142 322.785 768.741C322.785 768.341 323.104 768.018 323.5 768.018C323.896 768.018 324.215 768.341 324.215 768.741Z" fill="black"/>
<path d="M331.808 768.741C331.808 769.142 331.489 769.465 331.093 769.465C330.697 769.465 330.378 769.142 330.378 768.741C330.378 768.341 330.697 768.018 331.093 768.018C331.489 768.018 331.808 768.341 331.808 768.741Z" fill="black"/>
<path d="M339.407 768.741C339.407 769.142 339.088 769.465 338.692 769.465C338.296 769.465 337.977 769.142 337.977 768.741C337.977 768.341 338.296 768.018 338.692 768.018C339.088 768.018 339.407 768.341 339.407 768.741Z" fill="black"/>
<path d="M347 768.741C347 769.142 346.681 769.465 346.285 769.465C345.889 769.465 345.57 769.142 345.57 768.741C345.57 768.341 345.889 768.018 346.285 768.018C346.681 768.018 347 768.341 347 768.741Z" fill="black"/>
<path d="M300.715 777.971C301.11 777.971 301.43 777.647 301.43 777.247C301.43 776.847 301.11 776.523 300.715 776.523C300.32 776.523 300 776.847 300 777.247C300 777.647 300.32 777.971 300.715 777.971Z" fill="black"/>
<path d="M308.314 777.971C308.709 777.971 309.029 777.647 309.029 777.247C309.029 776.847 308.709 776.523 308.314 776.523C307.919 776.523 307.599 776.847 307.599 777.247C307.599 777.647 307.919 777.971 308.314 777.971Z" fill="black"/>
<path d="M316.622 777.247C316.622 777.648 316.303 777.971 315.907 777.971C315.511 777.971 315.192 777.648 315.192 777.247C315.192 776.846 315.511 776.523 315.907 776.523C316.303 776.523 316.622 776.846 316.622 777.247Z" fill="black"/>
<path d="M324.215 777.247C324.215 777.648 323.896 777.971 323.5 777.971C323.104 777.971 322.785 777.648 322.785 777.247C322.785 776.846 323.104 776.523 323.5 776.523C323.896 776.523 324.215 776.846 324.215 777.247Z" fill="black"/>
<path d="M331.808 777.247C331.808 777.648 331.489 777.971 331.093 777.971C330.697 777.971 330.378 777.648 330.378 777.247C330.378 776.846 330.697 776.523 331.093 776.523C331.489 776.523 331.808 776.846 331.808 777.247Z" fill="white"/>
<path d="M338.686 777.971C339.081 777.971 339.401 777.647 339.401 777.247C339.401 776.847 339.081 776.523 338.686 776.523C338.291 776.523 337.971 776.847 337.971 777.247C337.971 777.647 338.291 777.971 338.686 777.971Z" fill="black"/>
<path d="M347 777.247C347 777.648 346.681 777.971 346.285 777.971C345.889 777.971 345.57 777.648 345.57 777.247C345.57 776.846 345.889 776.523 346.285 776.523C346.681 776.523 347 776.846 347 777.247Z" fill="black"/>
<path d="M301.436 785.753C301.436 786.154 301.117 786.477 300.721 786.477C300.325 786.477 300.006 786.154 300.006 785.753C300.006 785.352 300.325 785.029 300.721 785.029C301.117 785.029 301.436 785.352 301.436 785.753Z" fill="black"/>
<path d="M309.029 785.753C309.029 786.154 308.71 786.477 308.314 786.477C307.918 786.477 307.599 786.154 307.599 785.753C307.599 785.352 307.918 785.029 308.314 785.029C308.71 785.029 309.029 785.352 309.029 785.753Z" fill="black"/>
<path d="M316.622 785.753C316.622 786.154 316.303 786.477 315.907 786.477C315.511 786.477 315.192 786.154 315.192 785.753C315.192 785.352 315.511 785.029 315.907 785.029C316.303 785.029 316.622 785.352 316.622 785.753Z" fill="black"/>
<path d="M324.215 785.753C324.215 786.154 323.896 786.477 323.5 786.477C323.104 786.477 322.785 786.154 322.785 785.753C322.785 785.352 323.104 785.029 323.5 785.029C323.896 785.029 324.215 785.352 324.215 785.753Z" fill="black"/>
<path d="M331.808 785.753C331.808 786.154 331.489 786.477 331.093 786.477C330.697 786.477 330.378 786.154 330.378 785.753C330.378 785.352 330.697 785.029 331.093 785.029C331.489 785.029 331.808 785.352 331.808 785.753Z" fill="black"/>
<path d="M339.407 785.753C339.407 786.154 339.088 786.477 338.692 786.477C338.296 786.477 337.977 786.154 337.977 785.753C337.977 785.352 338.296 785.029 338.692 785.029C339.088 785.029 339.407 785.352 339.407 785.753Z" fill="black"/>
<path d="M347 785.753C347 786.154 346.681 786.477 346.285 786.477C345.889 786.477 345.57 786.154 345.57 785.753C345.57 785.352 345.889 785.029 346.285 785.029C346.681 785.029 347 785.352 347 785.753Z" fill="black"/>
<path d="M300.715 794.982C301.11 794.982 301.43 794.658 301.43 794.259C301.43 793.859 301.11 793.535 300.715 793.535C300.32 793.535 300 793.859 300 794.259C300 794.658 300.32 794.982 300.715 794.982Z" fill="black"/>
<path d="M308.314 794.982C308.709 794.982 309.029 794.658 309.029 794.259C309.029 793.859 308.709 793.535 308.314 793.535C307.919 793.535 307.599 793.859 307.599 794.259C307.599 794.658 307.919 794.982 308.314 794.982Z" fill="black"/>
<path d="M316.622 794.259C316.622 794.659 316.303 794.982 315.907 794.982C315.511 794.982 315.192 794.659 315.192 794.259C315.192 793.858 315.511 793.535 315.907 793.535C316.303 793.535 316.622 793.858 316.622 794.259Z" fill="black"/>
<path d="M324.215 794.259C324.215 794.659 323.896 794.982 323.5 794.982C323.104 794.982 322.785 794.659 322.785 794.259C322.785 793.858 323.104 793.535 323.5 793.535C323.896 793.535 324.215 793.858 324.215 794.259Z" fill="white"/>
<path d="M331.808 794.259C331.808 794.659 331.489 794.982 331.093 794.982C330.697 794.982 330.378 794.659 330.378 794.259C330.378 793.858 330.697 793.535 331.093 793.535C331.489 793.535 331.808 793.858 331.808 794.259Z" fill="black"/>
<path d="M338.686 794.982C339.081 794.982 339.401 794.658 339.401 794.259C339.401 793.859 339.081 793.535 338.686 793.535C338.291 793.535 337.971 793.859 337.971 794.259C337.971 794.658 338.291 794.982 338.686 794.982Z" fill="black"/>
<path d="M347 794.259C347 794.659 346.681 794.982 346.285 794.982C345.889 794.982 345.57 794.659 345.57 794.259C345.57 793.858 345.889 793.535 346.285 793.535C346.681 793.535 347 793.858 347 794.259Z" fill="black"/>
<path d="M300.715 803.488C301.11 803.488 301.43 803.164 301.43 802.765C301.43 802.365 301.11 802.041 300.715 802.041C300.32 802.041 300 802.365 300 802.765C300 803.164 300.32 803.488 300.715 803.488Z" fill="black"/>
<path d="M308.314 803.488C308.709 803.488 309.029 803.164 309.029 802.765C309.029 802.365 308.709 802.041 308.314 802.041C307.919 802.041 307.599 802.365 307.599 802.765C307.599 803.164 307.919 803.488 308.314 803.488Z" fill="black"/>
<path d="M316.622 802.765C316.622 803.165 316.303 803.488 315.907 803.488C315.511 803.488 315.192 803.165 315.192 802.765C315.192 802.364 315.511 802.041 315.907 802.041C316.303 802.041 316.622 802.364 316.622 802.765Z" fill="black"/>
<path d="M324.215 802.765C324.215 803.165 323.896 803.488 323.5 803.488C323.104 803.488 322.785 803.165 322.785 802.765C322.785 802.364 323.104 802.041 323.5 802.041C323.896 802.041 324.215 802.364 324.215 802.765Z" fill="black"/>
<path d="M331.808 802.765C331.808 803.165 331.489 803.488 331.093 803.488C330.697 803.488 330.378 803.165 330.378 802.765C330.378 802.364 330.697 802.041 331.093 802.041C331.489 802.041 331.808 802.364 331.808 802.765Z" fill="black"/>
<path d="M338.686 803.488C339.081 803.488 339.401 803.164 339.401 802.765C339.401 802.365 339.081 802.041 338.686 802.041C338.291 802.041 337.971 802.365 337.971 802.765C337.971 803.164 338.291 803.488 338.686 803.488Z" fill="white"/>
<path d="M347 802.765C347 803.165 346.681 803.488 346.285 803.488C345.889 803.488 345.57 803.165 345.57 802.765C345.57 802.364 345.889 802.041 346.285 802.041C346.681 802.041 347 802.364 347 802.765Z" fill="black"/>
<path d="M301.436 811.27C301.436 811.671 301.117 811.994 300.721 811.994C300.325 811.994 300.006 811.671 300.006 811.27C300.006 810.869 300.325 810.546 300.721 810.546C301.117 810.546 301.436 810.869 301.436 811.27Z" fill="black"/>
<path d="M309.029 811.27C309.029 811.671 308.71 811.994 308.314 811.994C307.918 811.994 307.599 811.671 307.599 811.27C307.599 810.869 307.918 810.546 308.314 810.546C308.71 810.546 309.029 810.869 309.029 811.27Z" fill="white"/>
<path d="M316.622 811.27C316.622 811.671 316.303 811.994 315.907 811.994C315.511 811.994 315.192 811.671 315.192 811.27C315.192 810.869 315.511 810.546 315.907 810.546C316.303 810.546 316.622 810.869 316.622 811.27Z" fill="black"/>
<path d="M324.215 811.27C324.215 811.671 323.896 811.994 323.5 811.994C323.104 811.994 322.785 811.671 322.785 811.27C322.785 810.869 323.104 810.546 323.5 810.546C323.896 810.546 324.215 810.869 324.215 811.27Z" fill="black"/>
<path d="M331.808 811.27C331.808 811.671 331.489 811.994 331.093 811.994C330.697 811.994 330.378 811.671 330.378 811.27C330.378 810.869 330.697 810.546 331.093 810.546C331.489 810.546 331.808 810.869 331.808 811.27Z" fill="black"/>
<path d="M339.407 811.27C339.407 811.671 339.088 811.994 338.692 811.994C338.296 811.994 337.977 811.671 337.977 811.27C337.977 810.869 338.296 810.546 338.692 810.546C339.088 810.546 339.407 810.869 339.407 811.27Z" fill="black"/>
<path d="M347 811.27C347 811.671 346.681 811.994 346.285 811.994C345.889 811.994 345.57 811.671 345.57 811.27C345.57 810.869 345.889 810.546 346.285 810.546C346.681 810.546 347 810.869 347 811.27Z" fill="black"/>
</g>
<g clip-path="url(#clip3_542_1625)">
<path d="M356.127 290H352.861V301H356.127V290Z" fill="#FDCB15"/>
<path d="M360 297.127V293.861H349V297.127H360Z" fill="#FDCB15"/>
</g>
<g clip-path="url(#clip4_542_1625)">
<path d="M28.1268 653H24.8613V664H28.1268V653Z" fill="#FDCB15"/>
<path d="M32 660.127V656.861H21V660.127H32Z" fill="#FDCB15"/>
</g>
<path d="M330.934 4.97639C330.963 5.64471 330.983 6.31548 330.993 6.98859L330.493 6.99583C330.498 7.32998 330.5 7.6647 330.5 8C330.5 8.33528 330.498 8.67 330.493 9.00414L330.993 9.01137C330.983 9.68448 330.963 10.3553 330.934 11.0236L330.435 11.0019C330.406 11.6706 330.367 12.3368 330.319 13.0004L330.818 13.0366C330.769 13.7069 330.711 14.3746 330.643 15.0394L330.145 14.9886C330.077 15.6549 330 16.3183 329.913 16.9787L330.408 17.0441C330.32 17.7109 330.223 18.3747 330.116 19.0354L329.622 18.9555C329.516 19.6153 329.399 20.2721 329.274 20.9255L329.765 21.0199C329.637 21.6808 329.501 22.3384 329.355 22.9925L328.867 22.8836C328.721 23.535 328.567 24.1829 328.403 24.8271L328.887 24.9504C328.721 25.603 328.546 26.2518 328.361 26.8968L327.881 26.7592C327.697 27.4007 327.504 28.0383 327.303 28.6719L327.779 28.8236C327.575 29.4648 327.361 30.102 327.139 30.735L326.667 30.5692C326.446 31.1989 326.216 31.8245 325.977 32.4457L326.443 32.6253C326.202 33.2526 325.951 33.8755 325.692 34.4938L325.231 34.3005C324.973 34.9163 324.706 35.5275 324.43 36.134L324.886 36.3408C324.608 36.9525 324.321 37.5595 324.026 38.1615L323.577 37.9414C323.283 38.5407 322.981 39.1352 322.67 39.7246L323.112 39.9578C322.799 40.5522 322.477 41.1415 322.147 41.7256L321.711 41.4795C321.383 42.0602 321.047 42.6355 320.702 43.2055L321.13 43.4643C320.782 44.0394 320.426 44.609 320.062 45.1731L319.642 44.902C319.28 45.4623 318.911 46.017 318.533 46.566L318.945 46.8493C318.565 47.403 318.176 47.9509 317.78 48.4928L317.376 48.1977C316.983 48.736 316.581 49.2684 316.172 49.7947L316.567 50.1015C316.155 50.6319 315.736 51.1562 315.309 51.6742L314.923 51.3561C314.499 51.8707 314.067 52.3789 313.628 52.8808L314.005 53.2099C313.563 53.7155 313.113 54.2146 312.657 54.7071L312.29 54.3672C311.837 54.8562 311.377 55.3387 310.909 55.8144L311.266 56.1647C310.796 56.6438 310.318 57.1161 309.834 57.5814L309.488 57.2209C309.007 57.6829 308.52 58.138 308.025 58.586L308.361 58.9564C307.864 59.4074 307.36 59.8512 306.85 60.2879L306.525 59.908C306.018 60.3413 305.506 60.7675 304.986 61.1864L305.3 61.5755C304.778 61.997 304.249 62.4111 303.715 62.8177L303.412 62.4196C302.881 62.8229 302.345 63.2186 301.803 63.6068L302.093 64.0134C301.548 64.4041 300.996 64.7871 300.438 65.1623L300.159 64.7475C299.606 65.1192 299.048 65.4832 298.484 65.8393L298.751 66.2621C298.183 66.6204 297.61 66.9709 297.032 67.3132L296.777 66.8829C296.204 67.2221 295.625 67.5533 295.042 67.8763L295.284 68.3138C294.697 68.6386 294.105 68.9551 293.507 69.2633L293.278 68.819C292.686 69.1246 292.089 69.4219 291.486 69.7108L291.703 70.1616C291.098 70.4515 290.489 70.733 289.875 71.006L289.672 70.5491C289.064 70.8197 288.45 71.0818 287.832 71.3352L288.022 71.7978C287.402 72.0522 286.777 72.2981 286.148 72.5351L285.971 72.0672C285.349 72.3017 284.722 72.5276 284.09 72.7447L284.253 73.2175C283.618 73.4357 282.98 73.645 282.337 73.8453L282.188 73.3679C281.553 73.5657 280.915 73.7546 280.272 73.9345L280.407 74.416C279.761 74.5969 279.111 74.7687 278.458 74.9314L278.337 74.4462C277.692 74.6068 277.043 74.7584 276.391 74.9009L276.497 75.3894C275.843 75.5323 275.185 75.6661 274.523 75.7906L274.431 75.2992C273.777 75.4223 273.119 75.5362 272.459 75.6409L272.537 76.1347C271.876 76.2394 271.212 76.3349 270.545 76.4209L270.481 75.925C269.821 76.0103 269.157 76.0863 268.49 76.1528L268.54 76.6504C267.875 76.7168 267.207 76.7739 266.537 76.8216L266.501 76.3228C265.838 76.37 265.171 76.4079 264.503 76.4363L264.524 76.9359C263.855 76.9643 263.185 76.9833 262.511 76.9928L262.504 76.4929C262.17 76.4976 261.835 76.5 261.5 76.5C261.165 76.5 260.83 76.4976 260.496 76.4929L260.489 76.9928C259.815 76.9833 259.145 76.9643 258.476 76.9359L258.498 76.4363C257.829 76.4079 257.162 76.37 256.499 76.3228L256.463 76.8216C255.793 76.7739 255.125 76.7168 254.46 76.6504L254.51 76.1528C253.843 76.0863 253.179 76.0103 252.519 75.925L252.455 76.4209C251.788 76.3349 251.124 76.2394 250.463 76.1347L250.541 75.6409C249.881 75.5362 249.223 75.4223 248.569 75.2992L248.477 75.7906C247.815 75.6661 247.157 75.5323 246.503 75.3894L246.609 74.9009C245.957 74.7584 245.308 74.6068 244.663 74.4462L244.542 74.9314C243.889 74.7687 243.239 74.5969 242.593 74.416L242.728 73.9345C242.085 73.7546 241.447 73.5657 240.812 73.3679L240.663 73.8453C240.02 73.645 239.382 73.4357 238.747 73.2175L238.91 72.7447C238.278 72.5276 237.651 72.3018 237.029 72.0672L236.852 72.5351C236.223 72.2981 235.598 72.0523 234.978 71.7978L235.168 71.3352C234.55 71.0818 233.937 70.8197 233.328 70.5491L233.125 71.006C232.511 70.733 231.902 70.4515 231.297 70.1616L231.514 69.7108C230.911 69.4219 230.314 69.1246 229.722 68.819L229.493 69.2633C228.895 68.9551 228.303 68.6386 227.716 68.3139L227.958 67.8764C227.375 67.5533 226.796 67.2221 226.223 66.8829L225.968 67.3132C225.39 66.9709 224.817 66.6205 224.249 66.2621L224.516 65.8393C223.952 65.4832 223.394 65.1192 222.841 64.7475L222.562 65.1623C222.004 64.7871 221.453 64.4041 220.907 64.0134L221.197 63.6068C220.655 63.2187 220.119 62.8229 219.588 62.4196L219.286 62.8177C218.751 62.4111 218.222 61.997 217.7 61.5755L218.014 61.1864C217.494 60.7675 216.982 60.3414 216.475 59.908L216.15 60.2879C215.64 59.8513 215.136 59.4074 214.639 58.9564L214.975 58.586C214.481 58.138 213.993 57.6829 213.512 57.221L213.166 57.5815C212.682 57.1161 212.204 56.6438 211.734 56.1647L212.091 55.8144C211.623 55.3387 211.163 54.8562 210.71 54.3672L210.343 54.7071C209.887 54.2146 209.437 53.7155 208.995 53.2099L209.372 52.8808C208.933 52.3789 208.501 51.8707 208.077 51.3561L207.691 51.6742C207.264 51.1562 206.845 50.6319 206.433 50.1015L206.828 49.7948C206.419 49.2684 206.017 48.736 205.624 48.1977L205.22 48.4928C204.824 47.9509 204.435 47.403 204.055 46.8493L204.467 46.566C204.089 46.017 203.72 45.4623 203.358 44.902L202.938 45.1731C202.574 44.609 202.218 44.0394 201.87 43.4643L202.298 43.2056C201.953 42.6356 201.617 42.0602 201.289 41.4795L200.853 41.7256C200.523 41.1416 200.201 40.5522 199.888 39.9578L200.33 39.7246C200.019 39.1352 199.717 38.5408 199.423 37.9414L198.974 38.1616C198.679 37.5595 198.392 36.9525 198.114 36.3408L198.57 36.134C198.294 35.5275 198.027 34.9163 197.769 34.3006L197.308 34.4939C197.049 33.8755 196.798 33.2526 196.557 32.6253L197.023 32.4457C196.784 31.8245 196.554 31.199 196.333 30.5692L195.861 30.735C195.639 30.102 195.425 29.4648 195.221 28.8236L195.697 28.6719C195.496 28.0383 195.303 27.4007 195.119 26.7592L194.639 26.8968C194.454 26.2518 194.279 25.603 194.113 24.9504L194.597 24.8272C194.433 24.1829 194.279 23.535 194.133 22.8836L193.645 22.9925C193.499 22.3384 193.363 21.6809 193.235 21.02L193.726 20.9255C193.601 20.2721 193.484 19.6154 193.378 18.9555L192.884 19.0354C192.777 18.3747 192.68 17.7109 192.592 17.0441L193.087 16.9787C193 16.3183 192.923 15.6549 192.855 14.9887L192.357 15.0394C192.289 14.3746 192.231 13.707 192.182 13.0367L192.681 13.0004C192.633 12.3368 192.594 11.6706 192.565 11.0019L192.066 11.0236C192.037 10.3553 192.017 9.68451 192.007 9.0114L192.507 9.00417C192.502 8.67002 192.5 8.3353 192.5 8C192.5 7.66472 192.502 7.33 192.507 6.99586L192.007 6.98863C192.017 6.31552 192.037 5.64474 192.066 4.97643L192.565 4.99812C192.594 4.3294 192.633 3.66319 192.681 2.9996L192.182 2.96336C192.231 2.29307 192.289 1.62543 192.357 0.960583L192.855 1.01135C192.923 0.345116 193 -0.318283 193.087 -0.978718L192.592 -1.04409C192.68 -1.71089 192.777 -2.37471 192.884 -3.03538L193.378 -2.95547C193.484 -3.61535 193.601 -4.27207 193.726 -4.9255L193.235 -5.01994C193.363 -5.68084 193.499 -6.33839 193.645 -6.99246L194.133 -6.88356C194.279 -7.53495 194.433 -8.18287 194.597 -8.82714L194.113 -8.95042C194.279 -9.60296 194.454 -10.2518 194.639 -10.8968L195.119 -10.7592C195.303 -11.4007 195.496 -12.0383 195.697 -12.6719L195.221 -12.8236C195.425 -13.4648 195.639 -14.102 195.861 -14.735L196.333 -14.5692C196.554 -15.1989 196.784 -15.8245 197.023 -16.4457L196.557 -16.6253C196.798 -17.2526 197.049 -17.8755 197.308 -18.4938L197.769 -18.3005C198.027 -18.9163 198.294 -19.5275 198.57 -20.134L198.114 -20.3408C198.392 -20.9525 198.679 -21.5595 198.974 -22.1615L199.423 -21.9414C199.717 -22.5407 200.019 -23.1352 200.33 -23.7246L199.888 -23.9578C200.201 -24.5522 200.523 -25.1415 200.853 -25.7256L201.289 -25.4795C201.617 -26.0601 201.953 -26.6355 202.298 -27.2055L201.87 -27.4643C202.218 -28.0394 202.574 -28.609 202.938 -29.1731L203.358 -28.902C203.72 -29.4623 204.089 -30.017 204.467 -30.566L204.055 -30.8493C204.435 -31.403 204.824 -31.9509 205.22 -32.4928L205.624 -32.1977C206.017 -32.736 206.419 -33.2684 206.828 -33.7947L206.433 -34.1015C206.845 -34.6319 207.264 -35.1562 207.691 -35.6742L208.077 -35.3561C208.501 -35.8706 208.933 -36.3789 209.372 -36.8808L208.995 -37.2099C209.437 -37.7155 209.887 -38.2146 210.343 -38.7071L210.71 -38.3672C211.163 -38.8562 211.623 -39.3387 212.091 -39.8144L211.734 -40.1647C212.204 -40.6438 212.682 -41.1161 213.166 -41.5814L213.512 -41.2209C213.993 -41.6829 214.48 -42.138 214.975 -42.586L214.639 -42.9564C215.136 -43.4074 215.64 -43.8512 216.15 -44.2879L216.475 -43.908C216.982 -44.3413 217.494 -44.7675 218.014 -45.1864L217.7 -45.5755C218.222 -45.997 218.751 -46.4111 219.285 -46.8177L219.588 -46.4196C220.119 -46.8229 220.655 -47.2186 221.197 -47.6068L220.907 -48.0134C221.453 -48.4041 222.004 -48.7871 222.562 -49.1623L222.841 -48.7475C223.394 -49.1192 223.952 -49.4832 224.516 -49.8393L224.249 -50.2621C224.817 -50.6204 225.39 -50.9709 225.968 -51.3132L226.223 -50.8829C226.796 -51.2221 227.375 -51.5533 227.958 -51.8763L227.716 -52.3138C228.303 -52.6386 228.895 -52.9551 229.493 -53.2633L229.722 -52.8189C230.314 -53.1246 230.911 -53.4219 231.514 -53.7108L231.297 -54.1616C231.902 -54.4515 232.511 -54.733 233.125 -55.006L233.328 -54.5491C233.936 -54.8197 234.55 -55.0818 235.168 -55.3352L234.978 -55.7978C235.598 -56.0523 236.223 -56.2981 236.852 -56.5351L237.029 -56.0672C237.651 -56.3018 238.278 -56.5276 238.91 -56.7447L238.747 -57.2175C239.382 -57.4357 240.02 -57.645 240.663 -57.8453L240.812 -57.3679C241.447 -57.5657 242.085 -57.7546 242.728 -57.9345L242.593 -58.416C243.239 -58.5969 243.889 -58.7687 244.542 -58.9314L244.663 -58.4462C245.308 -58.6068 245.957 -58.7584 246.609 -58.9009L246.503 -59.3894C247.157 -59.5323 247.815 -59.6661 248.477 -59.7906L248.569 -59.2992C249.223 -59.4223 249.881 -59.5362 250.541 -59.6409L250.463 -60.1347C251.124 -60.2394 251.788 -60.3349 252.455 -60.4209L252.519 -59.925C253.179 -60.0103 253.843 -60.0863 254.51 -60.1528L254.46 -60.6504C255.125 -60.7168 255.793 -60.7739 256.463 -60.8216L256.499 -60.3228C257.162 -60.37 257.829 -60.4079 258.497 -60.4363L258.476 -60.9359C259.145 -60.9643 259.815 -60.9833 260.489 -60.9928L260.496 -60.4929C260.83 -60.4976 261.165 -60.5 261.5 -60.5C261.835 -60.5 262.17 -60.4976 262.504 -60.4929L262.511 -60.9928C263.185 -60.9833 263.855 -60.9643 264.524 -60.9359L264.502 -60.4363C265.171 -60.4079 265.838 -60.37 266.501 -60.3228L266.537 -60.8216C267.207 -60.7739 267.875 -60.7168 268.54 -60.6504L268.49 -60.1528C269.157 -60.0863 269.821 -60.0103 270.481 -59.925L270.545 -60.4209C271.212 -60.3349 271.876 -60.2394 272.537 -60.1347L272.459 -59.6409C273.119 -59.5362 273.777 -59.4223 274.431 -59.2992L274.523 -59.7906C275.185 -59.6661 275.843 -59.5323 276.497 -59.3894L276.391 -58.9009C277.043 -58.7584 277.692 -58.6068 278.337 -58.4462L278.458 -58.9314C279.111 -58.7687 279.761 -58.5969 280.407 -58.416L280.272 -57.9345C280.915 -57.7546 281.553 -57.5657 282.188 -57.3679L282.337 -57.8453C282.98 -57.645 283.618 -57.4357 284.253 -57.2175L284.09 -56.7447C284.722 -56.5276 285.349 -56.3018 285.971 -56.0672L286.148 -56.5351C286.777 -56.2981 287.402 -56.0523 288.022 -55.7978L287.832 -55.3352C288.45 -55.0818 289.063 -54.8197 289.672 -54.5491L289.875 -55.006C290.489 -54.733 291.098 -54.4515 291.703 -54.1616L291.486 -53.7108C292.089 -53.4219 292.686 -53.1246 293.278 -52.819L293.507 -53.2633C294.105 -52.9551 294.697 -52.6386 295.284 -52.3138L295.042 -51.8764C295.625 -51.5533 296.204 -51.2221 296.777 -50.8829L297.032 -51.3132C297.61 -50.9709 298.183 -50.6205 298.751 -50.2621L298.484 -49.8393C299.048 -49.4832 299.606 -49.1192 300.159 -48.7475L300.438 -49.1623C300.996 -48.7871 301.547 -48.4041 302.093 -48.0134L301.803 -47.6068C302.345 -47.2187 302.881 -46.8229 303.412 -46.4196L303.714 -46.8177C304.249 -46.4111 304.778 -45.997 305.3 -45.5755L304.986 -45.1864C305.506 -44.7675 306.018 -44.3414 306.525 -43.908L306.85 -44.2879C307.36 -43.8513 307.864 -43.4074 308.361 -42.9564L308.025 -42.586C308.519 -42.138 309.007 -41.6829 309.488 -41.221L309.834 -41.5815C310.318 -41.1161 310.796 -40.6438 311.266 -40.1647L310.909 -39.8144C311.377 -39.3387 311.837 -38.8562 312.29 -38.3672L312.657 -38.7071C313.113 -38.2146 313.563 -37.7155 314.005 -37.2099L313.628 -36.8808C314.067 -36.3789 314.499 -35.8707 314.923 -35.3561L315.309 -35.6742C315.736 -35.1562 316.155 -34.6319 316.567 -34.1015L316.172 -33.7948C316.581 -33.2684 316.983 -32.736 317.376 -32.1977L317.78 -32.4928C318.176 -31.9509 318.565 -31.403 318.945 -30.8493L318.533 -30.566C318.911 -30.017 319.28 -29.4623 319.642 -28.902L320.062 -29.1731C320.426 -28.609 320.782 -28.0394 321.13 -27.4643L320.702 -27.2056C321.047 -26.6356 321.383 -26.0602 321.711 -25.4795L322.147 -25.7256C322.477 -25.1416 322.799 -24.5522 323.112 -23.9578L322.67 -23.7246C322.981 -23.1352 323.283 -22.5408 323.577 -21.9414L324.026 -22.1616C324.321 -21.5595 324.608 -20.9525 324.886 -20.3408L324.43 -20.134C324.706 -19.5275 324.973 -18.9163 325.231 -18.3006L325.692 -18.4939C325.951 -17.8755 326.202 -17.2526 326.443 -16.6253L325.977 -16.4457C326.216 -15.8245 326.446 -15.199 326.667 -14.5692L327.139 -14.735C327.361 -14.102 327.575 -13.4648 327.779 -12.8236L327.303 -12.6719C327.504 -12.0383 327.697 -11.4007 327.881 -10.7593L328.361 -10.8968C328.546 -10.2518 328.721 -9.60298 328.887 -8.95043L328.403 -8.82716C328.567 -8.18288 328.721 -7.53497 328.867 -6.88357L329.355 -6.99248C329.501 -6.33841 329.637 -5.68085 329.765 -5.01995L329.273 -4.92551C329.399 -4.27209 329.516 -3.61537 329.622 -2.95549L330.116 -3.0354C330.223 -2.37473 330.32 -1.71092 330.408 -1.04411L329.913 -0.978745C330 -0.31831 330.077 0.345093 330.145 1.01132L330.643 0.960556C330.711 1.6254 330.769 2.29304 330.818 2.96333L330.319 2.99957C330.367 3.66315 330.406 4.32938 330.435 4.99809L330.934 4.97639Z" stroke="black" stroke-opacity="0.15" stroke-dasharray="2 2"/>
<path d="M352.951 5.00789C352.973 5.67017 352.987 6.33425 352.995 7.00004L352.495 7.00545C352.498 7.33654 352.5 7.66806 352.5 8C352.5 8.33199 352.498 8.66356 352.495 8.9947L352.995 9.00011C352.987 9.6659 352.973 10.33 352.951 10.9923L352.452 10.976C352.43 11.6357 352.402 12.2937 352.366 12.9497L352.865 12.9768C352.829 13.6424 352.786 14.3062 352.736 14.968L352.237 14.93C352.187 15.5882 352.13 16.2444 352.066 16.8985L352.563 16.9473C352.498 17.6102 352.426 18.271 352.347 18.9296L351.85 18.8699C351.771 19.526 351.685 20.18 351.592 20.8317L352.087 20.9023C351.993 21.5605 351.892 22.2164 351.784 22.8699L351.291 22.7884C351.183 23.441 351.068 24.0912 350.947 24.739L351.438 24.8314C351.315 25.4839 351.186 26.134 351.049 26.7815L350.56 26.6782C350.423 27.3258 350.28 27.9709 350.129 28.6133L350.616 28.7273C350.465 29.3733 350.306 30.0166 350.141 30.6573L349.657 30.5325C349.492 31.1735 349.32 31.8117 349.141 32.4471L349.622 32.5826C349.443 33.2217 349.256 33.858 349.062 34.4913L348.584 34.3453C348.391 34.9775 348.191 35.6069 347.984 36.2332L348.459 36.3898C348.251 37.0207 348.036 37.6485 347.815 38.2732L347.344 38.1061C347.123 38.7287 346.895 39.3481 346.661 39.9643L347.129 40.1418C346.893 40.7631 346.65 41.3811 346.401 41.9958L345.938 41.808C345.69 42.4198 345.436 43.0283 345.175 43.6334L345.634 43.8314C345.371 44.4417 345.101 45.0486 344.825 45.652L344.37 45.444C344.096 46.044 343.815 46.6405 343.528 47.2334L343.978 47.4514C343.688 48.0496 343.391 48.6442 343.089 49.235L342.644 49.0071C342.343 49.5947 342.036 50.1786 341.723 50.7586L342.163 50.9962C341.847 51.5807 341.525 52.1614 341.197 52.7381L340.763 52.491C340.436 53.0648 340.104 53.6349 339.765 54.2009L340.194 54.4576C339.853 55.0274 339.506 55.5932 339.153 56.1549L338.73 55.8889C338.379 56.448 338.021 57.0031 337.658 57.5539L338.076 57.8291C337.71 58.3833 337.339 58.9333 336.962 59.479L336.551 59.1948C336.175 59.738 335.794 60.277 335.407 60.8116L335.812 61.1047C335.423 61.6424 335.028 62.1756 334.628 62.7044L334.229 62.4025C333.83 62.9288 333.426 63.4507 333.016 63.968L333.408 64.2785C332.996 64.7987 332.578 65.3142 332.155 65.8251L331.77 65.5062C331.349 66.0146 330.922 66.5183 330.49 67.0174L330.868 67.3446C330.434 67.8464 329.994 68.3434 329.549 68.8356L329.178 68.5002C328.735 68.9897 328.287 69.4744 327.834 69.9542L328.197 70.2976C327.742 70.78 327.281 71.2575 326.815 71.7299L326.459 71.3788C325.995 71.8486 325.527 72.3134 325.053 72.7731L325.401 73.1319C324.925 73.5941 324.444 74.0511 323.957 74.503L323.617 74.1367C323.134 74.586 322.645 75.03 322.152 75.4689L322.484 75.8424C321.989 76.2834 321.488 76.7192 320.983 77.1495L320.659 76.7688C320.156 77.1968 319.649 77.6194 319.137 78.0365L319.453 78.4241C318.939 78.8431 318.42 79.2567 317.896 79.6647L317.589 79.2704C317.068 79.6761 316.543 80.0764 316.014 80.4711L316.312 80.872C315.781 81.2683 315.244 81.6589 314.704 82.0438L314.414 81.6365C313.876 82.0192 313.334 82.3963 312.788 82.7677L313.069 83.1812C312.521 83.554 311.968 83.921 311.411 84.2822L311.139 83.8627C310.585 84.2216 310.028 84.5748 309.466 84.9221L309.729 85.3474C309.164 85.6961 308.596 86.0388 308.024 86.3755L307.77 85.9446C307.202 86.2791 306.629 86.6076 306.053 86.93L306.297 87.3664C305.718 87.6903 305.135 88.0081 304.549 88.3198L304.314 87.8782C303.732 88.1875 303.146 88.4907 302.556 88.7876L302.781 89.2342C302.189 89.5327 301.592 89.825 300.992 90.111L300.777 89.6596C300.182 89.9431 299.584 90.2203 298.982 90.4912L299.187 90.9471C298.582 91.2195 297.973 91.4856 297.361 91.7451L297.166 91.2848C296.56 91.542 295.95 91.7929 295.337 92.0373L295.522 92.5017C294.906 92.7473 294.286 92.9865 293.663 93.219L293.488 92.7506C292.871 92.9812 292.251 93.2053 291.627 93.4228L291.792 93.8949C291.166 94.1132 290.537 94.325 289.905 94.53L289.75 94.0544C289.123 94.2579 288.493 94.4549 287.86 94.6451L288.004 95.124C287.369 95.3146 286.732 95.4985 286.092 95.6757L285.959 95.1938C285.323 95.3699 284.684 95.5393 284.042 95.7019L284.165 96.1866C283.524 96.3491 282.88 96.5049 282.233 96.6539L282.121 96.1667C281.478 96.3148 280.832 96.4562 280.184 96.5907L280.285 97.0803C279.638 97.2148 278.987 97.3424 278.335 97.4631L278.244 96.9714C277.595 97.0913 276.945 97.2044 276.292 97.3106L276.372 97.8041C275.718 97.9104 275.062 98.0097 274.404 98.1021L274.334 97.607C273.682 97.6985 273.028 97.7832 272.372 97.8609L272.43 98.3574C271.772 98.4354 271.111 98.5064 270.448 98.5704L270.4 98.0727C269.745 98.1359 269.089 98.1922 268.431 98.2415L268.468 98.7401C267.806 98.7896 267.142 98.8322 266.477 98.8677L266.45 98.3684C265.794 98.4034 265.136 98.4314 264.476 98.4525L264.492 98.9523C263.83 98.9734 263.166 98.9876 262.5 98.9947L262.495 98.4947C262.164 98.4982 261.832 98.5 261.5 98.5C261.168 98.5 260.837 98.4982 260.505 98.4947L260.5 98.9947C259.834 98.9876 259.17 98.9734 258.508 98.9523L258.524 98.4525C257.864 98.4314 257.206 98.4034 256.55 98.3684L256.523 98.8677C255.858 98.8322 255.194 98.7896 254.532 98.7401L254.569 98.2415C253.911 98.1922 253.255 98.1359 252.6 98.0727L252.552 98.5704C251.889 98.5065 251.228 98.4354 250.57 98.3574L250.629 97.8609C249.972 97.7832 249.318 97.6985 248.666 97.607L248.596 98.1021C247.938 98.0097 247.282 97.9104 246.628 97.8041L246.709 97.3106C246.055 97.2044 245.405 97.0914 244.756 96.9715L244.666 97.4631C244.013 97.3424 243.363 97.2148 242.715 97.0803L242.816 96.5908C242.168 96.4562 241.522 96.3148 240.879 96.1667L240.767 96.6539C240.12 96.5049 239.476 96.3491 238.835 96.1866L238.958 95.7019C238.316 95.5393 237.677 95.3699 237.041 95.1938L236.908 95.6757C236.268 95.4985 235.631 95.3146 234.996 95.124L235.14 94.6451C234.507 94.4549 233.877 94.258 233.25 94.0545L233.095 94.53C232.463 94.325 231.834 94.1132 231.208 93.8949L231.373 93.4228C230.75 93.2053 230.129 92.9812 229.512 92.7506L229.337 93.219C228.714 92.9865 228.094 92.7473 227.478 92.5017L227.663 92.0373C227.05 91.7929 226.44 91.5421 225.834 91.2849L225.639 91.7452C225.027 91.4856 224.418 91.2195 223.813 90.9471L224.018 90.4912C223.416 90.2203 222.818 89.9431 222.223 89.6596L222.008 90.111C221.408 89.825 220.811 89.5327 220.219 89.2342L220.444 88.7877C219.854 88.4907 219.268 88.1875 218.686 87.8782L218.451 88.3198C217.865 88.0081 217.282 87.6903 216.703 87.3664L216.947 86.9301C216.371 86.6076 215.798 86.2791 215.23 85.9446L214.976 86.3755C214.404 86.0388 213.836 85.6961 213.271 85.3474L213.534 84.9221C212.972 84.5748 212.415 84.2217 211.861 83.8627L211.589 84.2822C211.032 83.921 210.479 83.554 209.931 83.1812L210.212 82.7677C209.666 82.3964 209.124 82.0193 208.586 81.6365L208.296 82.0438C207.756 81.6589 207.219 81.2683 206.688 80.872L206.986 80.4711C206.457 80.0764 205.932 79.6762 205.411 79.2704L205.104 79.6647C204.58 79.2567 204.061 78.8431 203.547 78.4241L203.863 78.0365C203.351 77.6194 202.844 77.1968 202.341 76.7688L202.017 77.1495C201.512 76.7192 201.011 76.2834 200.516 75.8424L200.848 75.4689C200.355 75.03 199.866 74.586 199.383 74.1367L199.043 74.5029C198.556 74.0511 198.075 73.594 197.599 73.1319L197.947 72.7731C197.473 72.3134 197.005 71.8486 196.541 71.3788L196.185 71.7299C195.719 71.2575 195.258 70.78 194.803 70.2975L195.166 69.9542C194.713 69.4744 194.265 68.9897 193.822 68.5001L193.451 68.8355C193.006 68.3434 192.566 67.8464 192.132 67.3446L192.51 67.0173C192.078 66.5183 191.651 66.0145 191.23 65.5061L190.845 65.8251C190.422 65.3142 190.004 64.7986 189.592 64.2785L189.984 63.9679C189.574 63.4506 189.169 62.9288 188.771 62.4024L188.372 62.7043C187.972 62.1756 187.577 61.6423 187.188 61.1047L187.593 60.8115C187.206 60.2769 186.825 59.738 186.449 59.1947L186.038 59.479C185.661 58.9332 185.289 58.3833 184.924 57.829L185.342 57.5538C184.978 57.003 184.621 56.448 184.27 55.8889L183.847 56.1548C183.494 55.5931 183.147 55.0273 182.806 54.4575L183.235 54.2008C182.896 53.6348 182.564 53.0648 182.237 52.4909L181.803 52.7381C181.475 52.1613 181.153 51.5807 180.837 50.9962L181.277 50.7586C180.964 50.1785 180.657 49.5946 180.356 49.0071L179.911 49.2349C179.608 48.6441 179.312 48.0496 179.022 47.4514L179.472 47.2334C179.185 46.6404 178.904 46.0439 178.63 45.4439L178.175 45.6519C177.899 45.0485 177.629 44.4416 177.366 43.8313L177.825 43.6333C177.564 43.0282 177.31 42.4197 177.062 41.8079L176.599 41.9957C176.35 41.381 176.107 40.763 175.871 40.1417L176.339 39.9642C176.105 39.348 175.877 38.7286 175.656 38.106L175.185 38.2731C174.964 37.6484 174.749 37.0206 174.541 36.3897L175.016 36.2331C174.809 35.6068 174.609 34.9774 174.416 34.3451L173.938 34.4912C173.744 33.8578 173.557 33.2216 173.378 32.5824L173.859 32.447C173.68 31.8116 173.508 31.1733 173.343 30.5324L172.859 30.6571C172.694 30.0165 172.535 29.3732 172.384 28.7272L172.871 28.6131C172.72 27.9707 172.577 27.3257 172.44 26.6781L171.951 26.7813C171.814 26.1338 171.685 25.4838 171.562 24.8313L172.053 24.7389C171.932 24.0911 171.817 23.4409 171.709 22.7883L171.216 22.8698C171.108 22.2163 171.007 21.5604 170.913 20.9022L171.408 20.8316C171.315 20.1798 171.229 19.5259 171.15 18.8698L170.653 18.9295C170.574 18.2709 170.502 17.6101 170.437 16.9472L170.934 16.8984C170.87 16.2442 170.813 15.5881 170.763 14.9299L170.264 14.9678C170.214 14.3061 170.171 13.6423 170.135 12.9766L170.634 12.9496C170.598 12.2935 170.57 11.6356 170.548 10.9759L170.049 10.9921C170.027 10.3298 170.013 9.66575 170.005 8.99996L170.505 8.99455C170.502 8.66346 170.5 8.33194 170.5 8C170.5 7.66801 170.502 7.33644 170.505 7.0053L170.005 6.99989C170.013 6.3341 170.027 5.67002 170.049 5.00774L170.548 5.02397C170.57 4.36426 170.598 3.70634 170.634 3.05028L170.135 3.02322C170.171 2.35755 170.214 1.69379 170.264 1.03201L170.763 1.06996C170.813 0.411804 170.87 -0.244377 170.934 -0.898514L170.437 -0.947342C170.502 -1.61022 170.574 -2.27102 170.653 -2.92965L171.15 -2.8699C171.229 -3.52602 171.315 -4.17998 171.408 -4.8317L170.913 -4.90234C171.007 -5.5605 171.108 -6.21639 171.216 -6.86994L171.709 -6.78842C171.817 -7.441 171.932 -8.09123 172.053 -8.73902L171.562 -8.83142C171.685 -9.48392 171.814 -10.134 171.951 -10.7815L172.44 -10.6782C172.577 -11.3258 172.72 -11.9709 172.871 -12.6133L172.384 -12.7273C172.535 -13.3733 172.694 -14.0166 172.859 -14.6573L173.343 -14.5325C173.508 -15.1735 173.68 -15.8117 173.859 -16.4471L173.378 -16.5825C173.557 -17.2217 173.744 -17.858 173.938 -18.4913L174.416 -18.3453C174.609 -18.9775 174.809 -19.6069 175.016 -20.2332L174.541 -20.3898C174.749 -21.0207 174.964 -21.6485 175.185 -22.2732L175.656 -22.1061C175.877 -22.7287 176.105 -23.3481 176.339 -23.9643L175.871 -24.1418C176.107 -24.7631 176.35 -25.3811 176.599 -25.9958L177.062 -25.808C177.31 -26.4198 177.564 -27.0283 177.825 -27.6334L177.366 -27.8314C177.629 -28.4417 177.899 -29.0486 178.175 -29.652L178.63 -29.4439C178.904 -30.044 179.185 -30.6405 179.472 -31.2334L179.023 -31.4515C179.312 -32.0496 179.609 -32.6442 179.911 -33.235L180.356 -33.0071C180.657 -33.5947 180.964 -34.1786 181.277 -34.7586L180.837 -34.9962C181.153 -35.5807 181.475 -36.1614 181.803 -36.7381L182.237 -36.4909C182.564 -37.0649 182.896 -37.6349 183.235 -38.2009L182.806 -38.4576C183.147 -39.0274 183.494 -39.5932 183.847 -40.1549L184.27 -39.8889C184.621 -40.448 184.978 -41.0031 185.342 -41.5539L184.924 -41.8291C185.29 -42.3833 185.661 -42.9333 186.038 -43.479L186.449 -43.1948C186.825 -43.738 187.206 -44.277 187.593 -44.8116L187.188 -45.1047C187.577 -45.6424 187.972 -46.1756 188.372 -46.7044L188.771 -46.4025C189.17 -46.9288 189.574 -47.4507 189.984 -47.968L189.592 -48.2785C190.004 -48.7987 190.422 -49.3142 190.845 -49.8251L191.23 -49.5062C191.651 -50.0146 192.078 -50.5183 192.51 -51.0174L192.132 -51.3446C192.566 -51.8464 193.006 -52.3434 193.451 -52.8356L193.822 -52.5002C194.265 -52.9897 194.713 -53.4744 195.166 -53.9542L194.803 -54.2976C195.258 -54.78 195.719 -55.2575 196.185 -55.7299L196.541 -55.3788C197.005 -55.8486 197.473 -56.3134 197.947 -56.7731L197.599 -57.1319C198.075 -57.5941 198.556 -58.0511 199.043 -58.503L199.383 -58.1367C199.866 -58.586 200.355 -59.03 200.848 -59.4689L200.516 -59.8424C201.011 -60.2834 201.512 -60.7192 202.017 -61.1495L202.341 -60.7689C202.844 -61.1968 203.351 -61.6194 203.863 -62.0365L203.547 -62.4241C204.061 -62.8431 204.58 -63.2567 205.104 -63.6647L205.411 -63.2704C205.932 -63.6762 206.457 -64.0764 206.986 -64.4711L206.688 -64.872C207.219 -65.2683 207.756 -65.6589 208.296 -66.0438L208.586 -65.6365C209.124 -66.0192 209.666 -66.3963 210.212 -66.7677L209.931 -67.1812C210.479 -67.554 211.032 -67.921 211.589 -68.2822L211.861 -67.8627C212.415 -68.2217 212.972 -68.5748 213.534 -68.9221L213.271 -69.3474C213.836 -69.6961 214.404 -70.0388 214.976 -70.3755L215.23 -69.9446C215.798 -70.2791 216.371 -70.6076 216.947 -70.93L216.703 -71.3664C217.282 -71.6903 217.865 -72.0081 218.451 -72.3198L218.686 -71.8782C219.268 -72.1875 219.854 -72.4907 220.444 -72.7876L220.219 -73.2342C220.811 -73.5327 221.408 -73.825 222.008 -74.111L222.223 -73.6596C222.818 -73.9431 223.416 -74.2203 224.018 -74.4912L223.813 -74.9471C224.418 -75.2195 225.027 -75.4856 225.639 -75.7451L225.834 -75.2848C226.44 -75.542 227.05 -75.7929 227.663 -76.0373L227.478 -76.5017C228.094 -76.7473 228.714 -76.9864 229.337 -77.219L229.512 -76.7506C230.129 -76.9812 230.749 -77.2053 231.373 -77.4228L231.208 -77.8949C231.834 -78.1132 232.463 -78.325 233.095 -78.53L233.25 -78.0544C233.877 -78.258 234.507 -78.4549 235.14 -78.6451L234.996 -79.124C235.631 -79.3146 236.268 -79.4985 236.908 -79.6757L237.041 -79.1938C237.677 -79.3699 238.316 -79.5393 238.958 -79.7019L238.835 -80.1866C239.476 -80.3491 240.12 -80.5049 240.767 -80.6539L240.879 -80.1667C241.522 -80.3148 242.168 -80.4562 242.816 -80.5907L242.715 -81.0803C243.362 -81.2147 244.013 -81.3424 244.665 -81.4631L244.756 -80.9714C245.405 -81.0913 246.055 -81.2044 246.708 -81.3106L246.628 -81.8041C247.282 -81.9104 247.938 -82.0097 248.596 -82.1021L248.666 -81.607C249.318 -81.6985 249.972 -81.7832 250.628 -81.8609L250.57 -82.3574C251.228 -82.4354 251.889 -82.5064 252.552 -82.5704L252.6 -82.0727C253.255 -82.1359 253.911 -82.1922 254.569 -82.2415L254.532 -82.7401C255.194 -82.7896 255.858 -82.8322 256.523 -82.8677L256.55 -82.3684C257.206 -82.4034 257.864 -82.4314 258.524 -82.4525L258.508 -82.9523C259.17 -82.9734 259.834 -82.9876 260.5 -82.9947L260.505 -82.4947C260.836 -82.4982 261.168 -82.5 261.5 -82.5C261.832 -82.5 262.163 -82.4982 262.495 -82.4947L262.5 -82.9947C263.166 -82.9876 263.83 -82.9734 264.492 -82.9523L264.476 -82.4525C265.136 -82.4314 265.794 -82.4034 266.45 -82.3684L266.477 -82.8677C267.142 -82.8322 267.806 -82.7896 268.468 -82.7401L268.431 -82.2415C269.089 -82.1922 269.745 -82.1359 270.4 -82.0727L270.448 -82.5704C271.111 -82.5064 271.772 -82.4354 272.43 -82.3574L272.371 -81.8609C273.028 -81.7832 273.682 -81.6985 274.334 -81.607L274.404 -82.1021C275.062 -82.0097 275.718 -81.9104 276.372 -81.8041L276.291 -81.3106C276.945 -81.2044 277.595 -81.0914 278.244 -80.9714L278.334 -81.4631C278.987 -81.3424 279.637 -81.2148 280.285 -81.0803L280.184 -80.5908C280.832 -80.4562 281.478 -80.3148 282.121 -80.1667L282.233 -80.6539C282.88 -80.5049 283.524 -80.3491 284.165 -80.1866L284.042 -79.7019C284.684 -79.5393 285.323 -79.3699 285.959 -79.1938L286.092 -79.6757C286.732 -79.4985 287.369 -79.3146 288.004 -79.124L287.86 -78.6451C288.493 -78.4549 289.123 -78.258 289.75 -78.0545L289.905 -78.53C290.537 -78.325 291.166 -78.1132 291.792 -77.8949L291.627 -77.4228C292.25 -77.2053 292.871 -76.9812 293.488 -76.7506L293.663 -77.219C294.286 -76.9865 294.906 -76.7473 295.522 -76.5017L295.337 -76.0373C295.95 -75.7929 296.56 -75.542 297.166 -75.2848L297.361 -75.7452C297.973 -75.4856 298.582 -75.2195 299.187 -74.9472L298.982 -74.4912C299.584 -74.2203 300.182 -73.9431 300.777 -73.6596L300.992 -74.111C301.592 -73.825 302.189 -73.5327 302.781 -73.2342L302.556 -72.7877C303.146 -72.4907 303.732 -72.1875 304.314 -71.8782L304.549 -72.3198C305.135 -72.0081 305.718 -71.6903 306.297 -71.3664L306.053 -70.9301C306.629 -70.6076 307.202 -70.2791 307.77 -69.9446L308.024 -70.3755C308.596 -70.0388 309.164 -69.6961 309.729 -69.3474L309.466 -68.9221C310.028 -68.5748 310.585 -68.2217 311.139 -67.8627L311.411 -68.2822C311.968 -67.921 312.521 -67.554 313.069 -67.1812L312.788 -66.7677C313.334 -66.3964 313.876 -66.0193 314.414 -65.6365L314.704 -66.0438C315.244 -65.6589 315.781 -65.2683 316.312 -64.872L316.014 -64.4711C316.543 -64.0764 317.068 -63.6762 317.589 -63.2704L317.896 -63.6647C318.42 -63.2567 318.939 -62.8431 319.453 -62.4241L319.137 -62.0365C319.649 -61.6194 320.156 -61.1968 320.659 -60.7689L320.983 -61.1495C321.488 -60.7192 321.989 -60.2834 322.484 -59.8424L322.152 -59.4689C322.645 -59.03 323.134 -58.5859 323.617 -58.1367L323.957 -58.5029C324.444 -58.0511 324.925 -57.594 325.401 -57.1319L325.053 -56.7731C325.527 -56.3134 325.995 -55.8486 326.459 -55.3787L326.815 -55.7299C327.281 -55.2575 327.742 -54.78 328.197 -54.2975L327.834 -53.9542C328.287 -53.4744 328.735 -52.9897 329.178 -52.5001L329.549 -52.8355C329.994 -52.3434 330.434 -51.8464 330.868 -51.3446L330.49 -51.0173C330.922 -50.5183 331.349 -50.0145 331.77 -49.5061L332.155 -49.8251C332.578 -49.3142 332.996 -48.7986 333.408 -48.2785L333.016 -47.9679C333.426 -47.4506 333.831 -46.9287 334.229 -46.4024L334.628 -46.7043C335.028 -46.1756 335.423 -45.6423 335.812 -45.1047L335.407 -44.8115C335.794 -44.2769 336.175 -43.738 336.551 -43.1947L336.962 -43.479C337.339 -42.9333 337.711 -42.3833 338.076 -41.829L337.658 -41.5538C338.022 -41.003 338.379 -40.448 338.73 -39.8888L339.153 -40.1548C339.506 -39.5931 339.853 -39.0273 340.194 -38.4575L339.765 -38.2008C340.104 -37.6348 340.436 -37.0648 340.763 -36.4909L341.197 -36.7381C341.525 -36.1613 341.847 -35.5806 342.163 -34.9962L341.723 -34.7586C342.036 -34.1785 342.343 -33.5946 342.644 -33.0071L343.089 -33.2349C343.392 -32.6441 343.688 -32.0496 343.978 -31.4514L343.528 -31.2334C343.815 -30.6404 344.096 -30.0439 344.37 -29.4439L344.825 -29.6519C345.101 -29.0485 345.371 -28.4416 345.634 -27.8313L345.175 -27.6333C345.436 -27.0282 345.69 -26.4197 345.938 -25.8079L346.401 -25.9957C346.65 -25.381 346.893 -24.763 347.129 -24.1417L346.661 -23.9642C346.895 -23.348 347.123 -22.7286 347.344 -22.106L347.815 -22.2731C348.036 -21.6484 348.251 -21.0206 348.459 -20.3897L347.984 -20.2331C348.191 -19.6068 348.391 -18.9774 348.584 -18.3451L349.062 -18.4912C349.256 -17.8578 349.443 -17.2216 349.622 -16.5824L349.141 -16.447C349.32 -15.8116 349.492 -15.1733 349.657 -14.5324L350.141 -14.6571C350.306 -14.0165 350.465 -13.3732 350.616 -12.7272L350.129 -12.6131C350.28 -11.9707 350.423 -11.3257 350.56 -10.6781L351.049 -10.7813C351.186 -10.1338 351.315 -9.48379 351.438 -8.83129L350.947 -8.7389C351.068 -8.0911 351.183 -7.44087 351.291 -6.78829L351.784 -6.86982C351.892 -6.21626 351.993 -5.56036 352.087 -4.9022L351.592 -4.83156C351.685 -4.17984 351.771 -3.52588 351.85 -2.86977L352.347 -2.92951C352.426 -2.27088 352.498 -1.61008 352.563 -0.947205L352.066 -0.898376C352.13 -0.24424 352.187 0.411949 352.237 1.07011L352.736 1.03215C352.786 1.69394 352.829 2.3577 352.865 3.02337L352.366 3.05042C352.402 3.70648 352.43 4.3644 352.452 5.02412L352.951 5.00789Z" stroke="black" stroke-opacity="0.15" stroke-dasharray="2 2"/>
<circle cx="25" cy="25" r="25" transform="matrix(1 0 0 -1 243 25)" fill="#F8CE10"/>
<circle cx="15" cy="15" r="15" transform="matrix(1 0 0 -1 -16 736)" fill="#F8CE10"/>
</g>
<defs>
<clipPath id="clip0_542_1625">
<rect width="375" height="812" fill="white"/>
</clipPath>
<clipPath id="clip1_542_1625">
<rect width="47" height="61" fill="white" transform="translate(-17 82)"/>
</clipPath>
<clipPath id="clip2_542_1625">
<rect width="47" height="61" fill="white" transform="translate(300 751)"/>
</clipPath>
<clipPath id="clip3_542_1625">
<rect width="11" height="11" fill="white" transform="translate(349 290)"/>
</clipPath>
<clipPath id="clip4_542_1625">
<rect width="11" height="11" fill="white" transform="translate(21 653)"/>
</clipPath>
</defs>
</svg>
