<svg width="80" height="80" viewBox="0 0 80 80" fill="none" xmlns="http://www.w3.org/2000/svg">
<path d="M54.467 6.66638C65.767 6.66638 73.3337 14.5997 73.3337 26.3997V53.6364C73.3337 65.3997 65.767 73.3331 54.467 73.3331H25.567C14.267 73.3331 6.66699 65.3997 6.66699 53.6364V26.3997C6.66699 14.5997 14.267 6.66638 25.567 6.66638H54.467ZM53.9337 29.9997C52.8003 28.8664 50.9337 28.8664 49.8003 29.9997L36.0337 43.7664L30.2003 37.9331C29.067 36.7997 27.2003 36.7997 26.067 37.9331C24.9337 39.0664 24.9337 40.8997 26.067 42.0664L34.0003 49.9664C34.567 50.5331 35.3003 50.7997 36.0337 50.7997C36.8003 50.7997 37.5337 50.5331 38.1003 49.9664L53.9337 34.133C55.067 32.9997 55.067 31.1664 53.9337 29.9997Z" fill="#F8CE13"/>
</svg>
