<svg width="48" height="48" viewBox="0 0 48 48" fill="none" xmlns="http://www.w3.org/2000/svg">
<path d="M14.9036 29.6282C14.9036 26.2228 14.9093 22.8162 14.8991 19.4107C14.8968 18.7167 15.1285 18.1567 15.6226 17.6648C19.3825 13.9186 23.1322 10.1621 26.8852 6.40902C27.4838 5.81153 27.7553 5.79449 28.4653 6.28634C28.8844 6.576 29.3127 6.85317 29.7375 7.13601C30.8893 7.90275 31.3596 9.13408 31.0075 10.462C30.3395 12.978 29.6807 15.4975 28.9946 18.009C28.8958 18.3702 28.9969 18.3929 29.307 18.3918C32.8976 18.3827 36.4882 18.385 40.0777 18.3861C42.4586 18.3861 43.9944 19.9128 43.9807 22.2948C43.9728 23.642 44.0602 24.9903 43.9239 26.3352C43.8581 26.9861 43.6752 27.6006 43.4219 28.2084C41.7032 32.3329 40.0039 36.4653 38.2978 40.5944C37.8559 41.6655 37.372 41.9927 36.2315 41.9927C29.775 41.9927 23.3173 41.9927 16.8608 41.9927C15.8737 41.9927 15.2478 41.594 15.007 40.8147C14.9184 40.5285 14.9036 40.2309 14.9036 39.931C14.9059 36.4971 14.9047 33.0621 14.9047 29.6282H14.9036Z" fill="#4E821C"/>
<path d="M11.2847 31.0758C11.2847 34.5653 11.2767 38.056 11.2949 41.5455C11.2972 41.9385 11.179 42.0033 10.8223 41.9999C9.19118 41.9806 7.56 41.9953 5.9277 41.9897C4.68273 41.9862 4.00573 41.3183 4.00459 40.0688C4.00005 34.0962 4.00005 28.1235 4.00459 22.152C4.00459 20.9491 4.77588 20.1937 5.98108 20.1903C7.61226 20.1858 9.24456 20.2005 10.8757 20.1801C11.2211 20.1756 11.2926 20.2789 11.2915 20.6061C11.2801 24.0956 11.2847 27.5851 11.2847 31.0758Z" fill="#4E821C"/>
</svg>
