<svg width="20" height="20" viewBox="0 0 20 20" fill="none" xmlns="http://www.w3.org/2000/svg">
<path d="M9.2562 10.7473C10.1243 11.6151 10.872 12.0635 11.5635 12.2329C12.2657 12.4049 12.8425 12.272 13.3141 12.1192C13.4178 12.0857 13.5193 12.0501 13.6131 12.0172C13.6238 12.0135 13.6344 12.0098 13.6448 12.0061C13.7498 11.9694 13.8453 11.9364 13.9384 11.9076C14.1248 11.8501 14.2795 11.817 14.4244 11.8132C14.6766 11.8065 14.9947 11.8849 15.4512 12.341C15.7064 12.5961 15.9479 12.8258 16.1663 13.0336L16.1789 13.0456C16.4028 13.2585 16.5987 13.4452 16.7692 13.62C17.1192 13.9789 17.3045 14.2327 17.3786 14.4568C17.4406 14.6442 17.4413 14.862 17.2669 15.203C17.083 15.5628 16.7205 16.0243 16.0926 16.6535C16.0559 16.6858 16.0209 16.7218 15.9992 16.7441C15.997 16.7464 15.9949 16.7485 15.993 16.7505L15.9894 16.7541C15.9552 16.7892 15.9202 16.8251 15.8786 16.8646C15.7942 16.9449 15.6863 17.0366 15.5481 17.122C15.2784 17.2887 14.8664 17.4487 14.2469 17.4111C12.9776 17.3343 10.7674 16.4219 7.17393 12.8294C3.58007 9.23659 2.66643 7.026 2.58887 5.75628C2.55101 5.13646 2.71078 4.72428 2.87728 4.45449C2.96262 4.31621 3.05422 4.20827 3.13446 4.12381C3.17401 4.08219 3.20994 4.04709 3.2451 4.01274L3.24842 4.0095C3.25042 4.00755 3.25258 4.00544 3.25489 4.00319C3.27713 3.98153 3.31301 3.94658 3.34524 3.91006C3.97626 3.28039 4.43868 2.91716 4.79884 2.73292C5.14013 2.55833 5.35737 2.55937 5.54399 2.62143C5.76761 2.69579 6.02079 2.88139 6.37952 3.23212C6.5542 3.40291 6.74073 3.59909 6.95366 3.8232L6.95736 3.82709C7.1673 4.04806 7.39976 4.29271 7.65849 4.55137C8.11501 5.00777 8.19368 5.326 8.18725 5.57848C8.18356 5.72345 8.15063 5.87825 8.09325 6.06476C8.0646 6.15788 8.03167 6.25339 7.99501 6.35844C7.99134 6.36895 7.98763 6.37957 7.98389 6.39028C7.9511 6.48414 7.91565 6.58562 7.88217 6.68929C7.7298 7.16109 7.59733 7.73807 7.76971 8.44028C7.93946 9.13177 8.38806 9.87935 9.2562 10.7473Z" stroke="#777777"/>
</svg>
