<svg width="24" height="24" viewBox="0 0 24 24" fill="none" xmlns="http://www.w3.org/2000/svg">
<path fill-rule="evenodd" clip-rule="evenodd" d="M4.30609 2.45021C4.88649 2.30474 5.61184 2.25 6.50001 2.25C7.38817 2.25 8.11352 2.30474 8.69392 2.45021C9.28624 2.59866 9.78144 2.85536 10.1358 3.29473C10.4817 3.72367 10.6208 4.23844 10.6855 4.7518C10.7495 5.25931 10.75 5.8576 10.75 6.5C10.75 6.51886 10.75 6.53768 10.75 6.55647C10.7501 7.17492 10.7501 7.75268 10.6916 8.24323C10.6306 8.75449 10.4968 9.27099 10.153 9.70208C9.80023 10.1445 9.30398 10.4016 8.70981 10.55C8.12762 10.6953 7.3974 10.75 6.50001 10.75C5.60261 10.75 4.87239 10.6953 4.2902 10.55C3.69603 10.4016 3.19978 10.1445 2.84699 9.70208C2.50319 9.27099 2.36941 8.75449 2.30842 8.24323C2.2499 7.75268 2.24995 7.17492 2.25 6.55647C2.25 6.53768 2.25001 6.51886 2.25001 6.5C2.25001 5.8576 2.25055 5.25931 2.31454 4.7518C2.37926 4.23844 2.51831 3.72367 2.86424 3.29473C3.21858 2.85536 3.71378 2.59866 4.30609 2.45021Z" fill="black"/>
<path fill-rule="evenodd" clip-rule="evenodd" d="M15.3061 2.45021C15.8865 2.30474 16.6118 2.25 17.5 2.25C18.3882 2.25 19.1135 2.30474 19.6939 2.45021C20.2862 2.59866 20.7814 2.85536 21.1358 3.29473C21.4817 3.72367 21.6208 4.23844 21.6855 4.7518C21.7495 5.25931 21.75 5.8576 21.75 6.5C21.75 6.51886 21.75 6.53768 21.75 6.55647C21.7501 7.17492 21.7501 7.75268 21.6916 8.24323C21.6306 8.75449 21.4968 9.27099 21.153 9.70208C20.8002 10.1445 20.304 10.4016 19.7098 10.55C19.1276 10.6953 18.3974 10.75 17.5 10.75C16.6026 10.75 15.8724 10.6953 15.2902 10.55C14.696 10.4016 14.1998 10.1445 13.847 9.70208C13.5032 9.27099 13.3694 8.75449 13.3084 8.24323C13.2499 7.75268 13.2499 7.17492 13.25 6.55647C13.25 6.53768 13.25 6.51886 13.25 6.5C13.25 5.8576 13.2506 5.25931 13.3145 4.7518C13.3793 4.23844 13.5183 3.72367 13.8642 3.29473C14.2186 2.85536 14.7138 2.59866 15.3061 2.45021Z" fill="black"/>
<path fill-rule="evenodd" clip-rule="evenodd" d="M4.30609 13.4502C4.88649 13.3047 5.61184 13.25 6.50001 13.25C7.38817 13.25 8.11352 13.3047 8.69392 13.4502C9.28624 13.5987 9.78144 13.8554 10.1358 14.2947C10.4817 14.7237 10.6208 15.2384 10.6855 15.7518C10.7495 16.2593 10.75 16.8576 10.75 17.5C10.75 17.5189 10.75 17.5377 10.75 17.5565C10.7501 18.1749 10.7501 18.7527 10.6916 19.2432C10.6306 19.7545 10.4968 20.271 10.153 20.7021C9.80023 21.1445 9.30398 21.4016 8.70981 21.55C8.12762 21.6953 7.3974 21.75 6.50001 21.75C5.60261 21.75 4.87239 21.6953 4.2902 21.55C3.69603 21.4016 3.19978 21.1445 2.84699 20.7021C2.50319 20.271 2.36941 19.7545 2.30842 19.2432C2.2499 18.7527 2.24995 18.1749 2.25 17.5565C2.25 17.5377 2.25001 17.5189 2.25001 17.5C2.25001 16.8576 2.25055 16.2593 2.31454 15.7518C2.37926 15.2384 2.51831 14.7237 2.86424 14.2947C3.21858 13.8554 3.71378 13.5987 4.30609 13.4502Z" fill="black"/>
<path fill-rule="evenodd" clip-rule="evenodd" d="M15.3061 13.4502C15.8865 13.3047 16.6118 13.25 17.5 13.25C18.3882 13.25 19.1135 13.3047 19.6939 13.4502C20.2862 13.5987 20.7814 13.8554 21.1358 14.2947C21.4817 14.7237 21.6208 15.2384 21.6855 15.7518C21.7495 16.2593 21.75 16.8576 21.75 17.5C21.75 17.5189 21.75 17.5377 21.75 17.5565C21.7501 18.1749 21.7501 18.7527 21.6916 19.2432C21.6306 19.7545 21.4968 20.271 21.153 20.7021C20.8002 21.1445 20.304 21.4016 19.7098 21.55C19.1276 21.6953 18.3974 21.75 17.5 21.75C16.6026 21.75 15.8724 21.6953 15.2902 21.55C14.696 21.4016 14.1998 21.1445 13.847 20.7021C13.5032 20.271 13.3694 19.7545 13.3084 19.2432C13.2499 18.7527 13.2499 18.1749 13.25 17.5565C13.25 17.5377 13.25 17.5189 13.25 17.5C13.25 16.8576 13.2506 16.2593 13.3145 15.7518C13.3793 15.2384 13.5183 14.7237 13.8642 14.2947C14.2186 13.8554 14.7138 13.5987 15.3061 13.4502Z" fill="black"/>
</svg>
