<svg width="40" height="40" viewBox="0 0 40 40" fill="none" xmlns="http://www.w3.org/2000/svg">
<rect width="40" height="40" rx="8" fill="#F0F0F0" fill-opacity="0.81"/>
<path d="M18.3303 24.5929H12.0295" stroke="#141414" stroke-width="1.5" stroke-linecap="round" stroke-linejoin="round"/>
<path d="M21.1404 14.9004H27.4411" stroke="#141414" stroke-width="1.5" stroke-linecap="round" stroke-linejoin="round"/>
<path fill-rule="evenodd" clip-rule="evenodd" d="M16.7263 14.8463C16.7263 13.5506 15.6681 12.5 14.3631 12.5C13.0582 12.5 12 13.5506 12 14.8463C12 16.1419 13.0582 17.1925 14.3631 17.1925C15.6681 17.1925 16.7263 16.1419 16.7263 14.8463Z" stroke="#141414" stroke-width="1.5" stroke-linecap="round" stroke-linejoin="round"/>
<path fill-rule="evenodd" clip-rule="evenodd" d="M28 24.5537C28 23.2581 26.9426 22.2075 25.6376 22.2075C24.3318 22.2075 23.2737 23.2581 23.2737 24.5537C23.2737 25.8494 24.3318 26.9 25.6376 26.9C26.9426 26.9 28 25.8494 28 24.5537Z" stroke="#141414" stroke-width="1.5" stroke-linecap="round" stroke-linejoin="round"/>
</svg>
