<svg width="56" height="56" viewBox="0 0 56 56" fill="none" xmlns="http://www.w3.org/2000/svg">
<circle cx="28" cy="28" r="28" fill="#FFFBEE"/>
<path fill-rule="evenodd" clip-rule="evenodd" d="M14.696 20.6086C14.696 17.3432 17.3436 14.6953 20.608 14.6953H27.108C30.3737 14.6953 33.0214 17.343 33.0214 20.6086V21.8526C33.0214 22.4049 32.5737 22.8526 32.0214 22.8526C31.4691 22.8526 31.0214 22.4049 31.0214 21.8526V20.6086C31.0214 18.4476 29.2691 16.6953 27.108 16.6953H20.608C18.4485 16.6953 16.696 18.4474 16.696 20.6086V35.4486C16.696 37.6099 18.4485 39.362 20.608 39.362H27.1214C29.2748 39.362 31.0214 37.616 31.0214 35.4633V34.206C31.0214 33.6537 31.4691 33.206 32.0214 33.206C32.5737 33.206 33.0214 33.6537 33.0214 34.206V35.4633C33.0214 38.7213 30.3786 41.362 27.1214 41.362H20.608C17.3436 41.362 14.696 38.7141 14.696 35.4486V20.6086Z" fill="#0B0B00"/>
<path d="M41.0793 28.0285H25.0247" stroke="#0B0B00" stroke-width="1.5" stroke-linecap="round" stroke-linejoin="round"/>
<path fill-rule="evenodd" clip-rule="evenodd" d="M36.4664 23.4362C36.856 23.0448 37.4892 23.0434 37.8806 23.433L41.7846 27.3197C41.9731 27.5074 42.079 27.7623 42.079 28.0283C42.0791 28.2943 41.9731 28.5493 41.7847 28.7369L37.8807 32.6249C37.4894 33.0147 36.8562 33.0134 36.4665 32.622C36.0768 32.2307 36.0781 31.5976 36.4694 31.2078L39.6618 28.0285L36.4695 24.8504C36.0781 24.4607 36.0767 23.8276 36.4664 23.4362Z" fill="#0B0B00"/>
</svg>
