<svg width="48" height="48" viewBox="0 0 48 48" fill="none" xmlns="http://www.w3.org/2000/svg">
<path d="M33.0964 18.3718C33.0964 21.7772 33.0907 25.1838 33.1009 28.5893C33.1032 29.2833 32.8715 29.8433 32.3774 30.3352C28.6175 34.0814 24.8678 37.8379 21.1148 41.591C20.5162 42.1885 20.2447 42.2055 19.5347 41.7137C19.1156 41.424 18.6873 41.1468 18.2625 40.864C17.1107 40.0972 16.6404 38.8659 16.9925 37.538C17.6605 35.022 18.3193 32.5025 19.0054 29.991C19.1042 29.6298 19.0031 29.6071 18.693 29.6082C15.1024 29.6173 11.5118 29.615 7.92227 29.6139C5.54139 29.6139 4.00564 28.0872 4.01927 25.7052C4.02722 24.358 3.93975 23.0097 4.07606 21.6648C4.14195 21.0139 4.32483 20.3994 4.57814 19.7916C6.29678 15.6671 7.9961 11.5347 9.70225 7.40563C10.1441 6.33447 10.628 6.00732 11.7685 6.00732C18.225 6.00732 24.6827 6.00732 31.1392 6.00732C32.1263 6.00732 32.7522 6.40603 32.993 7.18527C33.0816 7.47152 33.0964 7.76913 33.0964 8.06901C33.0941 11.5029 33.0953 14.9379 33.0953 18.3718H33.0964Z" fill="#FF4F4F"/>
<path d="M36.7153 16.9242C36.7153 13.4347 36.7233 9.94402 36.7051 6.45449C36.7028 6.06146 36.821 5.99672 37.1777 6.00012C38.8088 6.01943 40.44 6.00467 42.0723 6.01035C43.3173 6.01375 43.9943 6.68167 43.9954 7.93118C43.9999 13.9038 43.9999 19.8765 43.9954 25.848C43.9954 27.0509 43.2241 27.8063 42.0189 27.8097C40.3877 27.8142 38.7554 27.7995 37.1243 27.8199C36.7789 27.8244 36.7074 27.7211 36.7085 27.3939C36.7199 23.9044 36.7153 20.4149 36.7153 16.9242Z" fill="#FF4F4F"/>
</svg>
