<svg width="42" height="42" viewBox="0 0 42 42" fill="none" xmlns="http://www.w3.org/2000/svg">
<g clip-path="url(#clip0_194_3872)">
<path d="M29.4501 22.9127H13.5574L12.4863 23.1647L11.2211 28.9076L10.8165 30.559C10.8702 30.9359 11.0807 31.2504 11.4447 31.5134C11.9491 31.8772 12.5082 32.1325 13.0904 32.3341C15.3247 33.1056 17.6512 33.3149 19.9886 33.4102C20.9961 33.4507 22.007 33.4211 23.0189 33.3554C24.7018 33.2469 26.3649 33.0475 27.9963 32.6168C28.8306 32.3966 29.6474 32.1216 30.3754 31.6405C30.9334 31.2712 31.1757 30.9458 31.19 30.4571L30.9882 29.7908L29.449 22.9116L29.4501 22.9127Z" fill="#E5E6E7"/>
<path d="M-4.56953e-06 30.9316C0.142521 30.6247 0.396873 30.4746 0.710429 30.3705C4.22971 29.2013 7.74569 28.0234 11.2639 26.8509C11.3746 26.8136 11.5073 26.7041 11.6081 26.7917C11.7265 26.8947 11.629 27.0448 11.5994 27.1742C11.3878 28.1176 11.2003 29.0677 10.9558 30.0034C10.8023 30.5919 10.9799 31.0137 11.4327 31.3655C12.1695 31.9397 13.0345 32.2465 13.9181 32.4766C16.8235 33.2349 19.7847 33.4058 22.7733 33.2513C24.7555 33.1483 26.7147 32.9171 28.6147 32.3155C29.2922 32.1008 29.9489 31.8356 30.5234 31.3995C31.0036 31.0335 31.2032 30.6006 31.0354 29.975C30.7854 29.0414 30.6177 28.0858 30.3886 27.1468C30.2987 26.7775 30.4346 26.7775 30.7098 26.8706C34.2466 28.0694 37.7856 29.2649 41.3224 30.4659C41.9156 30.6675 42.0186 30.8439 41.9846 31.5079C41.875 31.7994 41.6514 31.9583 41.3674 32.0624C38.4062 33.1527 35.4329 34.2145 32.4694 35.2971C29.21 36.4882 25.9418 37.6542 22.6867 38.8573C21.6485 39.2408 20.6344 39.3241 19.5742 38.9285C17.3091 38.0837 15.0342 37.2608 12.7637 36.4291C10.0568 35.4363 7.34772 34.4534 4.64303 33.4551C3.28465 32.9533 1.92518 32.4547 0.563518 31.9616C0.285046 31.8608 0.089896 31.7041 -0.00219727 31.4236V30.9316H-4.56953e-06Z" fill="#F19B1F"/>
<path d="M0 31.4236C0.283954 31.8422 0.763058 31.9167 1.18515 32.0734C4.44021 33.2776 7.69856 34.472 10.958 35.6642C13.6035 36.6318 16.2523 37.5928 18.901 38.5538C19.4492 38.7521 19.9853 38.9669 20.573 39.0655C21.3097 39.1894 21.9752 38.9943 22.6374 38.7576C24.3291 38.1538 26.0141 37.5303 27.7014 36.9134C30.2844 35.9711 32.8652 35.0254 35.4493 34.0863C37.164 33.4639 38.8831 32.8547 40.5978 32.2334C41.0911 32.0548 41.6218 31.9375 41.9868 31.5091C41.9912 32.3835 41.9978 33.2568 41.9989 34.1312C41.9989 34.5411 41.7292 34.7295 41.3871 34.8545C39.6757 35.4747 37.9632 36.096 36.2519 36.7173C31.6 38.4037 26.9493 40.0901 22.2975 41.7765C22.0848 41.8532 21.87 41.9266 21.6562 42.0022H20.4261C19.2212 41.8477 18.1424 41.2987 17.0208 40.8955C13.8239 39.7449 10.6368 38.5691 7.44859 37.3967C5.16928 36.5584 2.88997 35.7201 0.605184 34.8972C0.305881 34.7898 0.0745517 34.6243 0.00109635 34.2945V31.4247L0 31.4236Z" fill="#E47D25"/>
<path d="M28.1323 17.0009C28.5588 18.9153 28.982 20.8307 29.4129 22.7439C29.6332 23.7235 29.642 23.7301 28.6904 24.1038C27.1533 24.7086 25.5384 24.9596 23.9059 25.1141C21.9709 25.2971 20.0336 25.3025 18.0997 25.1141C16.3181 24.9398 14.5596 24.6626 12.8997 23.9295C12.4853 23.7465 12.3921 23.5438 12.4962 23.1C12.9764 21.0729 13.415 19.0347 13.8689 17.0009C14.0234 16.8662 14.1791 16.9516 14.3304 17.0053C16.0572 17.6288 17.8475 17.8557 19.6729 17.951C21.7308 18.0584 23.7634 17.9433 25.7818 17.5434C26.4122 17.4184 27.0371 17.2716 27.6335 17.0218C27.7914 16.956 27.9602 16.8563 28.1323 17.0009Z" fill="#E47E25"/>
<path d="M28.1323 17.001C27.3264 17.2443 26.5371 17.5412 25.7039 17.6946C23.3248 18.134 20.9325 18.2184 18.5261 17.997C16.9714 17.8546 15.4398 17.6157 13.9905 16.9999C13.9565 16.9856 13.9093 16.9999 13.8688 16.9999C14.0837 16.0236 14.2974 15.0461 14.5156 14.0709C14.8686 12.4875 15.2261 10.9041 15.5791 9.32069C15.5966 9.23961 15.5999 9.15742 15.6865 9.11579C15.8422 8.99635 16.0034 9.06757 16.1547 9.11579C18.2443 9.77763 20.3975 9.8127 22.5551 9.72285C23.646 9.67792 24.7171 9.44452 25.7674 9.1388C25.944 9.08729 26.1259 8.9821 26.3145 9.11579C26.5754 9.69764 26.6489 10.3299 26.787 10.9435C27.2442 12.9609 27.685 14.9815 28.1312 17.001H28.1323Z" fill="#E5E6E7"/>
<path d="M26.3145 9.11577C25.2247 9.41601 24.1361 9.71296 23.0014 9.79843C20.6069 9.98033 18.2344 9.92445 15.9244 9.16398C15.8477 9.13878 15.7655 9.13111 15.6854 9.11577C15.8685 8.00027 16.1612 6.90778 16.4057 5.80543C16.7072 4.44886 17.0197 3.09557 17.3278 1.74119C17.4286 1.67435 17.5163 1.72257 17.5832 1.7905C18.2575 2.48632 19.1521 2.64959 20.0434 2.74054C21.1419 2.85341 22.2438 2.82272 23.3105 2.45454C23.7008 2.31976 24.0692 2.15868 24.3575 1.84858C24.4387 1.76201 24.5264 1.65901 24.6711 1.74119C25.2204 4.15847 25.7696 6.57576 26.3167 8.99413C26.3255 9.03249 26.3145 9.07522 26.3134 9.11686L26.3145 9.11577Z" fill="#E47E25"/>
<path d="M24.6722 1.74121C24.2501 2.14884 23.7798 2.46552 23.1976 2.61564C21.5476 3.0419 19.9173 3.02656 18.3035 2.4447C17.9077 2.30225 17.6731 1.94831 17.33 1.74121C17.33 0.758302 17.9921 0.393409 18.8067 0.226851C20.2934 -0.0766791 21.7866 -0.0810622 23.2744 0.247671C24.0791 0.426282 24.6623 0.816378 24.6722 1.74012V1.74121Z" fill="#F19B1F"/>
</g>
<defs>
<clipPath id="clip0_194_3872">
<rect width="42" height="42" fill="white"/>
</clipPath>
</defs>
</svg>
