<svg width="20" height="20" viewBox="0 0 20 20" fill="none" xmlns="http://www.w3.org/2000/svg">
<g clip-path="url(#clip0_195_3993)">
<path d="M11.4441 2.22151C11.6205 2.22151 11.806 2.2953 12.0147 2.44106C12.1275 2.51982 12.2462 2.59904 12.3608 2.67554C12.4106 2.70859 12.4598 2.74163 12.5095 2.77468C13.1191 3.1848 13.382 3.88147 13.1952 4.59307C13.1325 4.83254 13.0694 5.07246 13.0067 5.31192C12.8459 5.92575 12.6811 6.55678 12.5131 7.18373C13.6785 7.18147 14.855 7.18192 15.997 7.18237H16.3383C16.9232 7.18237 17.4226 7.37612 17.7822 7.74233C18.1409 8.10674 18.3286 8.60921 18.3255 9.19587C18.3246 9.35023 18.3268 9.51003 18.3295 9.66439C18.3353 10.0487 18.3411 10.4462 18.3008 10.849C18.2726 11.1311 18.1974 11.4176 18.0706 11.7241C17.5632 12.9535 17.0522 14.2061 16.5577 15.4174C16.3889 15.8312 16.2201 16.2449 16.0508 16.6587C15.8076 17.253 15.4515 17.4957 14.8218 17.4957H13.8903C11.655 17.4957 9.4193 17.4957 7.18404 17.4957C6.60137 17.4957 6.17904 17.2082 6.02542 16.7076C5.97168 16.5324 5.96451 16.3635 5.96451 16.2214C5.96496 15.0888 5.96496 13.9562 5.96496 12.8236V12.1156V11.0532C5.96496 10.0673 5.96585 9.04739 5.96272 8.04517C5.96138 7.64954 6.102 7.30731 6.37968 7.02756C7.46887 5.93028 8.57464 4.81262 9.64368 3.73163L10.8198 2.54291C11.032 2.32834 11.2313 2.22196 11.4436 2.22196L11.4441 2.22151ZM12.0809 8.09044C11.9775 8.09044 11.7594 8.0832 11.6098 7.88583C11.4521 7.6776 11.5157 7.44266 11.5363 7.36571C11.7415 6.60567 11.9443 5.83069 12.141 5.08106C12.2037 4.84114 12.2664 4.60122 12.3295 4.3613C12.4186 4.02135 12.3067 3.72575 12.0133 3.52884C11.9649 3.49624 11.9161 3.46365 11.8678 3.43151C11.7491 3.35229 11.6264 3.27036 11.505 3.18571C11.4929 3.17711 11.4821 3.16986 11.4723 3.16353C11.4665 3.16941 11.4602 3.17575 11.453 3.18254L10.2774 4.37126C9.20791 5.4527 8.10215 6.57081 7.01206 7.66855C6.90278 7.779 6.85799 7.88719 6.85844 8.04246C6.86113 9.04649 6.86068 10.0668 6.86068 11.0537V12.1156V12.8236C6.86068 13.9562 6.86068 15.0892 6.86023 16.2218C6.86023 16.2997 6.86247 16.3803 6.88083 16.4396C6.90054 16.503 6.92696 16.5903 7.18404 16.5903C9.4193 16.5908 11.6546 16.5903 13.8898 16.5903H14.8214C15.0901 16.5903 15.1165 16.5722 15.2222 16.3128C15.3911 15.8995 15.5599 15.4858 15.7288 15.072C16.2236 13.8598 16.7351 12.6068 17.243 11.3755C17.3366 11.1492 17.389 10.9527 17.4087 10.7576C17.4441 10.4072 17.4387 10.0528 17.4329 9.67797C17.4306 9.51908 17.4279 9.35476 17.4288 9.19044C17.4306 8.85048 17.333 8.57028 17.1467 8.3806C16.9586 8.18912 16.6787 8.08818 16.3378 8.08818H15.9966C14.717 8.08772 13.3936 8.08682 12.0926 8.09044H12.0805H12.0809Z" fill="#777777"/>
<path d="M4.83957 7.89919C4.92466 7.89919 5.11724 7.90961 5.27085 8.06306C5.43746 8.2301 5.43701 8.44286 5.43701 8.52298C5.43343 9.61393 5.43388 10.7234 5.43388 11.7963V12.6935C5.43388 13.0094 5.43388 13.3259 5.43388 13.6418C5.43343 14.6979 5.43298 15.7898 5.43835 16.8631C5.43835 16.9373 5.4397 17.1623 5.26996 17.3329C5.10067 17.5036 4.88122 17.5004 4.79836 17.5C4.39394 17.495 3.98102 17.4954 3.58153 17.4964C3.34506 17.4964 3.10903 17.4968 2.87256 17.4964C2.13001 17.4941 1.66872 17.0274 1.66782 16.2787C1.66603 13.9546 1.66603 11.5523 1.66782 9.13771C1.66827 8.41298 2.17256 7.90553 2.89361 7.90372C3.11844 7.90327 3.34371 7.90372 3.56854 7.90372C3.97878 7.90417 4.4029 7.90508 4.81896 7.89965C4.82479 7.89965 4.8315 7.89965 4.83912 7.89965L4.83957 7.89919ZM4.54084 16.5919C4.53636 15.6055 4.53726 14.6087 4.53771 13.6418C4.53771 13.3259 4.53771 13.0099 4.53771 12.6939V11.7967C4.53771 10.8167 4.53681 9.80677 4.5395 8.80726C4.21301 8.80952 3.88607 8.80907 3.56719 8.80862C3.34326 8.80862 3.11933 8.80817 2.8954 8.80862C2.66565 8.80907 2.56309 8.91092 2.56309 9.13817C2.5613 11.5523 2.5613 13.9542 2.56309 16.2778C2.56309 16.5258 2.62758 16.5901 2.8748 16.5906C3.10993 16.5915 3.34506 16.5906 3.57973 16.5906C3.89458 16.5901 4.21793 16.5896 4.54039 16.5919H4.54084Z" fill="#777777"/>
</g>
<defs>
<clipPath id="clip0_195_3993">
<rect width="16.6667" height="15.2778" fill="white" transform="matrix(-1 0 0 -1 18.3335 17.5)"/>
</clipPath>
</defs>
</svg>
