<svg width="20" height="20" viewBox="0 0 20 20" fill="none" xmlns="http://www.w3.org/2000/svg">
<path fill-rule="evenodd" clip-rule="evenodd" d="M3.33537 8.8179C3.33537 5.58376 5.96703 2.95292 9.20117 2.95292C12.4345 2.95292 15.0662 5.58376 15.0662 8.8179C15.0662 12.0521 12.4345 14.6837 9.20117 14.6837C5.96703 14.6837 3.33537 12.0521 3.33537 8.8179ZM18.7478 17.5337L14.9153 13.7112C16.0453 12.3937 16.7328 10.6862 16.7328 8.8179C16.7328 4.66542 13.3537 1.28625 9.20117 1.28625C5.04787 1.28625 1.6687 4.66542 1.6687 8.8179C1.6687 12.9712 5.04787 16.3504 9.20117 16.3504C10.8862 16.3504 12.4387 15.7871 13.6945 14.8479L17.5712 18.7137L18.7478 17.5337Z" fill="#141414"/>
</svg>
