<svg width="48" height="48" viewBox="0 0 48 48" fill="none" xmlns="http://www.w3.org/2000/svg">
<rect width="48" height="48" rx="7" fill="white"/>
<path d="M16.7503 32.1706C16.2441 32.1706 15.9787 31.9765 15.8338 31.4998L14.2459 26.2662C13.6187 24.1992 12.9915 22.1315 12.3637 20.0638C12.3564 20.0387 12.3441 20.0184 12.333 20.003V19.7002C12.3404 19.683 12.3471 19.6664 12.3539 19.6492C12.3754 19.5976 12.395 19.5485 12.4184 19.5024C12.556 19.2284 12.8078 19.0712 13.1095 19.0712C13.2557 19.0712 13.4055 19.108 13.5542 19.1799L13.6482 19.2254C15.1802 19.968 16.7644 20.7359 18.3179 21.5C18.4027 21.5418 18.4684 21.5602 18.5311 21.5602C18.6619 21.5602 18.751 21.4773 18.821 21.3962C20.2762 19.7076 21.7622 17.9956 23.1996 16.3407L23.3562 16.1601C23.5393 15.9494 23.7678 15.8333 24 15.8333C24.2322 15.8333 24.4613 15.9494 24.6444 16.1601C26.3269 18.0982 27.7293 19.7143 29.179 21.3962C29.2496 21.4779 29.3393 21.5615 29.4714 21.5615C29.5346 21.5615 29.6004 21.543 29.6833 21.5019C30.8916 20.906 32.1232 20.3065 33.3143 19.7272L34.3205 19.2376C34.5588 19.1215 34.7578 19.065 34.9286 19.065C35.2425 19.065 35.471 19.2616 35.6663 19.7014V20.0258C35.5773 20.3139 35.4876 20.6019 35.3985 20.89C35.2013 21.5258 34.9968 22.1831 34.7996 22.8305C34.2744 24.5548 33.751 26.2797 33.227 28.0046C32.8732 29.1699 32.5194 30.3352 32.165 31.5005C32.02 31.9771 31.7546 32.1713 31.2491 32.1713H23.9994H16.7497L16.7503 32.1706ZM23.6978 30.5747C26.0898 30.5747 28.2901 30.5766 30.4235 30.5803C30.6833 30.5803 30.8123 30.4851 30.8854 30.24C31.3302 28.7577 31.7884 27.2527 32.2313 25.7969C32.3929 25.2649 32.555 24.733 32.7166 24.201C32.8916 23.6248 33.0655 23.0486 33.2442 22.4565L33.5667 21.3888L33.2197 21.5541C33.1656 21.5799 33.1245 21.5989 33.0833 21.6192L29.6986 23.2636C29.4793 23.3699 29.3067 23.4196 29.1556 23.4196C28.9253 23.4196 28.7244 23.3011 28.4836 23.0234L27.5523 21.9503C26.4632 20.6953 25.3373 19.3974 24.2346 18.1172C24.1744 18.0472 24.102 17.9728 24 17.9728C23.898 17.9728 23.8255 18.0472 23.7653 18.1172C22.6953 19.358 21.6037 20.6167 20.5477 21.8336L19.501 23.0406C19.2737 23.3029 19.0686 23.4196 18.8351 23.4196C18.6914 23.4196 18.5298 23.3754 18.3419 23.2839C17.6987 22.9718 17.0562 22.6586 16.4137 22.3453C15.9222 22.1057 15.4302 21.8661 14.9382 21.6272C14.9222 21.6192 14.9068 21.6106 14.8909 21.6014C14.8325 21.5682 14.76 21.5271 14.6666 21.5271H14.5843L14.5512 21.6032C14.5131 21.6966 14.5432 21.7697 14.5598 21.809C14.5622 21.8151 14.5653 21.8213 14.5671 21.8274L15.01 23.2851C15.7066 25.5782 16.4272 27.9493 17.1299 30.283C17.1938 30.4955 17.3056 30.5778 17.5292 30.5778C19.5864 30.5754 21.6418 30.5741 23.6978 30.5741V30.5747Z" fill="#FBB10C"/>
</svg>
