<svg width="48" height="48" viewBox="0 0 48 48" fill="none" xmlns="http://www.w3.org/2000/svg">
<rect width="48" height="48" rx="7" fill="white"/>
<path d="M35.6451 19.697C35.6441 19.431 35.6102 19.1699 35.5474 18.9116C35.2049 17.5207 34.8326 16.1375 34.4911 14.7466C34.406 14.4003 34.3247 14.054 34.229 13.7106C34.0404 13.0297 33.4261 12.3313 32.4405 12.3333C26.7994 12.34 21.1583 12.3362 15.5172 12.3381C15.2909 12.3381 15.0665 12.3584 14.8518 12.4571C14.2327 12.7414 13.8758 13.2251 13.7143 13.876C13.427 15.0387 13.1358 16.1994 12.8427 17.3611C12.6522 18.1156 12.4094 18.8584 12.332 19.638C12.332 19.729 12.332 19.8199 12.332 19.9108C12.332 20.0017 12.332 20.0927 12.332 20.1836C12.332 20.3499 12.332 20.5173 12.332 20.6837C12.3785 20.7523 12.3543 20.8316 12.361 20.9052C12.4336 21.6471 12.7924 22.2729 13.1784 22.8813C13.337 23.1308 13.4067 23.3756 13.4057 23.6677C13.3999 27.0009 13.4096 30.3341 13.397 33.6682C13.3941 34.5204 13.9735 35.5679 15.0201 35.6501C15.0655 35.6501 15.111 35.6501 15.1564 35.6501C21.0364 35.6501 26.9165 35.6501 32.7955 35.6501C32.8255 35.6501 32.8564 35.6501 32.8864 35.6501C33.1234 35.6105 33.3662 35.6076 33.5838 35.478C34.2764 35.0659 34.5898 34.442 34.5917 33.6595C34.5985 31.4841 34.5946 25.4387 34.5946 23.2634C34.5946 23.243 34.5936 23.2218 34.5927 23.2014C34.6613 23.1231 34.7281 23.0418 34.7919 22.9577C35.2814 22.3116 35.6006 21.5929 35.6654 20.7746C35.6654 20.5163 35.6654 20.259 35.6654 20.0008C35.6218 19.9021 35.6567 19.7976 35.6451 19.697ZM28.5918 13.9476C29.8134 13.9554 31.036 13.9534 32.2577 13.9496C32.4386 13.9486 32.5672 13.9921 32.6156 14.1846C33.076 16.0243 33.5625 17.8583 33.9901 19.7057C34.3383 21.2118 33.2143 22.7904 31.6764 23.0418C30.1104 23.2972 28.6092 22.1887 28.4167 20.6324C28.3954 20.4602 28.3838 20.2851 28.3838 20.112C28.3809 19.1573 28.3819 18.2026 28.3819 17.2479C28.3819 16.2178 28.3867 15.1877 28.377 14.1575C28.3761 13.9815 28.4254 13.9467 28.5918 13.9476ZM21.5201 13.9476C23.206 13.9534 24.892 13.9534 26.5779 13.9476C26.7433 13.9467 26.7936 13.9805 26.7917 14.1556C26.782 15.2012 26.7868 16.2478 26.7868 17.2934C26.7859 17.2934 26.7849 17.2934 26.7839 17.2934C26.7839 18.3245 26.7984 19.3556 26.7801 20.3857C26.7578 21.6045 25.8486 22.7236 24.6888 23.0012C23.2176 23.3533 21.7619 22.4508 21.403 20.9661C21.3402 20.7078 21.3083 20.4457 21.3083 20.1797C21.3102 18.1707 21.3121 16.1627 21.3044 14.1536C21.3034 13.9747 21.3576 13.9467 21.5201 13.9476ZM13.9667 20.5734C13.8942 19.9495 14.0683 19.373 14.2143 18.7878C14.5867 17.2924 14.9669 15.798 15.3431 14.3036C15.4244 13.9824 15.4621 13.9515 15.791 13.9515C17.0136 13.9515 18.2352 13.9554 19.4569 13.9476C19.6252 13.9467 19.6716 13.9853 19.6697 14.1575C19.661 15.1954 19.6649 16.2333 19.6649 17.2711C19.6649 18.2336 19.6668 19.195 19.6639 20.1575C19.6591 21.7012 18.5941 22.889 17.0629 23.0641C15.5927 23.2334 14.1379 22.0504 13.9667 20.5734ZM22.0511 31.311C22.0511 30.4772 22.055 29.6444 22.0482 28.8106C22.0463 28.6442 22.0724 28.5756 22.2658 28.5775C23.4198 28.5881 24.5737 28.5872 25.7277 28.5785C25.9134 28.5765 25.9511 28.6336 25.9502 28.8067C25.9434 30.4888 25.9444 32.1709 25.9492 33.853C25.9492 34.0048 25.9221 34.06 25.7538 34.059C24.5844 34.0513 23.4159 34.0513 22.2465 34.059C22.085 34.06 22.0463 34.0145 22.0472 33.8568C22.055 33.0085 22.0511 32.1593 22.0511 31.311ZM32.8206 33.4303C32.8206 33.9613 32.7926 33.9894 32.2751 33.9894C30.8697 33.9894 29.4642 33.9894 28.0598 33.9894C27.9843 33.9894 27.9079 33.9903 27.8325 33.9855C27.7328 33.9787 27.6816 33.9284 27.6748 33.8288C27.67 33.7456 27.67 33.6624 27.67 33.5783C27.67 31.7211 27.67 29.864 27.67 28.0059C27.67 27.823 27.6612 27.6422 27.5984 27.4681C27.4717 27.114 27.1825 26.8954 26.8062 26.8945C24.9374 26.8906 23.0687 26.8935 21.1999 26.8925C20.8488 26.8925 20.6138 27.0676 20.4493 27.3588C20.3449 27.5435 20.3303 27.7466 20.3313 27.9536C20.3323 29.834 20.3323 31.7134 20.3323 33.5937C20.3323 33.9894 20.3323 33.9894 19.926 33.9894C18.9994 33.9894 18.0727 33.9894 17.1461 33.9894C16.6141 33.9894 16.0831 33.9923 15.5511 33.9884C15.2599 33.9865 15.1932 33.9158 15.1816 33.6237C15.1797 33.5783 15.1806 33.5328 15.1806 33.4873C15.1806 30.5914 15.1806 27.6954 15.1806 24.7994C15.1806 24.7317 15.1777 24.663 15.1864 24.5953C15.1971 24.5198 15.2406 24.4918 15.3141 24.5053C15.3818 24.5179 15.4447 24.545 15.5105 24.5643C16.646 24.9009 17.7487 24.8129 18.8137 24.3003C19.4018 24.0168 19.9173 23.6328 20.3197 23.1125C20.4164 22.9877 20.488 22.9625 20.5925 23.1086C20.725 23.2943 20.9001 23.4433 21.0635 23.6019C22.2794 24.7839 24.3329 25.105 25.8583 24.3602C26.4599 24.0671 26.9987 23.6986 27.4185 23.1695C27.5761 22.9712 27.611 22.977 27.7783 23.1773C27.876 23.2943 27.9746 23.4084 28.0849 23.5129C29.4197 24.7694 31.2595 25.0625 32.8197 24.455C32.8216 27.1343 32.8206 31.635 32.8206 33.4303Z" fill="#0A38A7"/>
</svg>
